<svg width="337" height="48" viewBox="0 0 337 48" fill="none" xmlns="http://www.w3.org/2000/svg">
<g opacity="0.5">
<mask id="path-1-outside-1_1920_1380" maskUnits="userSpaceOnUse" x="0.918457" y="0.199951" width="336" height="48" fill="black">
<rect fill="white" x="0.918457" y="0.199951" width="336" height="48"/>
<path d="M1.91846 46V45.36L3.51846 44.784C4.37179 44.4426 5.03312 44.0373 5.50246 43.568C5.97179 43.056 6.35579 42.352 6.65446 41.456L19.8385 3.63195H25.2785L38.2705 41.712C38.6118 42.6506 38.9958 43.376 39.4225 43.888C39.8491 44.3573 40.5105 44.7626 41.4065 45.104L42.1745 45.36V46H25.9185V45.36L26.8785 45.04C27.7745 44.6986 28.3078 44.2293 28.4785 43.632C28.6918 42.992 28.6705 42.2453 28.4145 41.392L25.4065 32.176H11.1985L8.12646 41.2C7.82779 42.1386 7.72112 42.8853 7.80646 43.44C7.93446 43.9946 8.44646 44.4426 9.34246 44.784L10.7505 45.36V46H1.91846ZM11.6465 30.896H25.0225L18.5585 10.992L11.6465 30.896ZM53.8955 46.96C52.2315 46.96 50.6955 46.64 49.2875 46C47.9221 45.36 46.8341 44.336 46.0235 42.928C45.2555 41.4773 44.8928 39.5786 44.9355 37.232L45.1275 20.784C45.1275 19.8026 44.9568 19.0986 44.6155 18.672C44.2741 18.2453 43.7408 17.9466 43.0155 17.776L42.2475 17.52V16.88L53.7035 14.64L54.3435 15.28L54.0235 24.368V39.792C54.0235 41.1573 54.4075 42.16 55.1755 42.8C55.9861 43.44 56.9888 43.76 58.1835 43.76C59.3781 43.76 60.4448 43.5893 61.3835 43.248C62.3221 42.9066 63.2608 42.3946 64.1995 41.712L64.4555 20.848C64.4555 19.8666 64.3061 19.184 64.0075 18.8C63.7088 18.3733 63.1541 18.0746 62.3435 17.904L61.7035 17.712V17.072L72.9035 14.64L73.5435 15.28L73.3515 24.368V41.712C73.3515 42.6506 73.4795 43.376 73.7355 43.888C73.9915 44.4 74.5461 44.8266 75.3995 45.168L76.0395 45.36V46L64.8395 46.64L64.2635 42.864C62.8555 44.016 61.3195 44.9973 59.6555 45.808C58.0341 46.576 56.1141 46.96 53.8955 46.96ZM90.784 46.96C88.0533 46.96 85.92 46.2773 84.384 44.912C82.8906 43.5466 82.144 41.3706 82.144 38.384V16.496H77.728V15.856L79.264 15.6C80.5866 15.3013 81.7173 14.8746 82.656 14.32C83.6373 13.7653 84.5973 13.0186 85.536 12.08L90.784 6.25595H91.424L91.232 15.216H98.4V16.496H91.168V39.536C91.168 41.0293 91.488 42.16 92.128 42.928C92.8106 43.696 93.664 44.08 94.688 44.08C95.584 44.08 96.3733 43.8666 97.056 43.44C97.7386 42.9706 98.4213 42.352 99.104 41.584L99.744 42.224C98.8906 43.6746 97.7173 44.8266 96.224 45.68C94.7306 46.5333 92.9173 46.96 90.784 46.96ZM117.753 46.96C114.511 46.96 111.695 46.2986 109.305 44.976C106.916 43.6106 105.06 41.6906 103.737 39.216C102.457 36.7413 101.817 33.84 101.817 30.512C101.817 27.184 102.5 24.304 103.865 21.872C105.273 19.44 107.172 17.5626 109.561 16.24C111.993 14.9173 114.724 14.256 117.753 14.256C120.783 14.256 123.492 14.9173 125.881 16.24C128.271 17.52 130.148 19.376 131.513 21.808C132.921 24.24 133.625 27.1413 133.625 30.512C133.625 33.8826 132.964 36.8053 131.641 39.28C130.361 41.712 128.527 43.6106 126.137 44.976C123.791 46.2986 120.996 46.96 117.753 46.96ZM117.753 45.68C119.247 45.68 120.441 45.2533 121.337 44.4C122.233 43.5466 122.873 42.032 123.257 39.856C123.684 37.68 123.897 34.608 123.897 30.64C123.897 26.6293 123.684 23.536 123.257 21.36C122.873 19.184 122.233 17.6693 121.337 16.816C120.441 15.9626 119.247 15.536 117.753 15.536C116.26 15.536 115.044 15.9626 114.105 16.816C113.209 17.6693 112.548 19.184 112.121 21.36C111.737 23.536 111.545 26.6293 111.545 30.64C111.545 34.608 111.737 37.68 112.121 39.856C112.548 42.032 113.209 43.5466 114.105 44.4C115.044 45.2533 116.26 45.68 117.753 45.68ZM136.436 46V45.36L137.332 45.104C138.143 44.8906 138.698 44.528 138.996 44.016C139.338 43.504 139.53 42.8213 139.572 41.968V21.936C139.572 20.9973 139.423 20.3146 139.124 19.888C138.826 19.4186 138.25 19.0986 137.396 18.928L136.436 18.672V18.032L147.38 14.32L148.02 14.96L148.532 19.312C149.94 17.904 151.54 16.7093 153.332 15.728C155.167 14.7466 157.066 14.256 159.028 14.256C161.076 14.256 162.719 14.6826 163.956 15.536C165.194 16.3466 166.132 17.6266 166.772 19.376C168.436 17.7973 170.228 16.56 172.148 15.664C174.111 14.7253 176.01 14.256 177.844 14.256C180.874 14.256 183.092 14.9813 184.5 16.432C185.951 17.8826 186.676 20.1653 186.676 23.28V42.032C186.676 43.696 187.444 44.7413 188.98 45.168L189.684 45.36V46H174.9V45.36L175.54 45.168C176.351 44.912 176.906 44.528 177.204 44.016C177.546 43.504 177.716 42.8213 177.716 41.968V22.384C177.716 20.592 177.396 19.376 176.756 18.736C176.116 18.0533 175.092 17.712 173.684 17.712C172.575 17.712 171.487 17.968 170.42 18.48C169.396 18.9493 168.308 19.6746 167.156 20.656C167.37 21.3386 167.498 22.0853 167.54 22.896C167.626 23.7066 167.668 24.56 167.668 25.456V42.032C167.711 43.696 168.479 44.7413 169.972 45.168L170.548 45.36V46H155.7V45.36L156.596 45.104C157.407 44.848 157.962 44.4853 158.26 44.016C158.602 43.504 158.772 42.8213 158.772 41.968V22.448C158.772 20.7413 158.452 19.5253 157.812 18.8C157.215 18.0746 156.17 17.712 154.676 17.712C153.695 17.712 152.714 17.968 151.732 18.48C150.751 18.9493 149.727 19.6533 148.66 20.592V42.032C148.66 43.696 149.407 44.7413 150.9 45.168L151.476 45.36V46H136.436ZM201.155 46.96C198.681 46.96 196.59 46.256 194.883 44.848C193.219 43.44 192.387 41.4133 192.387 38.768C192.387 36.7626 193.411 34.928 195.459 33.264C197.507 31.5573 200.729 30.2773 205.123 29.424C205.806 29.296 206.574 29.168 207.427 29.04C208.281 28.8693 209.177 28.6986 210.115 28.528V23.472C210.115 20.5706 209.753 18.544 209.027 17.392C208.345 16.1973 207.257 15.6 205.763 15.6C204.739 15.6 203.929 15.9413 203.331 16.624C202.734 17.264 202.35 18.3946 202.179 20.016L202.051 20.72C201.966 22.5546 201.518 23.8986 200.707 24.752C199.897 25.6053 198.894 26.032 197.699 26.032C196.59 26.032 195.673 25.6906 194.947 25.008C194.222 24.3253 193.859 23.408 193.859 22.256C193.859 20.5066 194.457 19.0346 195.651 17.84C196.889 16.6453 198.51 15.7493 200.515 15.152C202.521 14.5546 204.697 14.256 207.043 14.256C210.841 14.256 213.763 15.1946 215.811 17.072C217.902 18.9066 218.947 21.9146 218.947 26.096V40.24C218.947 42.16 219.843 43.12 221.635 43.12H223.043L223.619 43.632C222.809 44.656 221.913 45.4453 220.931 46C219.993 46.5546 218.649 46.832 216.899 46.832C215.022 46.832 213.529 46.4053 212.419 45.552C211.353 44.656 210.649 43.4826 210.307 42.032C209.027 43.3973 207.705 44.5706 206.339 45.552C205.017 46.4906 203.289 46.96 201.155 46.96ZM205.059 43.056C205.913 43.056 206.702 42.864 207.427 42.48C208.195 42.0533 209.091 41.4133 210.115 40.56V29.808C209.689 29.8933 209.262 29.9786 208.835 30.064C208.409 30.1493 207.918 30.2346 207.363 30.32C205.401 30.832 203.822 31.7066 202.627 32.944C201.475 34.1386 200.899 35.76 200.899 37.808C200.899 39.5573 201.305 40.88 202.115 41.776C202.926 42.6293 203.907 43.056 205.059 43.056ZM237.096 46.96C234.366 46.96 232.232 46.2773 230.696 44.912C229.203 43.5466 228.456 41.3706 228.456 38.384V16.496H224.04V15.856L225.576 15.6C226.899 15.3013 228.03 14.8746 228.968 14.32C229.95 13.7653 230.91 13.0186 231.848 12.08L237.096 6.25595H237.736L237.544 15.216H244.712V16.496H237.48V39.536C237.48 41.0293 237.8 42.16 238.44 42.928C239.123 43.696 239.976 44.08 241 44.08C241.896 44.08 242.686 43.8666 243.368 43.44C244.051 42.9706 244.734 42.352 245.416 41.584L246.056 42.224C245.203 43.6746 244.03 44.8266 242.536 45.68C241.043 46.5333 239.23 46.96 237.096 46.96ZM255.741 10.928C254.291 10.928 253.053 10.48 252.029 9.58395C251.048 8.64529 250.557 7.47195 250.557 6.06395C250.557 4.61329 251.048 3.43995 252.029 2.54395C253.053 1.64795 254.291 1.19995 255.741 1.19995C257.192 1.19995 258.408 1.64795 259.389 2.54395C260.371 3.43995 260.861 4.61329 260.861 6.06395C260.861 7.47195 260.371 8.64529 259.389 9.58395C258.408 10.48 257.192 10.928 255.741 10.928ZM248.189 46V45.36L249.085 45.104C249.939 44.848 250.515 44.464 250.813 43.952C251.155 43.44 251.325 42.7573 251.325 41.904V21.872C251.325 20.976 251.155 20.3146 250.813 19.888C250.515 19.4186 249.939 19.0986 249.085 18.928L248.189 18.736V18.096L259.901 14.32L260.541 14.96L260.349 24.048V41.968C260.349 42.8213 260.499 43.504 260.797 44.016C261.139 44.528 261.715 44.912 262.525 45.168L263.165 45.36V46H248.189ZM282.191 46.96C278.948 46.96 276.132 46.2986 273.743 44.976C271.354 43.6106 269.498 41.6906 268.175 39.216C266.895 36.7413 266.255 33.84 266.255 30.512C266.255 27.184 266.938 24.304 268.303 21.872C269.711 19.44 271.61 17.5626 273.999 16.24C276.431 14.9173 279.162 14.256 282.191 14.256C285.22 14.256 287.93 14.9173 290.319 16.24C292.708 17.52 294.586 19.376 295.951 21.808C297.359 24.24 298.063 27.1413 298.063 30.512C298.063 33.8826 297.402 36.8053 296.079 39.28C294.799 41.712 292.964 43.6106 290.575 44.976C288.228 46.2986 285.434 46.96 282.191 46.96ZM282.191 45.68C283.684 45.68 284.879 45.2533 285.775 44.4C286.671 43.5466 287.311 42.032 287.695 39.856C288.122 37.68 288.335 34.608 288.335 30.64C288.335 26.6293 288.122 23.536 287.695 21.36C287.311 19.184 286.671 17.6693 285.775 16.816C284.879 15.9626 283.684 15.536 282.191 15.536C280.698 15.536 279.482 15.9626 278.543 16.816C277.647 17.6693 276.986 19.184 276.559 21.36C276.175 23.536 275.983 26.6293 275.983 30.64C275.983 34.608 276.175 37.68 276.559 39.856C276.986 42.032 277.647 43.5466 278.543 44.4C279.482 45.2533 280.698 45.68 282.191 45.68ZM300.874 46V45.36L301.77 45.104C303.263 44.6773 304.01 43.632 304.01 41.968V21.936C304.01 20.9973 303.861 20.3146 303.562 19.888C303.263 19.4186 302.687 19.0986 301.834 18.928L300.874 18.672V18.032L311.818 14.32L312.458 14.96L312.97 18.8C314.463 17.4773 316.149 16.3893 318.026 15.536C319.903 14.6826 321.759 14.256 323.594 14.256C326.41 14.256 328.565 15.024 330.058 16.56C331.594 18.096 332.362 20.4426 332.362 23.6V42.032C332.362 43.696 333.173 44.7413 334.794 45.168L335.37 45.36V46H320.266V45.36L321.098 45.104C322.591 44.6346 323.338 43.5893 323.338 41.968V21.552C323.338 18.8213 321.973 17.456 319.242 17.456C317.365 17.456 315.317 18.3946 313.098 20.272V42.032C313.098 43.696 313.845 44.7413 315.338 45.168L315.914 45.36V46H300.874Z"/>
</mask>
<path d="M1.91846 46V45.36L3.51846 44.784C4.37179 44.4426 5.03312 44.0373 5.50246 43.568C5.97179 43.056 6.35579 42.352 6.65446 41.456L19.8385 3.63195H25.2785L38.2705 41.712C38.6118 42.6506 38.9958 43.376 39.4225 43.888C39.8491 44.3573 40.5105 44.7626 41.4065 45.104L42.1745 45.36V46H25.9185V45.36L26.8785 45.04C27.7745 44.6986 28.3078 44.2293 28.4785 43.632C28.6918 42.992 28.6705 42.2453 28.4145 41.392L25.4065 32.176H11.1985L8.12646 41.2C7.82779 42.1386 7.72112 42.8853 7.80646 43.44C7.93446 43.9946 8.44646 44.4426 9.34246 44.784L10.7505 45.36V46H1.91846ZM11.6465 30.896H25.0225L18.5585 10.992L11.6465 30.896ZM53.8955 46.96C52.2315 46.96 50.6955 46.64 49.2875 46C47.9221 45.36 46.8341 44.336 46.0235 42.928C45.2555 41.4773 44.8928 39.5786 44.9355 37.232L45.1275 20.784C45.1275 19.8026 44.9568 19.0986 44.6155 18.672C44.2741 18.2453 43.7408 17.9466 43.0155 17.776L42.2475 17.52V16.88L53.7035 14.64L54.3435 15.28L54.0235 24.368V39.792C54.0235 41.1573 54.4075 42.16 55.1755 42.8C55.9861 43.44 56.9888 43.76 58.1835 43.76C59.3781 43.76 60.4448 43.5893 61.3835 43.248C62.3221 42.9066 63.2608 42.3946 64.1995 41.712L64.4555 20.848C64.4555 19.8666 64.3061 19.184 64.0075 18.8C63.7088 18.3733 63.1541 18.0746 62.3435 17.904L61.7035 17.712V17.072L72.9035 14.64L73.5435 15.28L73.3515 24.368V41.712C73.3515 42.6506 73.4795 43.376 73.7355 43.888C73.9915 44.4 74.5461 44.8266 75.3995 45.168L76.0395 45.36V46L64.8395 46.64L64.2635 42.864C62.8555 44.016 61.3195 44.9973 59.6555 45.808C58.0341 46.576 56.1141 46.96 53.8955 46.96ZM90.784 46.96C88.0533 46.96 85.92 46.2773 84.384 44.912C82.8906 43.5466 82.144 41.3706 82.144 38.384V16.496H77.728V15.856L79.264 15.6C80.5866 15.3013 81.7173 14.8746 82.656 14.32C83.6373 13.7653 84.5973 13.0186 85.536 12.08L90.784 6.25595H91.424L91.232 15.216H98.4V16.496H91.168V39.536C91.168 41.0293 91.488 42.16 92.128 42.928C92.8106 43.696 93.664 44.08 94.688 44.08C95.584 44.08 96.3733 43.8666 97.056 43.44C97.7386 42.9706 98.4213 42.352 99.104 41.584L99.744 42.224C98.8906 43.6746 97.7173 44.8266 96.224 45.68C94.7306 46.5333 92.9173 46.96 90.784 46.96ZM117.753 46.96C114.511 46.96 111.695 46.2986 109.305 44.976C106.916 43.6106 105.06 41.6906 103.737 39.216C102.457 36.7413 101.817 33.84 101.817 30.512C101.817 27.184 102.5 24.304 103.865 21.872C105.273 19.44 107.172 17.5626 109.561 16.24C111.993 14.9173 114.724 14.256 117.753 14.256C120.783 14.256 123.492 14.9173 125.881 16.24C128.271 17.52 130.148 19.376 131.513 21.808C132.921 24.24 133.625 27.1413 133.625 30.512C133.625 33.8826 132.964 36.8053 131.641 39.28C130.361 41.712 128.527 43.6106 126.137 44.976C123.791 46.2986 120.996 46.96 117.753 46.96ZM117.753 45.68C119.247 45.68 120.441 45.2533 121.337 44.4C122.233 43.5466 122.873 42.032 123.257 39.856C123.684 37.68 123.897 34.608 123.897 30.64C123.897 26.6293 123.684 23.536 123.257 21.36C122.873 19.184 122.233 17.6693 121.337 16.816C120.441 15.9626 119.247 15.536 117.753 15.536C116.26 15.536 115.044 15.9626 114.105 16.816C113.209 17.6693 112.548 19.184 112.121 21.36C111.737 23.536 111.545 26.6293 111.545 30.64C111.545 34.608 111.737 37.68 112.121 39.856C112.548 42.032 113.209 43.5466 114.105 44.4C115.044 45.2533 116.26 45.68 117.753 45.68ZM136.436 46V45.36L137.332 45.104C138.143 44.8906 138.698 44.528 138.996 44.016C139.338 43.504 139.53 42.8213 139.572 41.968V21.936C139.572 20.9973 139.423 20.3146 139.124 19.888C138.826 19.4186 138.25 19.0986 137.396 18.928L136.436 18.672V18.032L147.38 14.32L148.02 14.96L148.532 19.312C149.94 17.904 151.54 16.7093 153.332 15.728C155.167 14.7466 157.066 14.256 159.028 14.256C161.076 14.256 162.719 14.6826 163.956 15.536C165.194 16.3466 166.132 17.6266 166.772 19.376C168.436 17.7973 170.228 16.56 172.148 15.664C174.111 14.7253 176.01 14.256 177.844 14.256C180.874 14.256 183.092 14.9813 184.5 16.432C185.951 17.8826 186.676 20.1653 186.676 23.28V42.032C186.676 43.696 187.444 44.7413 188.98 45.168L189.684 45.36V46H174.9V45.36L175.54 45.168C176.351 44.912 176.906 44.528 177.204 44.016C177.546 43.504 177.716 42.8213 177.716 41.968V22.384C177.716 20.592 177.396 19.376 176.756 18.736C176.116 18.0533 175.092 17.712 173.684 17.712C172.575 17.712 171.487 17.968 170.42 18.48C169.396 18.9493 168.308 19.6746 167.156 20.656C167.37 21.3386 167.498 22.0853 167.54 22.896C167.626 23.7066 167.668 24.56 167.668 25.456V42.032C167.711 43.696 168.479 44.7413 169.972 45.168L170.548 45.36V46H155.7V45.36L156.596 45.104C157.407 44.848 157.962 44.4853 158.26 44.016C158.602 43.504 158.772 42.8213 158.772 41.968V22.448C158.772 20.7413 158.452 19.5253 157.812 18.8C157.215 18.0746 156.17 17.712 154.676 17.712C153.695 17.712 152.714 17.968 151.732 18.48C150.751 18.9493 149.727 19.6533 148.66 20.592V42.032C148.66 43.696 149.407 44.7413 150.9 45.168L151.476 45.36V46H136.436ZM201.155 46.96C198.681 46.96 196.59 46.256 194.883 44.848C193.219 43.44 192.387 41.4133 192.387 38.768C192.387 36.7626 193.411 34.928 195.459 33.264C197.507 31.5573 200.729 30.2773 205.123 29.424C205.806 29.296 206.574 29.168 207.427 29.04C208.281 28.8693 209.177 28.6986 210.115 28.528V23.472C210.115 20.5706 209.753 18.544 209.027 17.392C208.345 16.1973 207.257 15.6 205.763 15.6C204.739 15.6 203.929 15.9413 203.331 16.624C202.734 17.264 202.35 18.3946 202.179 20.016L202.051 20.72C201.966 22.5546 201.518 23.8986 200.707 24.752C199.897 25.6053 198.894 26.032 197.699 26.032C196.59 26.032 195.673 25.6906 194.947 25.008C194.222 24.3253 193.859 23.408 193.859 22.256C193.859 20.5066 194.457 19.0346 195.651 17.84C196.889 16.6453 198.51 15.7493 200.515 15.152C202.521 14.5546 204.697 14.256 207.043 14.256C210.841 14.256 213.763 15.1946 215.811 17.072C217.902 18.9066 218.947 21.9146 218.947 26.096V40.24C218.947 42.16 219.843 43.12 221.635 43.12H223.043L223.619 43.632C222.809 44.656 221.913 45.4453 220.931 46C219.993 46.5546 218.649 46.832 216.899 46.832C215.022 46.832 213.529 46.4053 212.419 45.552C211.353 44.656 210.649 43.4826 210.307 42.032C209.027 43.3973 207.705 44.5706 206.339 45.552C205.017 46.4906 203.289 46.96 201.155 46.96ZM205.059 43.056C205.913 43.056 206.702 42.864 207.427 42.48C208.195 42.0533 209.091 41.4133 210.115 40.56V29.808C209.689 29.8933 209.262 29.9786 208.835 30.064C208.409 30.1493 207.918 30.2346 207.363 30.32C205.401 30.832 203.822 31.7066 202.627 32.944C201.475 34.1386 200.899 35.76 200.899 37.808C200.899 39.5573 201.305 40.88 202.115 41.776C202.926 42.6293 203.907 43.056 205.059 43.056ZM237.096 46.96C234.366 46.96 232.232 46.2773 230.696 44.912C229.203 43.5466 228.456 41.3706 228.456 38.384V16.496H224.04V15.856L225.576 15.6C226.899 15.3013 228.03 14.8746 228.968 14.32C229.95 13.7653 230.91 13.0186 231.848 12.08L237.096 6.25595H237.736L237.544 15.216H244.712V16.496H237.48V39.536C237.48 41.0293 237.8 42.16 238.44 42.928C239.123 43.696 239.976 44.08 241 44.08C241.896 44.08 242.686 43.8666 243.368 43.44C244.051 42.9706 244.734 42.352 245.416 41.584L246.056 42.224C245.203 43.6746 244.03 44.8266 242.536 45.68C241.043 46.5333 239.23 46.96 237.096 46.96ZM255.741 10.928C254.291 10.928 253.053 10.48 252.029 9.58395C251.048 8.64529 250.557 7.47195 250.557 6.06395C250.557 4.61329 251.048 3.43995 252.029 2.54395C253.053 1.64795 254.291 1.19995 255.741 1.19995C257.192 1.19995 258.408 1.64795 259.389 2.54395C260.371 3.43995 260.861 4.61329 260.861 6.06395C260.861 7.47195 260.371 8.64529 259.389 9.58395C258.408 10.48 257.192 10.928 255.741 10.928ZM248.189 46V45.36L249.085 45.104C249.939 44.848 250.515 44.464 250.813 43.952C251.155 43.44 251.325 42.7573 251.325 41.904V21.872C251.325 20.976 251.155 20.3146 250.813 19.888C250.515 19.4186 249.939 19.0986 249.085 18.928L248.189 18.736V18.096L259.901 14.32L260.541 14.96L260.349 24.048V41.968C260.349 42.8213 260.499 43.504 260.797 44.016C261.139 44.528 261.715 44.912 262.525 45.168L263.165 45.36V46H248.189ZM282.191 46.96C278.948 46.96 276.132 46.2986 273.743 44.976C271.354 43.6106 269.498 41.6906 268.175 39.216C266.895 36.7413 266.255 33.84 266.255 30.512C266.255 27.184 266.938 24.304 268.303 21.872C269.711 19.44 271.61 17.5626 273.999 16.24C276.431 14.9173 279.162 14.256 282.191 14.256C285.22 14.256 287.93 14.9173 290.319 16.24C292.708 17.52 294.586 19.376 295.951 21.808C297.359 24.24 298.063 27.1413 298.063 30.512C298.063 33.8826 297.402 36.8053 296.079 39.28C294.799 41.712 292.964 43.6106 290.575 44.976C288.228 46.2986 285.434 46.96 282.191 46.96ZM282.191 45.68C283.684 45.68 284.879 45.2533 285.775 44.4C286.671 43.5466 287.311 42.032 287.695 39.856C288.122 37.68 288.335 34.608 288.335 30.64C288.335 26.6293 288.122 23.536 287.695 21.36C287.311 19.184 286.671 17.6693 285.775 16.816C284.879 15.9626 283.684 15.536 282.191 15.536C280.698 15.536 279.482 15.9626 278.543 16.816C277.647 17.6693 276.986 19.184 276.559 21.36C276.175 23.536 275.983 26.6293 275.983 30.64C275.983 34.608 276.175 37.68 276.559 39.856C276.986 42.032 277.647 43.5466 278.543 44.4C279.482 45.2533 280.698 45.68 282.191 45.68ZM300.874 46V45.36L301.77 45.104C303.263 44.6773 304.01 43.632 304.01 41.968V21.936C304.01 20.9973 303.861 20.3146 303.562 19.888C303.263 19.4186 302.687 19.0986 301.834 18.928L300.874 18.672V18.032L311.818 14.32L312.458 14.96L312.97 18.8C314.463 17.4773 316.149 16.3893 318.026 15.536C319.903 14.6826 321.759 14.256 323.594 14.256C326.41 14.256 328.565 15.024 330.058 16.56C331.594 18.096 332.362 20.4426 332.362 23.6V42.032C332.362 43.696 333.173 44.7413 334.794 45.168L335.37 45.36V46H320.266V45.36L321.098 45.104C322.591 44.6346 323.338 43.5893 323.338 41.968V21.552C323.338 18.8213 321.973 17.456 319.242 17.456C317.365 17.456 315.317 18.3946 313.098 20.272V42.032C313.098 43.696 313.845 44.7413 315.338 45.168L315.914 45.36V46H300.874Z" stroke="#EB9622" stroke-width="2" mask="url(#path-1-outside-1_1920_1380)"/>
</g>
</svg>
