<svg width="1921" height="1054" viewBox="0 0 1921 1054" fill="none" xmlns="http://www.w3.org/2000/svg">
<g clip-path="url(#clip0_1904_3564)">
<path d="M1120.5 1067.5C1144.05 1084.95 1342.92 1115.33 1370 1122C1427.31 1136.12 1486.19 1053.38 1543.5 1067.5C1606.11 1082.99 1620.32 1076.19 1684.5 1086C1688.62 1085.8 1692.55 1085.61 1696.67 1085.41C1756.92 1082.86 1816.59 1080.31 1876.64 1074.23C1922.96 1069.72 1969.67 1064.23 2016.19 1060.31C2019.72 1026.19 2019.14 898.065 2020.91 863.746C2026.21 758.829 2022.67 653.323 2037 549.19C2036.21 549.19 2035.43 548.994 2034.64 548.994C2005.6 546.837 2015.61 555.073 1996.96 569.389C1984.79 578.802 1975.77 579.979 1961.63 587.039C1945.15 595.471 1937.3 605.473 1919.05 609.395C1901.19 613.317 1880.38 609.003 1861.93 609.983C1833.47 611.552 1802.27 612.533 1772.44 606.453C1741.03 600.178 1706.88 579.391 1677.25 566.84C1653.11 556.642 1630.15 539.385 1610.32 522.323C1604.63 514.087 1592.27 523.108 1584.02 528.403C1574.41 534.482 1571.07 545.66 1564 554.093C1555.57 563.898 1536.53 583.705 1521.42 583.705C1507.87 607.238 1461.56 668.619 1434.86 655.872C1424.46 667.051 1412.49 677.444 1410.53 692.741C1373.63 671.169 1369.31 709.802 1333.79 719.019C1288.65 730.589 1234.48 742.748 1220.54 799.815L1197.38 791.186C1120.5 762 1101.66 1053.58 1120.5 1067.5Z" fill="url(#paint0_linear_1904_3564)"/>
<path d="M629.024 699.15C599.223 668.528 599.434 679.336 567.518 678.049C550.609 677.277 534.757 667.756 520.596 666.726C500.94 665.182 497.769 672.645 479.381 659.007C455.92 641.765 450.213 608.055 430.345 587.212C414.916 571 393.991 555.818 376.87 539.349C354.889 549.642 309.446 603.681 293.805 569.713C277.531 581.55 258.931 579.492 255.76 605.739C242.233 597.248 233.145 576.919 218.984 568.169C211.797 563.795 204.822 567.655 197.847 564.567C178.825 556.332 163.396 542.694 144.796 533.173C106.539 513.101 66.5921 518.248 24.9539 511.3C8.67912 508.212 -5.48209 499.205 -20.2774 492C-20.4887 495.088 -20.7001 497.919 -21.1228 501.007C-18.1638 507.697 -15.6274 514.645 -13.5138 522.107C-3.15711 556.59 -3.36848 596.476 -6.5389 632.759C-10.132 675.733 -16.6842 718.45 -24.2932 760.909C-26.1955 771.202 -28.0977 781.495 -30 791.788C-29.7886 823.182 -29.3659 854.834 -28.7318 886.228C-28.0977 912.733 -21.1228 1051.74 -20.2774 1078.5C166.566 1058.69 632.311 1082.36 820 1078.5C855.086 1077.73 734.155 948.155 735 872.5C735.423 839.305 646.99 717.678 629.024 699.15Z" fill="url(#paint1_linear_1904_3564)"/>
</g>
<defs>
<linearGradient id="paint0_linear_1904_3564" x1="1611" y1="519" x2="1611" y2="992" gradientUnits="userSpaceOnUse">
<stop stop-color="#1B0422"/>
<stop offset="1" stop-color="#1B0422" stop-opacity="0.5"/>
</linearGradient>
<linearGradient id="paint1_linear_1904_3564" x1="349.5" y1="492" x2="349.5" y2="966" gradientUnits="userSpaceOnUse">
<stop stop-color="#1B0422"/>
<stop offset="1" stop-color="#1B0422" stop-opacity="0.5"/>
</linearGradient>
<clipPath id="clip0_1904_3564">
<rect width="1921" height="1054" fill="white"/>
</clipPath>
</defs>
</svg>
