<svg width="713" height="713" viewBox="0 0 713 713" fill="none" xmlns="http://www.w3.org/2000/svg">
<path d="M712.5 356.5C712.5 553.113 553.113 712.5 356.5 712.5C159.887 712.5 0.5 553.113 0.5 356.5C0.5 159.887 159.887 0.5 356.5 0.5C553.113 0.5 712.5 159.887 712.5 356.5Z" stroke="#6814EC" stroke-opacity="0.8"/>
<path d="M356.5 665.16C526.968 665.16 665.16 526.968 665.16 356.5C665.16 186.032 526.968 47.84 356.5 47.84C186.032 47.84 47.8401 186.032 47.8401 356.5C47.8401 526.968 186.032 665.16 356.5 665.16Z" stroke="#6814EC" stroke-width="6"/>
<path d="M356.5 624.34C504.424 624.34 624.34 504.424 624.34 356.5C624.34 208.576 504.424 88.66 356.5 88.66C208.576 88.66 88.6599 208.576 88.6599 356.5C88.6599 504.424 208.576 624.34 356.5 624.34Z" stroke="#6814EC" stroke-width="6"/>
<path d="M356.5 586.52C483.537 586.52 586.52 483.537 586.52 356.5C586.52 229.463 483.537 126.48 356.5 126.48C229.463 126.48 126.48 229.463 126.48 356.5C126.48 483.537 229.463 586.52 356.5 586.52Z" stroke="#6814EC" stroke-width="5"/>
<path d="M356.5 548.7C462.649 548.7 548.7 462.649 548.7 356.5C548.7 250.351 462.649 164.3 356.5 164.3C250.351 164.3 164.3 250.351 164.3 356.5C164.3 462.649 250.351 548.7 356.5 548.7Z" stroke="#6814EC" stroke-width="4"/>
<path d="M356.5 510.88C441.762 510.88 510.88 441.762 510.88 356.5C510.88 271.238 441.762 202.12 356.5 202.12C271.238 202.12 202.12 271.238 202.12 356.5C202.12 441.762 271.238 510.88 356.5 510.88Z" stroke="#6814EC" stroke-width="3"/>
<path d="M356.5 473.06C420.874 473.06 473.06 420.874 473.06 356.5C473.06 292.126 420.874 239.94 356.5 239.94C292.126 239.94 239.94 292.126 239.94 356.5C239.94 420.874 292.126 473.06 356.5 473.06Z" stroke="#6814EC" stroke-width="2"/>
<path d="M356.5 435.24C399.987 435.24 435.24 399.987 435.24 356.5C435.24 313.013 399.987 277.76 356.5 277.76C313.013 277.76 277.76 313.013 277.76 356.5C277.76 399.987 313.013 435.24 356.5 435.24Z" stroke="#6814EC"/>
</svg>
