<svg width="330" height="83" viewBox="0 0 330 83" fill="none" xmlns="http://www.w3.org/2000/svg">
<g opacity="0.8">
<mask id="path-1-outside-1_1920_1378" maskUnits="userSpaceOnUse" x="0.643555" y="0.0639954" width="329" height="82" fill="black">
<rect fill="white" x="0.643555" y="0.0639954" width="329" height="82"/>
<path d="M2.64355 78V76.88L4.65955 76.208C6.15289 75.6853 7.16089 74.976 7.68355 74.08C8.20622 73.184 8.46755 71.9893 8.46755 70.496C8.54222 66.016 8.57956 61.4987 8.57956 56.944C8.57956 52.3893 8.57956 47.8347 8.57956 43.28V38.8C8.57956 34.32 8.57956 29.84 8.57956 25.36C8.57956 20.8053 8.54222 16.288 8.46755 11.808C8.46755 10.3147 8.24355 9.12 7.79556 8.224C7.42222 7.32799 6.52622 6.61866 5.10755 6.096L2.64355 5.2V4.08H56.8516L57.6356 22.672H56.5156L50.1316 10.912C49.3849 9.49333 48.5262 8.37333 47.5556 7.552C46.5849 6.73066 45.2409 6.31999 43.5236 6.31999H25.4916C25.4169 11.6213 25.3796 17.0347 25.3796 22.56C25.3796 28.0853 25.3796 33.5733 25.3796 39.024H37.0276C38.7449 39.024 40.0142 38.6507 40.8356 37.904C41.6569 37.1573 42.4409 36.0747 43.1876 34.656L45.5396 30.4H46.6596V50H45.5396L43.0756 45.744C42.3289 44.4 41.5449 43.3173 40.7236 42.496C39.9769 41.6747 38.7449 41.264 37.0276 41.264H25.3796C25.3796 46.4907 25.3796 51.4933 25.3796 56.272C25.3796 60.976 25.4169 65.6053 25.4916 70.16C25.4916 73.072 26.9102 74.976 29.7476 75.872L33.1076 76.88V78H2.64355ZM96.8714 80.016C92.3168 80.016 87.9114 79.1947 83.6554 77.552C79.4741 75.9093 75.7034 73.4827 72.3434 70.272C69.0581 66.9867 66.4448 62.9173 64.5034 58.064C62.5621 53.2107 61.5914 47.536 61.5914 41.04C61.5914 34.6187 62.5621 28.9813 64.5034 24.128C66.4448 19.2747 69.0954 15.2427 72.4554 12.032C75.8154 8.74666 79.5861 6.28266 83.7674 4.64C88.0234 2.92266 92.3914 2.064 96.8714 2.064C101.426 2.064 105.794 2.88533 109.975 4.528C114.231 6.09599 118.002 8.52266 121.287 11.808C124.647 15.0187 127.298 19.088 129.239 24.016C131.181 28.8693 132.151 34.544 132.151 41.04C132.151 47.3867 131.181 53.024 129.239 57.952C127.298 62.8053 124.647 66.8747 121.287 70.16C118.002 73.3707 114.231 75.8347 109.975 77.552C105.794 79.1947 101.426 80.016 96.8714 80.016ZM96.8714 77.664C100.978 77.664 104.301 76.5813 106.839 74.416C109.378 72.176 111.207 68.4053 112.327 63.104C113.522 57.728 114.119 50.3733 114.119 41.04C114.119 31.632 113.522 24.2773 112.327 18.976C111.207 13.6 109.378 9.82933 106.839 7.664C104.301 5.42399 100.978 4.30399 96.8714 4.30399C92.8394 4.30399 89.5541 5.42399 87.0154 7.664C84.4768 9.82933 82.6101 13.6 81.4154 18.976C80.2954 24.2773 79.7354 31.632 79.7354 41.04C79.7354 50.3733 80.2954 57.728 81.4154 63.104C82.6101 68.4053 84.4768 72.176 87.0154 74.416C89.5541 76.5813 92.8394 77.664 96.8714 77.664ZM177.125 80.016C169.882 80.016 163.311 78.56 157.413 75.648C151.589 72.6613 146.959 68.256 143.525 62.432C140.09 56.608 138.373 49.4773 138.373 41.04C138.373 34.6187 139.418 28.9813 141.509 24.128C143.599 19.2747 146.437 15.2053 150.021 11.92C153.679 8.63466 157.861 6.17066 162.565 4.528C167.343 2.88533 172.383 2.064 177.685 2.064C181.941 2.064 185.861 2.54933 189.445 3.52C193.029 4.49066 196.389 5.83466 199.525 7.552L199.973 21.328H198.853L193.253 12.368C192.506 10.9493 191.685 9.68 190.789 8.56C189.893 7.36533 188.773 6.46933 187.429 5.87199C186.309 5.34933 185.189 4.976 184.069 4.75199C183.023 4.45333 181.679 4.30399 180.037 4.30399C175.706 4.30399 171.749 5.46133 168.165 7.776C164.655 10.0907 161.818 13.936 159.653 19.312C157.562 24.6133 156.517 31.8933 156.517 41.152C156.517 50.336 157.525 57.616 159.541 62.992C161.557 68.2933 164.282 72.1013 167.717 74.416C171.226 76.656 175.146 77.776 179.477 77.776C181.866 77.776 183.77 77.6267 185.189 77.328C186.607 76.9547 188.026 76.432 189.445 75.76C190.863 75.1627 191.946 74.304 192.693 73.184C193.439 71.9893 194.111 70.72 194.709 69.376L199.637 58.4H200.757L200.421 74.416C197.285 76.0587 193.775 77.4027 189.893 78.448C186.01 79.4933 181.754 80.016 177.125 80.016ZM239.835 80.016C234.16 80.016 229.12 79.008 224.715 76.992C220.384 74.976 216.987 71.8027 214.523 67.472C212.134 63.0667 210.939 57.28 210.939 50.112V11.472C210.939 8.63466 209.483 6.76799 206.571 5.87199L204.107 5.2V4.08H235.131V5.2L231.883 6.096C229.12 6.768 227.739 8.63466 227.739 11.696V53.024C227.739 59.968 229.195 65.12 232.107 68.48C235.019 71.7653 239.2 73.408 244.651 73.408C250.326 73.408 254.806 71.6533 258.091 68.144C261.451 64.6347 263.131 59.6693 263.131 53.248V12.144C263.131 10.6507 262.87 9.344 262.347 8.224C261.899 7.02933 260.928 6.24533 259.435 5.87199L256.635 5.2V4.08H272.315V5.2L269.291 5.984C267.872 6.28266 266.939 6.99199 266.491 8.112C266.043 9.232 265.819 10.5387 265.819 12.032V53.024C265.819 58.4747 264.736 63.2533 262.571 67.36C260.406 71.392 257.382 74.528 253.499 76.768C249.616 78.9333 245.062 80.016 239.835 80.016ZM298.958 80.016C294.851 80.016 290.67 79.4933 286.414 78.448C282.158 77.4773 278.611 76.1707 275.774 74.528L276.334 59.296H277.454L280.926 66.576C281.971 68.6667 283.091 70.5333 284.286 72.176C285.481 73.744 287.123 74.976 289.214 75.872C290.707 76.6187 292.126 77.1413 293.47 77.44C294.889 77.664 296.457 77.776 298.174 77.776C302.729 77.776 306.313 76.544 308.926 74.08C311.614 71.616 312.958 68.4427 312.958 64.56C312.958 60.9013 312.062 58.064 310.27 56.048C308.478 53.9573 305.603 51.9413 301.646 50L297.054 47.984C290.633 45.1467 285.593 41.8987 281.934 38.24C278.35 34.5067 276.558 29.5787 276.558 23.456C276.558 19.0507 277.678 15.2427 279.918 12.032C282.233 8.82133 285.406 6.35733 289.438 4.64C293.545 2.92266 298.323 2.064 303.774 2.064C307.731 2.064 311.465 2.58666 314.974 3.632C318.558 4.67733 321.657 6.09599 324.27 7.88799L323.598 21.328H322.478L317.886 12.928C316.617 10.3147 315.347 8.48533 314.078 7.43999C312.809 6.31999 311.353 5.536 309.71 5.088C308.739 4.78933 307.843 4.60266 307.022 4.528C306.201 4.37866 305.155 4.30399 303.886 4.30399C300.078 4.30399 296.867 5.42399 294.254 7.664C291.641 9.82933 290.334 12.7787 290.334 16.512C290.334 20.32 291.342 23.3813 293.358 25.696C295.374 27.936 298.323 29.952 302.206 31.744L307.358 33.984C314.526 37.12 319.678 40.48 322.814 44.064C325.95 47.5733 327.518 52.128 327.518 57.728C327.518 64.2987 325.017 69.6747 320.014 73.856C315.086 77.9627 308.067 80.016 298.958 80.016Z"/>
</mask>
<path d="M2.64355 78V76.88L4.65955 76.208C6.15289 75.6853 7.16089 74.976 7.68355 74.08C8.20622 73.184 8.46755 71.9893 8.46755 70.496C8.54222 66.016 8.57956 61.4987 8.57956 56.944C8.57956 52.3893 8.57956 47.8347 8.57956 43.28V38.8C8.57956 34.32 8.57956 29.84 8.57956 25.36C8.57956 20.8053 8.54222 16.288 8.46755 11.808C8.46755 10.3147 8.24355 9.12 7.79556 8.224C7.42222 7.32799 6.52622 6.61866 5.10755 6.096L2.64355 5.2V4.08H56.8516L57.6356 22.672H56.5156L50.1316 10.912C49.3849 9.49333 48.5262 8.37333 47.5556 7.552C46.5849 6.73066 45.2409 6.31999 43.5236 6.31999H25.4916C25.4169 11.6213 25.3796 17.0347 25.3796 22.56C25.3796 28.0853 25.3796 33.5733 25.3796 39.024H37.0276C38.7449 39.024 40.0142 38.6507 40.8356 37.904C41.6569 37.1573 42.4409 36.0747 43.1876 34.656L45.5396 30.4H46.6596V50H45.5396L43.0756 45.744C42.3289 44.4 41.5449 43.3173 40.7236 42.496C39.9769 41.6747 38.7449 41.264 37.0276 41.264H25.3796C25.3796 46.4907 25.3796 51.4933 25.3796 56.272C25.3796 60.976 25.4169 65.6053 25.4916 70.16C25.4916 73.072 26.9102 74.976 29.7476 75.872L33.1076 76.88V78H2.64355ZM96.8714 80.016C92.3168 80.016 87.9114 79.1947 83.6554 77.552C79.4741 75.9093 75.7034 73.4827 72.3434 70.272C69.0581 66.9867 66.4448 62.9173 64.5034 58.064C62.5621 53.2107 61.5914 47.536 61.5914 41.04C61.5914 34.6187 62.5621 28.9813 64.5034 24.128C66.4448 19.2747 69.0954 15.2427 72.4554 12.032C75.8154 8.74666 79.5861 6.28266 83.7674 4.64C88.0234 2.92266 92.3914 2.064 96.8714 2.064C101.426 2.064 105.794 2.88533 109.975 4.528C114.231 6.09599 118.002 8.52266 121.287 11.808C124.647 15.0187 127.298 19.088 129.239 24.016C131.181 28.8693 132.151 34.544 132.151 41.04C132.151 47.3867 131.181 53.024 129.239 57.952C127.298 62.8053 124.647 66.8747 121.287 70.16C118.002 73.3707 114.231 75.8347 109.975 77.552C105.794 79.1947 101.426 80.016 96.8714 80.016ZM96.8714 77.664C100.978 77.664 104.301 76.5813 106.839 74.416C109.378 72.176 111.207 68.4053 112.327 63.104C113.522 57.728 114.119 50.3733 114.119 41.04C114.119 31.632 113.522 24.2773 112.327 18.976C111.207 13.6 109.378 9.82933 106.839 7.664C104.301 5.42399 100.978 4.30399 96.8714 4.30399C92.8394 4.30399 89.5541 5.42399 87.0154 7.664C84.4768 9.82933 82.6101 13.6 81.4154 18.976C80.2954 24.2773 79.7354 31.632 79.7354 41.04C79.7354 50.3733 80.2954 57.728 81.4154 63.104C82.6101 68.4053 84.4768 72.176 87.0154 74.416C89.5541 76.5813 92.8394 77.664 96.8714 77.664ZM177.125 80.016C169.882 80.016 163.311 78.56 157.413 75.648C151.589 72.6613 146.959 68.256 143.525 62.432C140.09 56.608 138.373 49.4773 138.373 41.04C138.373 34.6187 139.418 28.9813 141.509 24.128C143.599 19.2747 146.437 15.2053 150.021 11.92C153.679 8.63466 157.861 6.17066 162.565 4.528C167.343 2.88533 172.383 2.064 177.685 2.064C181.941 2.064 185.861 2.54933 189.445 3.52C193.029 4.49066 196.389 5.83466 199.525 7.552L199.973 21.328H198.853L193.253 12.368C192.506 10.9493 191.685 9.68 190.789 8.56C189.893 7.36533 188.773 6.46933 187.429 5.87199C186.309 5.34933 185.189 4.976 184.069 4.75199C183.023 4.45333 181.679 4.30399 180.037 4.30399C175.706 4.30399 171.749 5.46133 168.165 7.776C164.655 10.0907 161.818 13.936 159.653 19.312C157.562 24.6133 156.517 31.8933 156.517 41.152C156.517 50.336 157.525 57.616 159.541 62.992C161.557 68.2933 164.282 72.1013 167.717 74.416C171.226 76.656 175.146 77.776 179.477 77.776C181.866 77.776 183.77 77.6267 185.189 77.328C186.607 76.9547 188.026 76.432 189.445 75.76C190.863 75.1627 191.946 74.304 192.693 73.184C193.439 71.9893 194.111 70.72 194.709 69.376L199.637 58.4H200.757L200.421 74.416C197.285 76.0587 193.775 77.4027 189.893 78.448C186.01 79.4933 181.754 80.016 177.125 80.016ZM239.835 80.016C234.16 80.016 229.12 79.008 224.715 76.992C220.384 74.976 216.987 71.8027 214.523 67.472C212.134 63.0667 210.939 57.28 210.939 50.112V11.472C210.939 8.63466 209.483 6.76799 206.571 5.87199L204.107 5.2V4.08H235.131V5.2L231.883 6.096C229.12 6.768 227.739 8.63466 227.739 11.696V53.024C227.739 59.968 229.195 65.12 232.107 68.48C235.019 71.7653 239.2 73.408 244.651 73.408C250.326 73.408 254.806 71.6533 258.091 68.144C261.451 64.6347 263.131 59.6693 263.131 53.248V12.144C263.131 10.6507 262.87 9.344 262.347 8.224C261.899 7.02933 260.928 6.24533 259.435 5.87199L256.635 5.2V4.08H272.315V5.2L269.291 5.984C267.872 6.28266 266.939 6.99199 266.491 8.112C266.043 9.232 265.819 10.5387 265.819 12.032V53.024C265.819 58.4747 264.736 63.2533 262.571 67.36C260.406 71.392 257.382 74.528 253.499 76.768C249.616 78.9333 245.062 80.016 239.835 80.016ZM298.958 80.016C294.851 80.016 290.67 79.4933 286.414 78.448C282.158 77.4773 278.611 76.1707 275.774 74.528L276.334 59.296H277.454L280.926 66.576C281.971 68.6667 283.091 70.5333 284.286 72.176C285.481 73.744 287.123 74.976 289.214 75.872C290.707 76.6187 292.126 77.1413 293.47 77.44C294.889 77.664 296.457 77.776 298.174 77.776C302.729 77.776 306.313 76.544 308.926 74.08C311.614 71.616 312.958 68.4427 312.958 64.56C312.958 60.9013 312.062 58.064 310.27 56.048C308.478 53.9573 305.603 51.9413 301.646 50L297.054 47.984C290.633 45.1467 285.593 41.8987 281.934 38.24C278.35 34.5067 276.558 29.5787 276.558 23.456C276.558 19.0507 277.678 15.2427 279.918 12.032C282.233 8.82133 285.406 6.35733 289.438 4.64C293.545 2.92266 298.323 2.064 303.774 2.064C307.731 2.064 311.465 2.58666 314.974 3.632C318.558 4.67733 321.657 6.09599 324.27 7.88799L323.598 21.328H322.478L317.886 12.928C316.617 10.3147 315.347 8.48533 314.078 7.43999C312.809 6.31999 311.353 5.536 309.71 5.088C308.739 4.78933 307.843 4.60266 307.022 4.528C306.201 4.37866 305.155 4.30399 303.886 4.30399C300.078 4.30399 296.867 5.42399 294.254 7.664C291.641 9.82933 290.334 12.7787 290.334 16.512C290.334 20.32 291.342 23.3813 293.358 25.696C295.374 27.936 298.323 29.952 302.206 31.744L307.358 33.984C314.526 37.12 319.678 40.48 322.814 44.064C325.95 47.5733 327.518 52.128 327.518 57.728C327.518 64.2987 325.017 69.6747 320.014 73.856C315.086 77.9627 308.067 80.016 298.958 80.016Z" stroke="url(#paint0_linear_1920_1378)" stroke-width="4" mask="url(#path-1-outside-1_1920_1378)"/>
</g>
<defs>
<linearGradient id="paint0_linear_1920_1378" x1="165.5" y1="-23" x2="165.5" y2="100" gradientUnits="userSpaceOnUse">
<stop stop-color="#C9037D"/>
<stop offset="0.28125" stop-color="#6814EC"/>
<stop offset="0.755208" stop-color="#0C041A"/>
</linearGradient>
</defs>
</svg>
