<svg width="120" height="45" viewBox="0 0 120 45" fill="none" xmlns="http://www.w3.org/2000/svg">
<path fill-rule="evenodd" clip-rule="evenodd" d="M22.4852 19.4572C22.4833 19.4551 22.4818 19.4516 22.4807 19.4468L22.5356 19.2175L22.4852 19.4572ZM22.5108 19.1764C22.4849 19.3178 22.4733 19.4136 22.4807 19.4468L22.4348 19.6391L6.17662 15.8473C4.63035 15.4906 3.65797 14.8984 3.25948 14.0707C2.861 13.243 2.90007 11.8305 3.37668 9.83305C3.93847 7.47507 4.6952 6.02585 5.64687 5.48538C6.34305 5.06845 7.51506 5.053 9.16291 5.43905L8.49955 8.21281C7.75024 8.0414 7.14119 8.11012 6.67238 8.41896C6.18483 8.74401 5.8383 9.33505 5.63281 10.1921C5.45622 10.9294 5.49803 11.5471 5.75821 12.0451C5.99262 12.5354 6.48369 12.8682 7.23143 13.0434L20.2115 16.0697L23.3384 3L26.2532 3.67983L23.5008 15.202C23.1631 16.801 24.7952 17.0424 24.7952 17.0424C27.0349 17.6689 28.3487 17.3736 29.0871 17.135C29.4694 17.0115 29.6701 16.5225 29.7748 16.0797L29.7695 16.0649L29.8492 15.6777C29.8804 15.4531 29.8864 15.2947 29.8864 15.2947C29.8864 15.2947 29.8865 15.2948 29.8867 15.2951V14.0578C29.8867 12.3561 30.3501 11.125 31.2767 10.3645C32.1221 9.68042 33.4754 9.33838 35.3366 9.33838C37.1845 9.33838 38.5381 9.67308 39.3976 10.3425C40.3352 11.0868 40.804 12.3252 40.804 14.0578V15.4742L40.9212 16.0672C41.0572 16.7497 41.4478 17.1744 42.0932 17.3412C42.2769 17.4022 42.9156 17.4327 44.0095 17.4327H45.2319C46.339 17.4334 47.0544 17.3728 47.3778 17.2508C47.9162 17.0385 48.1854 16.5293 48.1854 15.7232V9.38818H51.099V15.7209C51.0982 16.5262 51.3674 17.0354 51.9065 17.2485C52.1749 17.3597 52.8171 17.4176 53.8016 17.4269C54.5412 17.4188 55.0404 17.391 55.2749 17.3388C55.5781 17.2693 55.8526 17.1101 56.062 16.8826C56.2714 16.655 56.4056 16.3698 56.4469 16.0649L56.5641 15.4951V14.0578C56.5641 12.3561 57.0258 11.125 57.9494 10.3645C58.7948 9.68042 60.1481 9.33838 62.0092 9.33838C63.8579 9.33838 65.212 9.67308 66.0714 10.3425C67.009 11.0868 67.4778 12.3252 67.4778 14.0578V15.48L67.595 16.073C67.731 16.7555 68.1217 17.1802 68.7671 17.347C68.9288 17.4002 69.4574 17.4292 70.3129 17.4361C70.7606 17.3898 71.0619 17.3226 71.213 17.2335C71.7662 16.9455 72.0428 16.3069 72.0428 15.3179V12.0751H74.7654V15.3179C74.7662 16.2645 75.0279 16.8822 75.5507 17.1709C75.7968 17.323 76.2964 17.4141 77.0497 17.4442V12.6958C77.0497 10.534 78.1498 9.45304 80.35 9.45304C80.7749 9.45045 81.1993 9.48104 81.6193 9.54453L90.0637 10.7293C91.3716 10.9123 92.2792 11.3454 92.7863 12.0287C93.2941 12.7429 93.5481 13.9212 93.5481 15.5634C93.5481 15.7452 93.5328 16.0348 93.5024 16.4297C93.7024 16.9439 94.1098 17.2782 94.7248 17.4327H97.7931C98.9003 17.4334 99.6156 17.3728 99.9391 17.2508C100.477 17.0385 100.747 16.5293 100.747 15.7232V9.38818H103.654V15.7232C103.654 16.5285 103.923 17.0377 104.462 17.2508C104.733 17.3632 105.38 17.4211 106.373 17.4292C107.343 17.4211 107.993 17.3666 108.291 17.2508C108.814 17.0539 109.076 16.5447 109.076 15.7232V9.38818H111.796V15.7209C111.796 17.2551 111.257 18.4329 110.181 19.2544C109.296 19.9041 108.176 20.2585 106.835 20.3535L106.61 20.3662H106.148L105.914 20.3442C104.351 20.2354 103.099 19.7802 102.2 18.9313C101.168 19.9049 99.6996 20.3917 97.7931 20.3917H95.5346V20.3767C94.1095 20.3083 93.1144 19.9203 92.5577 19.2058L92.5355 19.2278C91.8737 20.0037 90.7196 20.3917 89.0733 20.3917H76.7356C76.0607 20.3822 75.3943 20.2425 74.7736 19.9806C74.097 19.7381 73.6356 19.366 73.3895 18.8641C73.1543 19.3382 72.6941 19.7111 72.0088 19.9829C71.6033 20.2052 71.1556 20.342 70.6938 20.3848H70.3422L69.7773 20.3651C68.1517 20.2782 67.0712 19.815 66.5473 18.9695C66.4464 19.1004 66.3281 19.2173 66.1957 19.317C65.5643 19.9702 64.5185 20.3276 63.0582 20.3894C62.8578 20.4033 62.5273 20.4114 62.0655 20.4114C61.6342 20.4114 61.3119 20.4033 61.0962 20.3894C59.789 20.3284 58.7967 20.047 58.1193 19.5451L57.8427 19.3401L57.4911 18.9985C56.977 19.8277 55.9077 20.2852 54.2833 20.3709L54.0571 20.3778H53.9399C53.8962 20.3791 53.855 20.3769 53.8129 20.3746H53.8129H53.8128H53.8128C53.7782 20.3728 53.7431 20.3709 53.7055 20.3709L53.3539 20.3384C51.7893 20.2296 50.5376 19.7744 49.6386 18.9255C48.6073 19.8991 47.1384 20.3859 45.2319 20.3859H43.6626L43.0859 20.3674C41.4603 20.2863 40.3798 19.8231 39.8559 18.9776C39.7562 19.1076 39.64 19.2244 39.5101 19.3251C38.8796 19.979 37.8334 20.3365 36.3715 20.3975C36.1722 20.4114 35.8406 20.4195 35.38 20.4195C34.9487 20.4195 34.6263 20.4114 34.4107 20.3975C33.1027 20.3357 32.1104 20.0543 31.4338 19.5532L31.1572 19.3482L30.8383 19.0331C29.9814 20.0449 28.6107 20.6204 26.3669 20.4207C23.9712 20.2074 22.5538 19.2071 22.5108 19.1764ZM22.8914 17.5379L22.5153 19.152C22.5817 18.7968 22.73 18.1789 22.8914 17.5379ZM23.3765 15.6709L22.9103 17.4632C23.0807 16.7885 23.2627 16.0986 23.3765 15.6709ZM17.3882 8.73407H17.4105L17.1421 9.86674L13.0986 8.92517L13.3729 7.7925L15.2364 8.22681L14.7828 7.83999C14.4733 7.59688 14.222 7.2892 14.0468 6.93895C13.9425 6.7108 13.9343 6.41315 14.0234 6.0437C14.1937 5.33646 14.4468 4.87321 14.7828 4.65393C15.1211 4.42076 15.5509 4.36555 16.072 4.48832L18.2989 5.00601L18.0328 6.11551L16.4822 5.75417C16.1388 5.67426 15.8939 5.67194 15.7497 5.74722C15.5955 5.80847 15.4704 5.92519 15.3997 6.07389C15.3291 6.2226 15.318 6.39223 15.3688 6.54866C15.418 6.68893 15.5037 6.81394 15.6173 6.91116L16.9792 8.26387C17.127 8.41048 17.2637 8.56764 17.3882 8.73407ZM52.8697 22.9062H50.2163V25.3465H52.8697V22.9062ZM117.545 35.2402C117.687 35.2786 117.841 35.3015 117.996 35.3245C118.552 35.4072 119.12 35.4916 119.163 36.2988C119.218 37.3307 118.577 38.0499 117.831 38.6081C116.944 39.2687 115.998 39.1348 115.056 39.0014L115.056 39.0014L115.056 39.0014C114.904 38.98 114.753 38.9586 114.602 38.9405C84.8692 35.4186 54.9993 34.6635 24.936 38.1541C17.0425 39.0702 9.15719 40.1484 1.46527 42.7126C1.37401 42.7431 1.27976 42.7836 1.18448 42.8245C0.817267 42.9821 0.434789 43.1464 0.149103 42.7739C-0.182577 42.3419 0.110426 41.7779 0.338969 41.3436C2.14738 37.9109 4.13629 34.8812 8.17621 33.9651C19.7979 31.3303 31.4992 30.786 43.21 30.5891C67.9324 30.1722 92.4263 32.2649 116.842 35.1418C116.952 35.1548 117.062 35.1717 117.172 35.1885L117.172 35.1886C117.296 35.2077 117.42 35.2267 117.545 35.2402ZM46.4775 22.9062H49.131V25.3465H46.4775V22.9062ZM110.137 22.9062H107.483V25.3465H110.137V22.9062ZM37.7498 15.5634C37.7498 17.174 36.9422 17.9797 35.3272 17.9805C34.481 17.9805 33.8657 17.7979 33.4813 17.4327C33.0969 17.0675 32.9047 16.4444 32.9047 15.5634V14.1041C32.9047 13.2379 33.143 12.6221 33.6196 12.2569C34.004 11.9681 34.59 11.8238 35.3776 11.8238C36.959 11.8238 37.7498 12.5839 37.7498 14.1041V15.5634ZM64.4236 15.5634C64.4236 17.174 63.6157 17.9797 61.9999 17.9805C61.1548 17.9805 60.5384 17.7975 60.1551 17.4327C59.7719 17.0678 59.5773 16.4448 59.5773 15.5634V14.1041C59.5773 13.2379 59.816 12.6221 60.2934 12.2569C60.6778 11.9681 61.2638 11.8238 62.0514 11.8238C63.636 11.8238 64.4283 12.5839 64.4283 14.1041L64.4236 15.5634ZM91.1197 15.5402C91.1197 16.8026 90.3887 17.4334 88.9268 17.4327H79.6574L79.75 14.081C79.7648 13.3977 79.9109 12.973 80.1883 12.807C80.4649 12.624 81.0032 12.5325 81.8033 12.5325L89.187 13.627C90.4786 13.81 91.1247 14.3346 91.1255 15.2009L91.1197 15.5402Z" fill="white"/>
</svg>
