<svg width="89" height="50" viewBox="0 0 89 50" fill="none" xmlns="http://www.w3.org/2000/svg">
<path d="M43.5399 39.8492H35.2429C34.9184 39.8469 34.5967 39.9091 34.2965 40.0322C33.9962 40.1553 33.7235 40.3368 33.494 40.5663C33.2646 40.7957 33.083 41.0685 32.9599 41.3687C32.8368 41.669 32.7746 41.9907 32.7769 42.3152V47.534C32.7769 48.1881 33.0367 48.8153 33.4992 49.2778C33.9617 49.7402 34.5889 50 35.2429 50H43.5399C44.1909 49.9954 44.8136 49.7336 45.2723 49.2716C45.731 48.8096 45.9884 48.185 45.9884 47.534V42.3152C45.9907 41.9922 45.9291 41.6719 45.8071 41.3728C45.6851 41.0737 45.5051 40.8017 45.2775 40.5725C45.0499 40.3433 44.7792 40.1614 44.481 40.0372C44.1828 39.9131 43.8629 39.8492 43.5399 39.8492V39.8492ZM43.379 46.4952C43.3781 46.7862 43.2621 47.065 43.0563 47.2708C42.8505 47.4766 42.5717 47.5926 42.2807 47.5935H36.6491C36.3575 47.5935 36.0777 47.4779 35.8712 47.272C35.6647 47.0661 35.5482 46.7868 35.5472 46.4952V43.3191C35.5472 43.0269 35.6633 42.7466 35.87 42.54C36.0766 42.3333 36.3569 42.2173 36.6491 42.2173H42.2807C42.5723 42.2182 42.8516 42.3347 43.0575 42.5412C43.2634 42.7477 43.379 43.0275 43.379 43.3191V46.4952Z" fill="white"/>
<path d="M42.98 17.9805L39.4157 23.0595H28.0931C28.0931 23.0595 26.5785 22.937 26.5785 24.3257C26.5785 25.7143 28.0931 25.6199 28.0931 25.6199H39.6361C39.6361 25.6199 46.2016 25.6444 46.2016 31.3389C46.2016 37.0335 39.7585 37.1314 39.7585 37.1314H20.3977L24.1055 32.3463H39.4962C39.4962 32.3463 40.605 32.4618 40.605 30.9157C40.6209 30.7215 40.5943 30.5262 40.5271 30.3433C40.46 30.1604 40.3538 29.9943 40.216 29.8565C40.0783 29.7188 39.9122 29.6126 39.7293 29.5454C39.5464 29.4783 39.3511 29.4517 39.1569 29.4676H25.8299C25.8299 29.4676 20.7545 29.548 20.7545 23.7241C20.7545 17.9001 27.334 17.9805 27.334 17.9805H42.98Z" fill="white"/>
<path d="M44.7361 17.9802L41.1963 23.0591H51.3751V37.1311H57.2306V23.0312H61.5575C61.5575 23.0312 63.114 19.8026 67.3675 17.9697L44.7361 17.9802Z" fill="white"/>
<path d="M83.65 22.9855L87.4977 17.9346H73.3872C73.3872 17.9346 61.9631 18.3228 61.9631 27.2564C61.9631 36.19 71.8691 37.131 72.845 37.131H86.8541V25.1297H74.573L71.0262 29.677H80.7887V32.3773H71.6138C71.6138 32.3773 67.8396 32.3424 67.8396 27.5293C67.8396 22.7162 74.0203 22.982 74.0203 22.982L83.65 22.9855Z" fill="white"/>
<path d="M19.1595 23.5315C19.1595 23.5315 20.8875 6.12254 21.4716 2.02301C21.4716 2.02301 27.523 3.07238 28.303 16.7946L29.1425 16.8366C29.1425 16.8366 29.7511 9.05026 25.5047 3.04789C25.5047 3.04789 33.8996 5.53489 36.4391 14.5175C36.4391 14.5175 33.7072 1.43537 19.6982 0.0222246C19.6982 0.0222246 11.5936 -0.642372 5.40585 5.29703C3.61689 7.0213 2.21181 9.10357 1.28239 11.4078C0.352972 13.7121 -0.079879 16.1865 0.0121117 18.6694C0.1975 23.7449 2.46063 30.4538 11.8385 34.5603C11.8385 34.5603 2.74396 30.202 1.55818 21.0235C1.55818 21.0235 8.32658 27.5156 20.1704 27.5576C20.1704 27.5576 7.87186 25.9695 1.28184 18.8758C1.28184 18.8758 1.54069 14.5804 2.25775 13.2162C2.25775 13.2162 9.73973 19.7888 21.5206 19.2011C21.8877 18.7818 22.3427 18.4486 22.8533 18.2252C22.8533 18.2252 9.48088 18.5505 3.10074 11.198C3.10074 11.198 4.89166 7.58465 7.4801 5.82871C7.4801 5.82871 18.0717 12.6286 31.6715 8.6585C31.6715 8.6585 18.397 11.3938 9.15558 4.88428C10.9291 3.64732 12.9298 2.77355 15.0425 2.31334C15.0425 2.31334 1.28185 16.5987 15.4658 35.1445C15.4658 35.1445 3.57296 18.2707 17.8758 1.76067L19.4219 1.7117L19.1595 23.5315Z" fill="white"/>
<path d="M20.9888 39.8457H24.0389V47.4851H31.0697V50.0001H20.9888V39.8457Z" fill="white"/>
<path d="M78.2913 39.8457H81.3414V47.4851H88.3687V50.0001H78.2913V39.8457Z" fill="white"/>
<path d="M11.9119 44.2882V46.1946H15.917V47.146C15.9295 47.2127 15.9261 47.2815 15.9072 47.3467C15.8883 47.4119 15.8543 47.4717 15.808 47.5214C15.7618 47.5711 15.7045 47.6092 15.6408 47.6327C15.5771 47.6562 15.5087 47.6644 15.4413 47.6567H9.1451C9.1451 47.6567 8.75334 47.7056 8.75334 46.9571V42.7142C8.75334 42.7142 8.6589 42.2385 9.29201 42.2385H15.5392C15.5392 42.2385 15.8331 42.2384 15.8331 42.7037C15.8331 43.1689 15.8331 43.3368 15.8331 43.3368H18.9392C18.9392 43.3368 19.4604 39.8389 16.2703 39.8389H8.52248C8.52248 39.8389 5.70668 39.7899 5.70668 43.3683V47.4503C5.70668 47.4503 5.54228 49.9898 9.20457 49.9898H16.0359C16.0359 49.9898 18.9427 50.0702 18.9427 47.3873V44.3687L11.9119 44.2882Z" fill="white"/>
<path d="M59.1088 44.9283C59.1088 44.9283 59.8748 44.6554 60.1931 43.4172C60.3737 42.6929 60.3446 41.9323 60.1092 41.224C59.9716 40.8147 59.7065 40.4603 59.3527 40.2129C58.9988 39.9655 58.575 39.8381 58.1434 39.8493H48.3738V49.9932H58.1853C58.7931 49.9915 59.379 49.7658 59.8307 49.3593C60.2825 48.9527 60.5684 48.3938 60.6339 47.7895C60.6558 47.5757 60.6663 47.3609 60.6653 47.1459C60.6653 47.1459 60.5639 44.9283 59.1088 44.9283ZM56.9716 47.786H51.1546V45.9321H56.9716C57.221 45.9305 57.4611 46.0273 57.6397 46.2015C57.7275 46.2869 57.7972 46.3892 57.8447 46.5022C57.8922 46.6152 57.9164 46.7365 57.916 46.8591C57.9151 46.982 57.8899 47.1036 57.8419 47.2168C57.7939 47.33 57.724 47.4326 57.6363 47.5187C57.5485 47.6048 57.4447 47.6728 57.3306 47.7186C57.2165 47.7645 57.0945 47.7874 56.9716 47.786V47.786ZM56.9716 43.8019H51.1546V41.9446H56.9716C57.2215 41.9442 57.4615 42.0422 57.6397 42.2174C57.7271 42.3024 57.7966 42.4041 57.844 42.5165C57.8915 42.6288 57.916 42.7495 57.916 42.8715C57.9151 42.9946 57.8899 43.1163 57.842 43.2297C57.794 43.3431 57.7242 43.4459 57.6365 43.5323C57.5488 43.6187 57.4449 43.687 57.3309 43.7333C57.2168 43.7795 57.0947 43.8029 56.9716 43.8019V43.8019Z" fill="white"/>
<path d="M71.5578 39.8491H67.1889L61.8687 49.993H65.405L66.1641 48.1881H72.6281L73.5341 49.993H76.8501L71.5578 39.8491ZM67.1644 45.9319L69.0183 42.2382H69.6759L71.6522 45.9319H67.1644Z" fill="white"/>
</svg>
