<svg width="340" height="44" viewBox="0 0 340 44" fill="none" xmlns="http://www.w3.org/2000/svg">
<rect x="1" y="1" width="338" height="42" rx="3" fill="white" stroke="#C4C4C4" stroke-width="2"/>
<path d="M32 10H12C10.8954 10 10 10.8954 10 12V32C10 33.1046 10.8954 34 12 34H32C33.1046 34 34 33.1046 34 32V12C34 10.8954 33.1046 10 32 10Z" fill="#FF7A59"/>
<path fill-rule="evenodd" clip-rule="evenodd" d="M25.1934 25.2195C24.1245 25.2195 23.2579 24.3459 23.2579 23.2684C23.2579 22.1907 24.1245 21.3171 25.1934 21.3171C26.2624 21.3171 27.1289 22.1907 27.1289 23.2684C27.1289 24.3459 26.2624 25.2195 25.1934 25.2195ZM25.7631 19.5328V17.8137C26.2138 17.6018 26.5295 17.1478 26.5295 16.621V16.5814C26.5295 15.8543 25.932 15.2595 25.2018 15.2595H25.1622C24.4319 15.2595 23.8345 15.8543 23.8345 16.5814V16.621C23.8345 17.1478 24.1502 17.6019 24.6009 17.8139V19.5328C23.9299 19.6361 23.3168 19.9116 22.8112 20.3171L18.0706 16.6455C18.1019 16.5259 18.1239 16.4028 18.1241 16.2734C18.1248 15.4501 17.4555 14.7816 16.6283 14.7805C15.8014 14.7796 15.1298 15.4462 15.1289 16.2697C15.128 17.0931 15.7973 17.7616 16.6245 17.7625C16.894 17.7629 17.1436 17.6867 17.3622 17.5628L22.0253 21.1747C21.6288 21.7707 21.3964 22.4845 21.3964 23.2531C21.3964 24.0577 21.6517 24.802 22.083 25.4141L20.665 26.8261C20.5529 26.7925 20.4367 26.7692 20.3134 26.7692C19.6339 26.7692 19.0828 27.3176 19.0828 27.9943C19.0828 28.6711 19.6339 29.2195 20.3134 29.2195C20.9932 29.2195 21.544 28.6711 21.544 27.9943C21.544 27.8719 21.5206 27.756 21.4869 27.6444L22.8896 26.2477C23.5263 26.7315 24.3193 27.0223 25.1821 27.0223C27.2729 27.0223 28.9676 25.3347 28.9676 23.2531C28.9676 21.3687 27.5772 19.8118 25.7631 19.5328Z" fill="white"/>
<path d="M48.8072 29H46.4165L50.7692 16.6364H53.5341L57.8928 29H55.5021L52.1999 19.1719H52.1033L48.8072 29ZM48.8857 24.1523H55.4055V25.9513H48.8857V24.1523ZM62.5835 29.163C61.855 29.163 61.203 28.9759 60.6275 28.6016C60.052 28.2273 59.5972 27.6839 59.2631 26.9716C58.9291 26.2592 58.7621 25.3939 58.7621 24.3757C58.7621 23.3454 58.9311 22.4761 59.2692 21.7678C59.6113 21.0554 60.0721 20.5181 60.6516 20.1559C61.2312 19.7897 61.8771 19.6065 62.5895 19.6065C63.1328 19.6065 63.5795 19.6991 63.9297 19.8842C64.2798 20.0653 64.5575 20.2847 64.7628 20.5423C64.968 20.7958 65.127 21.0353 65.2397 21.2607H65.3303V16.6364H67.5217V29H65.3725V27.5391H65.2397C65.127 27.7644 64.964 28.0039 64.7507 28.2575C64.5374 28.507 64.2557 28.7203 63.9055 28.8974C63.5554 29.0745 63.1147 29.163 62.5835 29.163ZM63.1932 27.37C63.656 27.37 64.0504 27.2453 64.3764 26.9957C64.7024 26.7422 64.9499 26.39 65.119 25.9393C65.288 25.4885 65.3725 24.9633 65.3725 24.3636C65.3725 23.764 65.288 23.2428 65.119 22.8001C64.954 22.3574 64.7085 22.0133 64.3825 21.7678C64.0605 21.5223 63.6641 21.3995 63.1932 21.3995C62.7062 21.3995 62.2997 21.5263 61.9737 21.7798C61.6477 22.0334 61.4022 22.3835 61.2372 22.8303C61.0722 23.277 60.9897 23.7881 60.9897 24.3636C60.9897 24.9432 61.0722 25.4603 61.2372 25.9151C61.4063 26.3659 61.6538 26.7221 61.9798 26.9837C62.3098 27.2412 62.7143 27.37 63.1932 27.37ZM78.1331 19.7273L74.8309 29H72.4161L69.1139 19.7273H71.4442L73.5752 26.6154H73.6718L75.8089 19.7273H78.1331ZM82.048 29.1871C81.4604 29.1871 80.9312 29.0825 80.4603 28.8732C79.9935 28.6599 79.6232 28.346 79.3495 27.9315C79.0799 27.5169 78.945 27.0058 78.945 26.3981C78.945 25.8749 79.0416 25.4422 79.2348 25.1001C79.428 24.758 79.6916 24.4844 80.0257 24.2791C80.3597 24.0739 80.736 23.9189 81.1546 23.8143C81.5771 23.7056 82.0138 23.6271 82.4646 23.5788C83.0079 23.5225 83.4486 23.4722 83.7867 23.4279C84.1247 23.3796 84.3702 23.3072 84.5232 23.2106C84.6801 23.11 84.7586 22.955 84.7586 22.7457V22.7095C84.7586 22.2547 84.6238 21.9026 84.3541 21.6531C84.0845 21.4035 83.6961 21.2788 83.189 21.2788C82.6537 21.2788 82.2291 21.3955 81.9152 21.6289C81.6053 21.8623 81.396 22.138 81.2874 22.456L79.2469 22.1662C79.4079 21.6027 79.6735 21.1319 80.0438 20.7536C80.414 20.3712 80.8668 20.0855 81.4021 19.8963C81.9374 19.7031 82.529 19.6065 83.1769 19.6065C83.6237 19.6065 84.0684 19.6589 84.5111 19.7635C84.9538 19.8681 85.3583 20.0412 85.7245 20.2827C86.0908 20.5201 86.3846 20.8441 86.6059 21.2546C86.8313 21.6651 86.944 22.1783 86.944 22.794V29H84.8431V27.7262H84.7707C84.6379 27.9838 84.4507 28.2253 84.2093 28.4506C83.9718 28.672 83.672 28.8511 83.3097 28.9879C82.9516 29.1207 82.531 29.1871 82.048 29.1871ZM82.6155 27.5813C83.0542 27.5813 83.4345 27.4948 83.7565 27.3217C84.0785 27.1446 84.326 26.9112 84.499 26.6214C84.6761 26.3317 84.7646 26.0157 84.7646 25.6737V24.581C84.6962 24.6373 84.5795 24.6896 84.4145 24.7379C84.2535 24.7862 84.0724 24.8285 83.8712 24.8647C83.67 24.9009 83.4707 24.9331 83.2735 24.9613C83.0763 24.9895 82.9053 25.0136 82.7604 25.0337C82.4344 25.078 82.1426 25.1504 81.885 25.2511C81.6275 25.3517 81.4242 25.4925 81.2753 25.6737C81.1264 25.8507 81.0519 26.0801 81.0519 26.3619C81.0519 26.7643 81.1988 27.0682 81.4926 27.2734C81.7864 27.4787 82.1607 27.5813 82.6155 27.5813ZM91.3268 23.5668V29H89.1414V19.7273H91.2302V21.3029H91.3389C91.5522 20.7837 91.8923 20.3712 92.3591 20.0653C92.83 19.7595 93.4115 19.6065 94.1038 19.6065C94.7437 19.6065 95.3011 19.7434 95.776 20.017C96.2549 20.2907 96.6252 20.6871 96.8868 21.2063C97.1524 21.7255 97.2832 22.3554 97.2792 23.0959V29H95.0938V23.4339C95.0938 22.8142 94.9329 22.3292 94.6109 21.979C94.2929 21.6289 93.8522 21.4538 93.2888 21.4538C92.9065 21.4538 92.5664 21.5384 92.2686 21.7074C91.9748 21.8724 91.7433 22.1119 91.5743 22.4258C91.4093 22.7397 91.3268 23.12 91.3268 23.5668ZM103.546 29.1811C102.62 29.1811 101.825 28.9779 101.161 28.5714C100.501 28.1649 99.9918 27.6035 99.6336 26.8871C99.2794 26.1667 99.1024 25.3376 99.1024 24.3999C99.1024 23.4581 99.2835 22.627 99.6457 21.9066C100.008 21.1822 100.519 20.6187 101.179 20.2163C101.843 19.8098 102.628 19.6065 103.533 19.6065C104.286 19.6065 104.952 19.7454 105.532 20.0231C106.115 20.2968 106.58 20.6851 106.926 21.1882C107.272 21.6873 107.47 22.2708 107.518 22.9389H105.429C105.345 22.4922 105.143 22.1199 104.825 21.8221C104.511 21.5202 104.091 21.3693 103.564 21.3693C103.117 21.3693 102.725 21.4901 102.386 21.7315C102.048 21.969 101.785 22.3111 101.596 22.7578C101.41 23.2045 101.318 23.7398 101.318 24.3636C101.318 24.9955 101.41 25.5388 101.596 25.9936C101.781 26.4444 102.04 26.7925 102.374 27.038C102.712 27.2795 103.109 27.4002 103.564 27.4002C103.886 27.4002 104.173 27.3398 104.427 27.2191C104.685 27.0943 104.9 26.9152 105.073 26.6818C105.246 26.4484 105.365 26.1647 105.429 25.8306H107.518C107.466 26.4866 107.272 27.0682 106.938 27.5753C106.604 28.0784 106.149 28.4728 105.574 28.7585C104.998 29.0402 104.322 29.1811 103.546 29.1811ZM113.417 29.1811C112.488 29.1811 111.685 28.9879 111.009 28.6016C110.337 28.2112 109.819 27.6598 109.457 26.9474C109.095 26.2311 108.914 25.3879 108.914 24.418C108.914 23.4641 109.095 22.627 109.457 21.9066C109.823 21.1822 110.335 20.6187 110.991 20.2163C111.647 19.8098 112.417 19.6065 113.303 19.6065C113.874 19.6065 114.414 19.6991 114.921 19.8842C115.432 20.0653 115.883 20.3471 116.273 20.7294C116.667 21.1117 116.977 21.5987 117.203 22.1903C117.428 22.7779 117.541 23.4782 117.541 24.2912V24.9613H109.94V23.4883H115.446C115.442 23.0697 115.351 22.6974 115.174 22.3714C114.997 22.0414 114.75 21.7818 114.432 21.5927C114.118 21.4035 113.751 21.3089 113.333 21.3089C112.886 21.3089 112.494 21.4176 112.156 21.6349C111.818 21.8482 111.554 22.13 111.365 22.4801C111.18 22.8262 111.085 23.2066 111.081 23.6211V24.907C111.081 25.4463 111.18 25.9091 111.377 26.2955C111.574 26.6778 111.85 26.9716 112.204 27.1768C112.558 27.3781 112.973 27.4787 113.448 27.4787C113.766 27.4787 114.053 27.4344 114.311 27.3459C114.568 27.2533 114.792 27.1185 114.981 26.9414C115.17 26.7643 115.313 26.545 115.41 26.2834L117.45 26.5128C117.321 27.0521 117.076 27.523 116.714 27.9254C116.355 28.3239 115.897 28.6338 115.337 28.8551C114.778 29.0724 114.138 29.1811 113.417 29.1811ZM122.831 29.163C122.102 29.163 121.45 28.9759 120.875 28.6016C120.299 28.2273 119.844 27.6839 119.51 26.9716C119.176 26.2592 119.009 25.3939 119.009 24.3757C119.009 23.3454 119.178 22.4761 119.516 21.7678C119.858 21.0554 120.319 20.5181 120.899 20.1559C121.478 19.7897 122.124 19.6065 122.837 19.6065C123.38 19.6065 123.827 19.6991 124.177 19.8842C124.527 20.0653 124.805 20.2847 125.01 20.5423C125.215 20.7958 125.374 21.0353 125.487 21.2607H125.577V16.6364H127.769V29H125.62V27.5391H125.487C125.374 27.7644 125.211 28.0039 124.998 28.2575C124.784 28.507 124.503 28.7203 124.153 28.8974C123.802 29.0745 123.362 29.163 122.831 29.163ZM123.44 27.37C123.903 27.37 124.297 27.2453 124.623 26.9957C124.949 26.7422 125.197 26.39 125.366 25.9393C125.535 25.4885 125.62 24.9633 125.62 24.3636C125.62 23.764 125.535 23.2428 125.366 22.8001C125.201 22.3574 124.956 22.0133 124.63 21.7678C124.308 21.5223 123.911 21.3995 123.44 21.3995C122.953 21.3995 122.547 21.5263 122.221 21.7798C121.895 22.0334 121.649 22.3835 121.484 22.8303C121.319 23.277 121.237 23.7881 121.237 24.3636C121.237 24.9432 121.319 25.4603 121.484 25.9151C121.653 26.3659 121.901 26.7221 122.227 26.9837C122.557 27.2412 122.961 27.37 123.44 27.37ZM136.651 16.6364V29H134.411V16.6364H136.651ZM138.979 29V19.7273H141.068V21.3029H141.177C141.37 20.7717 141.69 20.3571 142.137 20.0593C142.583 19.7575 143.117 19.6065 143.736 19.6065C144.364 19.6065 144.893 19.7595 145.324 20.0653C145.759 20.3672 146.065 20.7797 146.242 21.3029H146.338C146.544 20.7878 146.89 20.3772 147.377 20.0714C147.868 19.7615 148.449 19.6065 149.121 19.6065C149.975 19.6065 150.671 19.8762 151.21 20.4155C151.749 20.9548 152.019 21.7416 152.019 22.7759V29H149.828V23.114C149.828 22.5385 149.675 22.1179 149.369 21.8523C149.063 21.5826 148.689 21.4478 148.246 21.4478C147.719 21.4478 147.306 21.6128 147.008 21.9428C146.715 22.2688 146.568 22.6934 146.568 23.2166V29H144.425V23.0234C144.425 22.5445 144.28 22.1622 143.99 21.8764C143.704 21.5907 143.33 21.4478 142.867 21.4478C142.553 21.4478 142.267 21.5283 142.01 21.6893C141.752 21.8462 141.547 22.0696 141.394 22.3594C141.241 22.6451 141.165 22.9792 141.165 23.3615V29H138.979ZM154.236 32.4773V19.7273H156.385V21.2607H156.512C156.625 21.0353 156.784 20.7958 156.989 20.5423C157.194 20.2847 157.472 20.0653 157.822 19.8842C158.172 19.6991 158.619 19.6065 159.162 19.6065C159.879 19.6065 160.525 19.7897 161.1 20.1559C161.68 20.5181 162.138 21.0554 162.477 21.7678C162.819 22.4761 162.99 23.3454 162.99 24.3757C162.99 25.3939 162.823 26.2592 162.489 26.9716C162.155 27.6839 161.7 28.2273 161.124 28.6016C160.549 28.9759 159.897 29.163 159.168 29.163C158.637 29.163 158.196 29.0745 157.846 28.8974C157.496 28.7203 157.214 28.507 157.001 28.2575C156.792 28.0039 156.629 27.7644 156.512 27.5391H156.422V32.4773H154.236ZM156.379 24.3636C156.379 24.9633 156.464 25.4885 156.633 25.9393C156.806 26.39 157.053 26.7422 157.375 26.9957C157.701 27.2453 158.096 27.37 158.559 27.37C159.042 27.37 159.446 27.2412 159.772 26.9837C160.098 26.7221 160.344 26.3659 160.509 25.9151C160.678 25.4603 160.762 24.9432 160.762 24.3636C160.762 23.7881 160.68 23.277 160.515 22.8303C160.35 22.3835 160.104 22.0334 159.778 21.7798C159.452 21.5263 159.046 21.3995 158.559 21.3995C158.092 21.3995 157.695 21.5223 157.369 21.7678C157.043 22.0133 156.796 22.3574 156.627 22.8001C156.462 23.2428 156.379 23.764 156.379 24.3636ZM167.047 16.6364V29H164.861V16.6364H167.047ZM173.399 29.1811C172.469 29.1811 171.666 28.9879 170.99 28.6016C170.318 28.2112 169.801 27.6598 169.439 26.9474C169.076 26.2311 168.895 25.3879 168.895 24.418C168.895 23.4641 169.076 22.627 169.439 21.9066C169.805 21.1822 170.316 20.6187 170.972 20.2163C171.628 19.8098 172.399 19.6065 173.284 19.6065C173.856 19.6065 174.395 19.6991 174.902 19.8842C175.413 20.0653 175.864 20.3471 176.254 20.7294C176.649 21.1117 176.959 21.5987 177.184 22.1903C177.409 22.7779 177.522 23.4782 177.522 24.2912V24.9613H169.922V23.4883H175.427C175.423 23.0697 175.333 22.6974 175.156 22.3714C174.979 22.0414 174.731 21.7818 174.413 21.5927C174.099 21.4035 173.733 21.3089 173.314 21.3089C172.868 21.3089 172.475 21.4176 172.137 21.6349C171.799 21.8482 171.535 22.13 171.346 22.4801C171.161 22.8262 171.067 23.2066 171.063 23.6211V24.907C171.063 25.4463 171.161 25.9091 171.358 26.2955C171.556 26.6778 171.831 26.9716 172.185 27.1768C172.54 27.3781 172.954 27.4787 173.429 27.4787C173.747 27.4787 174.035 27.4344 174.292 27.3459C174.55 27.2533 174.773 27.1185 174.962 26.9414C175.152 26.7643 175.294 26.545 175.391 26.2834L177.432 26.5128C177.303 27.0521 177.057 27.523 176.695 27.9254C176.337 28.3239 175.878 28.6338 175.319 28.8551C174.759 29.0724 174.119 29.1811 173.399 29.1811ZM179.371 29V19.7273H181.46V21.3029H181.568C181.762 20.7717 182.081 20.3571 182.528 20.0593C182.975 19.7575 183.508 19.6065 184.128 19.6065C184.756 19.6065 185.285 19.7595 185.716 20.0653C186.15 20.3672 186.456 20.7797 186.633 21.3029H186.73C186.935 20.7878 187.281 20.3772 187.768 20.0714C188.259 19.7615 188.841 19.6065 189.513 19.6065C190.366 19.6065 191.062 19.8762 191.602 20.4155C192.141 20.9548 192.411 21.7416 192.411 22.7759V29H190.219V23.114C190.219 22.5385 190.066 22.1179 189.76 21.8523C189.455 21.5826 189.08 21.4478 188.638 21.4478C188.11 21.4478 187.698 21.6128 187.4 21.9428C187.106 22.2688 186.959 22.6934 186.959 23.2166V29H184.816V23.0234C184.816 22.5445 184.671 22.1622 184.382 21.8764C184.096 21.5907 183.722 21.4478 183.259 21.4478C182.945 21.4478 182.659 21.5283 182.401 21.6893C182.144 21.8462 181.939 22.0696 181.786 22.3594C181.633 22.6451 181.556 22.9792 181.556 23.3615V29H179.371ZM198.733 29.1811C197.803 29.1811 197 28.9879 196.324 28.6016C195.652 28.2112 195.135 27.6598 194.773 26.9474C194.41 26.2311 194.229 25.3879 194.229 24.418C194.229 23.4641 194.41 22.627 194.773 21.9066C195.139 21.1822 195.65 20.6187 196.306 20.2163C196.962 19.8098 197.733 19.6065 198.618 19.6065C199.19 19.6065 199.729 19.6991 200.236 19.8842C200.747 20.0653 201.198 20.3471 201.588 20.7294C201.983 21.1117 202.293 21.5987 202.518 22.1903C202.743 22.7779 202.856 23.4782 202.856 24.2912V24.9613H195.256V23.4883H200.761C200.757 23.0697 200.667 22.6974 200.49 22.3714C200.313 22.0414 200.065 21.7818 199.747 21.5927C199.433 21.4035 199.067 21.3089 198.648 21.3089C198.202 21.3089 197.809 21.4176 197.471 21.6349C197.133 21.8482 196.869 22.13 196.68 22.4801C196.495 22.8262 196.401 23.2066 196.397 23.6211V24.907C196.397 25.4463 196.495 25.9091 196.692 26.2955C196.89 26.6778 197.165 26.9716 197.519 27.1768C197.874 27.3781 198.288 27.4787 198.763 27.4787C199.081 27.4787 199.369 27.4344 199.626 27.3459C199.884 27.2533 200.107 27.1185 200.296 26.9414C200.486 26.7643 200.628 26.545 200.725 26.2834L202.766 26.5128C202.637 27.0521 202.391 27.523 202.029 27.9254C201.671 28.3239 201.212 28.6338 200.653 28.8551C200.093 29.0724 199.453 29.1811 198.733 29.1811ZM206.89 23.5668V29H204.705V19.7273H206.794V21.3029H206.902C207.116 20.7837 207.456 20.3712 207.923 20.0653C208.393 19.7595 208.975 19.6065 209.667 19.6065C210.307 19.6065 210.865 19.7434 211.339 20.017C211.818 20.2907 212.189 20.6871 212.45 21.2063C212.716 21.7255 212.847 22.3554 212.843 23.0959V29H210.657V23.4339C210.657 22.8142 210.496 22.3292 210.174 21.979C209.856 21.6289 209.416 21.4538 208.852 21.4538C208.47 21.4538 208.13 21.5384 207.832 21.7074C207.538 21.8724 207.307 22.1119 207.138 22.4258C206.973 22.7397 206.89 23.12 206.89 23.5668ZM219.695 19.7273V21.4176H214.364V19.7273H219.695ZM215.68 17.5057H217.865V26.2109C217.865 26.5047 217.91 26.7301 217.998 26.8871C218.091 27.04 218.212 27.1446 218.36 27.201C218.509 27.2573 218.674 27.2855 218.855 27.2855C218.992 27.2855 219.117 27.2754 219.23 27.2553C219.346 27.2352 219.435 27.2171 219.495 27.201L219.864 28.9094C219.747 28.9497 219.58 28.994 219.363 29.0423C219.149 29.0906 218.888 29.1187 218.578 29.1268C218.03 29.1429 217.537 29.0604 217.099 28.8793C216.66 28.6941 216.312 28.4084 216.054 28.022C215.801 27.6357 215.676 27.1527 215.68 26.5732V17.5057ZM224.191 29.1871C223.603 29.1871 223.074 29.0825 222.603 28.8732C222.136 28.6599 221.766 28.346 221.492 27.9315C221.222 27.5169 221.088 27.0058 221.088 26.3981C221.088 25.8749 221.184 25.4422 221.377 25.1001C221.571 24.758 221.834 24.4844 222.168 24.2791C222.502 24.0739 222.879 23.9189 223.297 23.8143C223.72 23.7056 224.156 23.6271 224.607 23.5788C225.15 23.5225 225.591 23.4722 225.929 23.4279C226.267 23.3796 226.513 23.3072 226.666 23.2106C226.823 23.11 226.901 22.955 226.901 22.7457V22.7095C226.901 22.2547 226.766 21.9026 226.497 21.6531C226.227 21.4035 225.839 21.2788 225.332 21.2788C224.796 21.2788 224.372 21.3955 224.058 21.6289C223.748 21.8623 223.539 22.138 223.43 22.456L221.389 22.1662C221.55 21.6027 221.816 21.1319 222.186 20.7536C222.557 20.3712 223.009 20.0855 223.545 19.8963C224.08 19.7031 224.672 19.6065 225.32 19.6065C225.766 19.6065 226.211 19.6589 226.654 19.7635C227.096 19.8681 227.501 20.0412 227.867 20.2827C228.233 20.5201 228.527 20.8441 228.748 21.2546C228.974 21.6651 229.087 22.1783 229.087 22.794V29H226.986V27.7262H226.913C226.78 27.9838 226.593 28.2253 226.352 28.4506C226.114 28.672 225.815 28.8511 225.452 28.9879C225.094 29.1207 224.674 29.1871 224.191 29.1871ZM224.758 27.5813C225.197 27.5813 225.577 27.4948 225.899 27.3217C226.221 27.1446 226.469 26.9112 226.642 26.6214C226.819 26.3317 226.907 26.0157 226.907 25.6737V24.581C226.839 24.6373 226.722 24.6896 226.557 24.7379C226.396 24.7862 226.215 24.8285 226.014 24.8647C225.813 24.9009 225.613 24.9331 225.416 24.9613C225.219 24.9895 225.048 25.0136 224.903 25.0337C224.577 25.078 224.285 25.1504 224.028 25.2511C223.77 25.3517 223.567 25.4925 223.418 25.6737C223.269 25.8507 223.195 26.0801 223.195 26.3619C223.195 26.7643 223.341 27.0682 223.635 27.2734C223.929 27.4787 224.303 27.5813 224.758 27.5813ZM235.914 19.7273V21.4176H230.584V19.7273H235.914ZM231.9 17.5057H234.085V26.2109C234.085 26.5047 234.129 26.7301 234.218 26.8871C234.311 27.04 234.431 27.1446 234.58 27.201C234.729 27.2573 234.894 27.2855 235.075 27.2855C235.212 27.2855 235.337 27.2754 235.449 27.2553C235.566 27.2352 235.655 27.2171 235.715 27.201L236.083 28.9094C235.967 28.9497 235.8 28.994 235.582 29.0423C235.369 29.0906 235.107 29.1187 234.797 29.1268C234.25 29.1429 233.757 29.0604 233.318 28.8793C232.88 28.6941 232.532 28.4084 232.274 28.022C232.021 27.6357 231.896 27.1527 231.9 26.5732V17.5057ZM237.742 29V19.7273H239.927V29H237.742ZM238.841 18.4112C238.495 18.4112 238.197 18.2965 237.947 18.0671C237.698 17.8337 237.573 17.554 237.573 17.228C237.573 16.898 237.698 16.6183 237.947 16.3888C238.197 16.1554 238.495 16.0387 238.841 16.0387C239.191 16.0387 239.489 16.1554 239.734 16.3888C239.984 16.6183 240.108 16.898 240.108 17.228C240.108 17.554 239.984 17.8337 239.734 18.0671C239.489 18.2965 239.191 18.4112 238.841 18.4112ZM246.219 29.1811C245.314 29.1811 244.529 28.9819 243.865 28.5835C243.201 28.185 242.686 27.6276 242.32 26.9112C241.957 26.1948 241.776 25.3577 241.776 24.3999C241.776 23.442 241.957 22.6029 242.32 21.8825C242.686 21.162 243.201 20.6026 243.865 20.2042C244.529 19.8058 245.314 19.6065 246.219 19.6065C247.125 19.6065 247.91 19.8058 248.574 20.2042C249.238 20.6026 249.751 21.162 250.113 21.8825C250.479 22.6029 250.663 23.442 250.663 24.3999C250.663 25.3577 250.479 26.1948 250.113 26.9112C249.751 27.6276 249.238 28.185 248.574 28.5835C247.91 28.9819 247.125 29.1811 246.219 29.1811ZM246.231 27.4304C246.722 27.4304 247.133 27.2956 247.463 27.0259C247.793 26.7522 248.039 26.386 248.199 25.9272C248.364 25.4684 248.447 24.9573 248.447 24.3938C248.447 23.8263 248.364 23.3132 248.199 22.8544C248.039 22.3916 247.793 22.0233 247.463 21.7496C247.133 21.476 246.722 21.3391 246.231 21.3391C245.728 21.3391 245.31 21.476 244.976 21.7496C244.646 22.0233 244.398 22.3916 244.233 22.8544C244.072 23.3132 243.992 23.8263 243.992 24.3938C243.992 24.9573 244.072 25.4684 244.233 25.9272C244.398 26.386 244.646 26.7522 244.976 27.0259C245.31 27.2956 245.728 27.4304 246.231 27.4304ZM254.703 23.5668V29H252.517V19.7273H254.606V21.3029H254.715C254.928 20.7837 255.268 20.3712 255.735 20.0653C256.206 19.7595 256.788 19.6065 257.48 19.6065C258.12 19.6065 258.677 19.7434 259.152 20.017C259.631 20.2907 260.001 20.6871 260.263 21.2063C260.528 21.7255 260.659 22.3554 260.655 23.0959V29H258.47V23.4339C258.47 22.8142 258.309 22.3292 257.987 21.979C257.669 21.6289 257.228 21.4538 256.665 21.4538C256.282 21.4538 255.942 21.5384 255.645 21.7074C255.351 21.8724 255.119 22.1119 254.95 22.4258C254.785 22.7397 254.703 23.12 254.703 23.5668ZM267.19 29V16.6364H271.827C272.776 16.6364 273.573 16.8134 274.217 17.1676C274.865 17.5218 275.354 18.0088 275.684 18.6286C276.018 19.2443 276.185 19.9446 276.185 20.7294C276.185 21.5223 276.018 22.2266 275.684 22.8423C275.35 23.4581 274.857 23.9431 274.205 24.2972C273.553 24.6474 272.75 24.8224 271.796 24.8224H268.724V22.9812H271.494C272.05 22.9812 272.505 22.8846 272.859 22.6914C273.213 22.4982 273.475 22.2326 273.644 21.8945C273.817 21.5565 273.903 21.1681 273.903 20.7294C273.903 20.2907 273.817 19.9044 273.644 19.5703C273.475 19.2363 273.211 18.9767 272.853 18.7915C272.499 18.6024 272.042 18.5078 271.482 18.5078H269.43V29H267.19ZM280.536 29.1871C279.949 29.1871 279.419 29.0825 278.949 28.8732C278.482 28.6599 278.111 28.346 277.838 27.9315C277.568 27.5169 277.433 27.0058 277.433 26.3981C277.433 25.8749 277.53 25.4422 277.723 25.1001C277.916 24.758 278.18 24.4844 278.514 24.2791C278.848 24.0739 279.224 23.9189 279.643 23.8143C280.065 23.7056 280.502 23.6271 280.953 23.5788C281.496 23.5225 281.937 23.4722 282.275 23.4279C282.613 23.3796 282.859 23.3072 283.011 23.2106C283.168 23.11 283.247 22.955 283.247 22.7457V22.7095C283.247 22.2547 283.112 21.9026 282.842 21.6531C282.573 21.4035 282.184 21.2788 281.677 21.2788C281.142 21.2788 280.717 21.3955 280.403 21.6289C280.094 21.8623 279.884 22.138 279.776 22.456L277.735 22.1662C277.896 21.6027 278.162 21.1319 278.532 20.7536C278.902 20.3712 279.355 20.0855 279.89 19.8963C280.426 19.7031 281.017 19.6065 281.665 19.6065C282.112 19.6065 282.557 19.6589 282.999 19.7635C283.442 19.8681 283.847 20.0412 284.213 20.2827C284.579 20.5201 284.873 20.8441 285.094 21.2546C285.32 21.6651 285.432 22.1783 285.432 22.794V29H283.331V27.7262H283.259C283.126 27.9838 282.939 28.2253 282.698 28.4506C282.46 28.672 282.16 28.8511 281.798 28.9879C281.44 29.1207 281.019 29.1871 280.536 29.1871ZM281.104 27.5813C281.542 27.5813 281.923 27.4948 282.245 27.3217C282.567 27.1446 282.814 26.9112 282.987 26.6214C283.164 26.3317 283.253 26.0157 283.253 25.6737V24.581C283.185 24.6373 283.068 24.6896 282.903 24.7379C282.742 24.7862 282.561 24.8285 282.359 24.8647C282.158 24.9009 281.959 24.9331 281.762 24.9613C281.565 24.9895 281.394 25.0136 281.249 25.0337C280.923 25.078 280.631 25.1504 280.373 25.2511C280.116 25.3517 279.912 25.4925 279.764 25.6737C279.615 25.8507 279.54 26.0801 279.54 26.3619C279.54 26.7643 279.687 27.0682 279.981 27.2734C280.275 27.4787 280.649 27.5813 281.104 27.5813ZM287.63 29V19.7273H289.749V21.2727H289.845C290.014 20.7375 290.304 20.3249 290.715 20.0352C291.129 19.7414 291.602 19.5945 292.133 19.5945C292.254 19.5945 292.389 19.6005 292.538 19.6126C292.691 19.6206 292.817 19.6347 292.918 19.6548V21.6651C292.825 21.6329 292.679 21.6048 292.477 21.5806C292.28 21.5524 292.089 21.5384 291.904 21.5384C291.505 21.5384 291.147 21.6249 290.829 21.7979C290.515 21.967 290.268 22.2024 290.087 22.5043C289.906 22.8061 289.815 23.1542 289.815 23.5487V29H287.63ZM299.498 19.7273V21.4176H294.168V19.7273H299.498ZM295.484 17.5057H297.669V26.2109C297.669 26.5047 297.713 26.7301 297.802 26.8871C297.895 27.04 298.015 27.1446 298.164 27.201C298.313 27.2573 298.478 27.2855 298.659 27.2855C298.796 27.2855 298.921 27.2754 299.033 27.2553C299.15 27.2352 299.239 27.2171 299.299 27.201L299.667 28.9094C299.551 28.9497 299.384 28.994 299.166 29.0423C298.953 29.0906 298.691 29.1187 298.381 29.1268C297.834 29.1429 297.341 29.0604 296.902 28.8793C296.464 28.6941 296.116 28.4084 295.858 28.022C295.604 27.6357 295.48 27.1527 295.484 26.5732V17.5057ZM303.511 23.5668V29H301.326V19.7273H303.415V21.3029H303.523C303.737 20.7837 304.077 20.3712 304.544 20.0653C305.015 19.7595 305.596 19.6065 306.288 19.6065C306.928 19.6065 307.486 19.7434 307.961 20.017C308.44 20.2907 308.81 20.6871 309.071 21.2063C309.337 21.7255 309.468 22.3554 309.464 23.0959V29H307.278V23.4339C307.278 22.8142 307.117 22.3292 306.795 21.979C306.478 21.6289 306.037 21.4538 305.473 21.4538C305.091 21.4538 304.751 21.5384 304.453 21.7074C304.159 21.8724 303.928 22.1119 303.759 22.4258C303.594 22.7397 303.511 23.12 303.511 23.5668ZM315.79 29.1811C314.861 29.1811 314.058 28.9879 313.382 28.6016C312.71 28.2112 312.192 27.6598 311.83 26.9474C311.468 26.2311 311.287 25.3879 311.287 24.418C311.287 23.4641 311.468 22.627 311.83 21.9066C312.196 21.1822 312.708 20.6187 313.364 20.2163C314.02 19.8098 314.79 19.6065 315.676 19.6065C316.247 19.6065 316.787 19.6991 317.294 19.8842C317.805 20.0653 318.256 20.3471 318.646 20.7294C319.04 21.1117 319.35 21.5987 319.576 22.1903C319.801 22.7779 319.914 23.4782 319.914 24.2912V24.9613H312.313V23.4883H317.819C317.815 23.0697 317.724 22.6974 317.547 22.3714C317.37 22.0414 317.123 21.7818 316.805 21.5927C316.491 21.4035 316.125 21.3089 315.706 21.3089C315.259 21.3089 314.867 21.4176 314.529 21.6349C314.191 21.8482 313.927 22.13 313.738 22.4801C313.553 22.8262 313.458 23.2066 313.454 23.6211V24.907C313.454 25.4463 313.553 25.9091 313.75 26.2955C313.947 26.6778 314.223 26.9716 314.577 27.1768C314.931 27.3781 315.346 27.4787 315.821 27.4787C316.139 27.4787 316.426 27.4344 316.684 27.3459C316.942 27.2533 317.165 27.1185 317.354 26.9414C317.543 26.7643 317.686 26.545 317.783 26.2834L319.823 26.5128C319.694 27.0521 319.449 27.523 319.087 27.9254C318.728 28.3239 318.27 28.6338 317.71 28.8551C317.151 29.0724 316.511 29.1811 315.79 29.1811ZM321.763 29V19.7273H323.881V21.2727H323.978C324.147 20.7375 324.437 20.3249 324.847 20.0352C325.262 19.7414 325.735 19.5945 326.266 19.5945C326.387 19.5945 326.522 19.6005 326.671 19.6126C326.823 19.6206 326.95 19.6347 327.051 19.6548V21.6651C326.958 21.6329 326.811 21.6048 326.61 21.5806C326.413 21.5524 326.222 21.5384 326.037 21.5384C325.638 21.5384 325.28 21.6249 324.962 21.7979C324.648 21.967 324.401 22.2024 324.22 22.5043C324.038 22.8061 323.948 23.1542 323.948 23.5487V29H321.763Z" fill="#10032A"/>
</svg>
