<svg width="317" height="43" viewBox="0 0 317 43" fill="none" xmlns="http://www.w3.org/2000/svg">
<g opacity="0.8">
<mask id="path-1-outside-1_1920_1382" maskUnits="userSpaceOnUse" x="0" y="-0.256104" width="317" height="44" fill="black">
<rect fill="white" y="-0.256104" width="317" height="44"/>
<path d="M9.616 40.9999V40.4399L11.912 39.8799C13.4427 39.5439 14.208 38.6106 14.208 37.0799V5.1599H9.448C8.06667 5.1599 7.07733 5.53323 6.48 6.2799C5.88267 6.98923 5.248 7.97856 4.576 9.2479L2.56 13.1679H2L2.28 4.0399H34.592L34.816 13.1679H34.256L32.24 9.2479C31.6053 7.97856 30.9893 6.98923 30.392 6.2799C29.7947 5.53323 28.8053 5.1599 27.424 5.1599H22.664V37.0799C22.664 38.6106 23.4293 39.5439 24.96 39.8799L27.256 40.4399V40.9999H9.616ZM46.8997 13.2239C49.3264 13.2239 51.3984 13.7279 53.1158 14.7359C54.8331 15.7066 56.1398 17.0506 57.0358 18.7679C57.9691 20.4479 58.4358 22.3706 58.4358 24.5359C58.4358 24.9466 58.4171 25.3759 58.3797 25.8239C58.3424 26.2346 58.2677 26.6079 58.1558 26.9439H41.4678C41.5051 30.9759 42.2144 33.8879 43.5957 35.6799C45.0144 37.4346 47.1051 38.3119 49.8677 38.3119C51.7344 38.3119 53.2464 38.0132 54.4038 37.4159C55.5611 36.8186 56.6438 35.9412 57.6518 34.7839L58.2118 35.2879C57.0544 37.3412 55.5051 38.9466 53.5638 40.1039C51.6598 41.2612 49.3638 41.8399 46.6758 41.8399C44.0251 41.8399 41.6731 41.2799 39.6198 40.1599C37.5664 39.0026 35.9611 37.3599 34.8037 35.2319C33.6464 33.1039 33.0677 30.5652 33.0677 27.6159C33.0677 24.5546 33.7398 21.9599 35.0838 19.8319C36.4278 17.6666 38.1451 16.0239 40.2358 14.9039C42.3638 13.7839 44.5851 13.2239 46.8997 13.2239ZM46.7318 14.3439C45.6491 14.3439 44.7158 14.6799 43.9318 15.3519C43.1851 15.9866 42.5878 17.1439 42.1398 18.8239C41.7291 20.4666 41.5051 22.7999 41.4678 25.8239H51.0438C51.4171 21.7546 51.2677 18.8239 50.5957 17.0319C49.9237 15.2399 48.6358 14.3439 46.7318 14.3439ZM70.9146 41.8399C69.0852 41.8399 67.4426 41.6159 65.9866 41.1679C64.5306 40.7572 63.1866 40.2346 61.9546 39.5999L62.0106 32.9359H62.5706L64.4746 36.2959C65.2959 37.7892 66.1919 38.9092 67.1626 39.6559C68.1706 40.3652 69.4399 40.7199 70.9706 40.7199C72.7626 40.7199 74.1999 40.3279 75.2826 39.5439C76.4026 38.7226 76.9626 37.6399 76.9626 36.2959C76.9626 35.0639 76.5706 34.0559 75.7866 33.2719C75.0026 32.4879 73.5466 31.7786 71.4186 31.1439L69.0666 30.4159C66.7892 29.7439 64.9972 28.6986 63.6906 27.2799C62.3839 25.8612 61.7306 24.1252 61.7306 22.0719C61.7306 19.6079 62.7012 17.5172 64.6426 15.7999C66.5839 14.0826 69.3652 13.2239 72.9866 13.2239C74.4426 13.2239 75.8052 13.3919 77.0746 13.7279C78.3812 14.0266 79.6319 14.4932 80.8266 15.1279L80.4906 21.1759H79.9306L77.9706 17.7039C77.2612 16.4719 76.5519 15.6132 75.8426 15.1279C75.1706 14.6052 74.1439 14.3439 72.7626 14.3439C71.4932 14.3439 70.2986 14.6986 69.1786 15.4079C68.0586 16.1172 67.4986 17.1252 67.4986 18.4319C67.4986 19.7012 67.9652 20.7092 68.8986 21.4559C69.8692 22.2026 71.2879 22.8932 73.1546 23.5279L75.6746 24.2559C78.3626 25.0772 80.2852 26.2159 81.4426 27.6719C82.5999 29.0906 83.1786 30.8079 83.1786 32.8239C83.1786 35.5492 82.0959 37.7332 79.9306 39.3759C77.8026 41.0186 74.7972 41.8399 70.9146 41.8399ZM96.2572 41.8399C93.8679 41.8399 92.0012 41.2426 90.6572 40.0479C89.3505 38.8532 88.6972 36.9492 88.6972 34.3359V15.1839H84.8332V14.6239L86.1772 14.3999C87.3345 14.1386 88.3239 13.7652 89.1452 13.2799C90.0039 12.7946 90.8439 12.1412 91.6652 11.3199L96.2572 6.2239H96.8172L96.6492 14.0639H102.921V15.1839H96.5932V35.3439C96.5932 36.6506 96.8732 37.6399 97.4332 38.3119C98.0305 38.9839 98.7772 39.3199 99.6732 39.3199C100.457 39.3199 101.148 39.1332 101.745 38.7599C102.343 38.3492 102.94 37.8079 103.537 37.1359L104.097 37.6959C103.351 38.9652 102.324 39.9732 101.017 40.7199C99.7105 41.4666 98.1239 41.8399 96.2572 41.8399ZM112.572 10.3119C111.302 10.3119 110.22 9.9199 109.324 9.1359C108.465 8.31456 108.036 7.2879 108.036 6.0559C108.036 4.78656 108.465 3.7599 109.324 2.9759C110.22 2.1919 111.302 1.7999 112.572 1.7999C113.841 1.7999 114.905 2.1919 115.764 2.9759C116.622 3.7599 117.052 4.78656 117.052 6.0559C117.052 7.2879 116.622 8.31456 115.764 9.1359C114.905 9.9199 113.841 10.3119 112.572 10.3119ZM105.964 40.9999V40.4399L106.748 40.2159C107.494 39.9919 107.998 39.6559 108.26 39.2079C108.558 38.7599 108.708 38.1626 108.708 37.4159V19.8879C108.708 19.1039 108.558 18.5252 108.26 18.1519C107.998 17.7412 107.494 17.4612 106.748 17.3119L105.964 17.1439V16.5839L116.212 13.2799L116.772 13.8399L116.604 21.7919V37.4719C116.604 38.2186 116.734 38.8159 116.996 39.2639C117.294 39.7119 117.798 40.0479 118.508 40.2719L119.068 40.4399V40.9999H105.964ZM121.547 40.9999V40.4399L122.331 40.2159C123.04 40.0292 123.526 39.7119 123.787 39.2639C124.086 38.8159 124.254 38.2186 124.291 37.4719V19.9439C124.291 19.1226 124.16 18.5252 123.899 18.1519C123.638 17.7412 123.134 17.4612 122.387 17.3119L121.547 17.0879V16.5279L131.123 13.2799L131.683 13.8399L132.131 17.6479C133.363 16.4159 134.763 15.3706 136.331 14.5119C137.936 13.6532 139.598 13.2239 141.315 13.2239C143.107 13.2239 144.544 13.5972 145.627 14.3439C146.71 15.0532 147.531 16.1732 148.091 17.7039C149.547 16.3226 151.115 15.2399 152.795 14.4559C154.512 13.6346 156.174 13.2239 157.779 13.2239C160.43 13.2239 162.371 13.8586 163.603 15.1279C164.872 16.3972 165.507 18.3946 165.507 21.1199V37.5279C165.507 38.9839 166.179 39.8986 167.523 40.2719L168.139 40.4399V40.9999H155.203V40.4399L155.763 40.2719C156.472 40.0479 156.958 39.7119 157.219 39.2639C157.518 38.8159 157.667 38.2186 157.667 37.4719V20.3359C157.667 18.7679 157.387 17.7039 156.827 17.1439C156.267 16.5466 155.371 16.2479 154.139 16.2479C153.168 16.2479 152.216 16.4719 151.283 16.9199C150.387 17.3306 149.435 17.9652 148.427 18.8239C148.614 19.4212 148.726 20.0746 148.763 20.7839C148.838 21.4932 148.875 22.2399 148.875 23.0239V37.5279C148.912 38.9839 149.584 39.8986 150.891 40.2719L151.395 40.4399V40.9999H138.403V40.4399L139.187 40.2159C139.896 39.9919 140.382 39.6746 140.643 39.2639C140.942 38.8159 141.091 38.2186 141.091 37.4719V20.3919C141.091 18.8986 140.811 17.8346 140.251 17.1999C139.728 16.5652 138.814 16.2479 137.507 16.2479C136.648 16.2479 135.79 16.4719 134.931 16.9199C134.072 17.3306 133.176 17.9466 132.243 18.7679V37.5279C132.243 38.9839 132.896 39.8986 134.203 40.2719L134.707 40.4399V40.9999H121.547ZM184.496 41.8399C181.659 41.8399 179.195 41.2612 177.104 40.1039C175.013 38.9092 173.389 37.2292 172.232 35.0639C171.112 32.8986 170.552 30.3599 170.552 27.4479C170.552 24.5359 171.149 22.0159 172.344 19.8879C173.576 17.7599 175.237 16.1172 177.328 14.9599C179.456 13.8026 181.845 13.2239 184.496 13.2239C187.147 13.2239 189.517 13.8026 191.608 14.9599C193.699 16.0799 195.341 17.7039 196.536 19.8319C197.768 21.9599 198.384 24.4986 198.384 27.4479C198.384 30.3972 197.805 32.9546 196.648 35.1199C195.528 37.2479 193.923 38.9092 191.832 40.1039C189.779 41.2612 187.333 41.8399 184.496 41.8399ZM184.496 40.7199C185.803 40.7199 186.848 40.3466 187.632 39.5999C188.416 38.8532 188.976 37.5279 189.312 35.6239C189.685 33.7199 189.872 31.0319 189.872 27.5599C189.872 24.0506 189.685 21.3439 189.312 19.4399C188.976 17.5359 188.416 16.2106 187.632 15.4639C186.848 14.7172 185.803 14.3439 184.496 14.3439C183.189 14.3439 182.125 14.7172 181.304 15.4639C180.52 16.2106 179.941 17.5359 179.568 19.4399C179.232 21.3439 179.064 24.0506 179.064 27.5599C179.064 31.0319 179.232 33.7199 179.568 35.6239C179.941 37.5279 180.52 38.8532 181.304 39.5999C182.125 40.3466 183.189 40.7199 184.496 40.7199ZM200.844 40.9999V40.4399L201.628 40.2159C202.934 39.8426 203.588 38.9279 203.588 37.4719V19.9439C203.588 19.1226 203.457 18.5252 203.196 18.1519C202.934 17.7412 202.43 17.4612 201.684 17.3119L200.844 17.0879V16.5279L210.42 13.2799L210.98 13.8399L211.428 17.1999C212.734 16.0426 214.209 15.0906 215.852 14.3439C217.494 13.5972 219.118 13.2239 220.724 13.2239C223.188 13.2239 225.073 13.8959 226.38 15.2399C227.724 16.5839 228.396 18.6372 228.396 21.3999V37.5279C228.396 38.9839 229.105 39.8986 230.524 40.2719L231.028 40.4399V40.9999H217.812V40.4399L218.54 40.2159C219.846 39.8052 220.5 38.8906 220.5 37.4719V19.6079C220.5 17.2186 219.305 16.0239 216.916 16.0239C215.273 16.0239 213.481 16.8452 211.54 18.4879V37.5279C211.54 38.9839 212.193 39.8986 213.5 40.2719L214.004 40.4399V40.9999H200.844ZM239.939 10.3119C238.669 10.3119 237.587 9.9199 236.691 9.1359C235.832 8.31456 235.403 7.2879 235.403 6.0559C235.403 4.78656 235.832 3.7599 236.691 2.9759C237.587 2.1919 238.669 1.7999 239.939 1.7999C241.208 1.7999 242.272 2.1919 243.131 2.9759C243.989 3.7599 244.419 4.78656 244.419 6.0559C244.419 7.2879 243.989 8.31456 243.131 9.1359C242.272 9.9199 241.208 10.3119 239.939 10.3119ZM233.331 40.9999V40.4399L234.115 40.2159C234.861 39.9919 235.365 39.6559 235.627 39.2079C235.925 38.7599 236.075 38.1626 236.075 37.4159V19.8879C236.075 19.1039 235.925 18.5252 235.627 18.1519C235.365 17.7412 234.861 17.4612 234.115 17.3119L233.331 17.1439V16.5839L243.579 13.2799L244.139 13.8399L243.971 21.7919V37.4719C243.971 38.2186 244.101 38.8159 244.363 39.2639C244.661 39.7119 245.165 40.0479 245.875 40.2719L246.435 40.4399V40.9999H233.331ZM257.09 41.8399C254.925 41.8399 253.095 41.2239 251.602 39.9919C250.146 38.7599 249.418 36.9866 249.418 34.6719C249.418 32.9172 250.314 31.3119 252.106 29.8559C253.898 28.3626 256.717 27.2426 260.562 26.4959C261.159 26.3839 261.831 26.2719 262.578 26.1599C263.325 26.0106 264.109 25.8612 264.93 25.7119V21.2879C264.93 18.7492 264.613 16.9759 263.978 15.9679C263.381 14.9226 262.429 14.3999 261.122 14.3999C260.226 14.3999 259.517 14.6986 258.994 15.2959C258.471 15.8559 258.135 16.8452 257.986 18.2639L257.874 18.8799C257.799 20.4852 257.407 21.6612 256.698 22.4079C255.989 23.1546 255.111 23.5279 254.066 23.5279C253.095 23.5279 252.293 23.2292 251.658 22.6319C251.023 22.0346 250.706 21.2319 250.706 20.2239C250.706 18.6932 251.229 17.4052 252.274 16.3599C253.357 15.3146 254.775 14.5306 256.53 14.0079C258.285 13.4852 260.189 13.2239 262.242 13.2239C265.565 13.2239 268.122 14.0452 269.914 15.6879C271.743 17.2932 272.658 19.9252 272.658 23.5839V35.9599C272.658 37.6399 273.442 38.4799 275.01 38.4799H276.242L276.746 38.9279C276.037 39.8239 275.253 40.5146 274.394 40.9999C273.573 41.4852 272.397 41.7279 270.866 41.7279C269.223 41.7279 267.917 41.3546 266.946 40.6079C266.013 39.8239 265.397 38.7972 265.098 37.5279C263.978 38.7226 262.821 39.7492 261.626 40.6079C260.469 41.4292 258.957 41.8399 257.09 41.8399ZM260.506 38.4239C261.253 38.4239 261.943 38.2559 262.578 37.9199C263.25 37.5466 264.034 36.9866 264.93 36.2399V26.8319C264.557 26.9066 264.183 26.9812 263.81 27.0559C263.437 27.1306 263.007 27.2052 262.522 27.2799C260.805 27.7279 259.423 28.4932 258.378 29.5759C257.37 30.6212 256.866 32.0399 256.866 33.8319C256.866 35.3626 257.221 36.5199 257.93 37.3039C258.639 38.0506 259.498 38.4239 260.506 38.4239ZM278.066 40.9999V40.4399L278.738 40.2159C280.082 39.7679 280.754 38.8346 280.754 37.4159V7.4559C280.754 6.70923 280.605 6.14923 280.306 5.7759C280.008 5.36523 279.485 5.06656 278.738 4.8799L278.01 4.7119V4.1519L288.258 1.7439L288.93 2.2479L288.706 10.0879V29.2399C288.706 30.6212 288.706 32.0026 288.706 33.3839C288.744 34.7279 288.762 36.0719 288.762 37.4159C288.762 38.1626 288.912 38.7786 289.21 39.2639C289.509 39.7119 290.013 40.0479 290.722 40.2719L291.45 40.4399V40.9999H278.066ZM303.61 41.8399C301.781 41.8399 300.138 41.6159 298.682 41.1679C297.226 40.7572 295.882 40.2346 294.65 39.5999L294.706 32.9359H295.266L297.17 36.2959C297.991 37.7892 298.887 38.9092 299.858 39.6559C300.866 40.3652 302.135 40.7199 303.666 40.7199C305.458 40.7199 306.895 40.3279 307.978 39.5439C309.098 38.7226 309.658 37.6399 309.658 36.2959C309.658 35.0639 309.266 34.0559 308.482 33.2719C307.698 32.4879 306.242 31.7786 304.114 31.1439L301.762 30.4159C299.485 29.7439 297.693 28.6986 296.386 27.2799C295.079 25.8612 294.426 24.1252 294.426 22.0719C294.426 19.6079 295.397 17.5172 297.338 15.7999C299.279 14.0826 302.061 13.2239 305.682 13.2239C307.138 13.2239 308.501 13.3919 309.77 13.7279C311.077 14.0266 312.327 14.4932 313.522 15.1279L313.186 21.1759H312.626L310.666 17.7039C309.957 16.4719 309.247 15.6132 308.538 15.1279C307.866 14.6052 306.839 14.3439 305.458 14.3439C304.189 14.3439 302.994 14.6986 301.874 15.4079C300.754 16.1172 300.194 17.1252 300.194 18.4319C300.194 19.7012 300.661 20.7092 301.594 21.4559C302.565 22.2026 303.983 22.8932 305.85 23.5279L308.37 24.2559C311.058 25.0772 312.981 26.2159 314.138 27.6719C315.295 29.0906 315.874 30.8079 315.874 32.8239C315.874 35.5492 314.791 37.7332 312.626 39.3759C310.498 41.0186 307.493 41.8399 303.61 41.8399Z"/>
</mask>
<path d="M9.616 40.9999V40.4399L11.912 39.8799C13.4427 39.5439 14.208 38.6106 14.208 37.0799V5.1599H9.448C8.06667 5.1599 7.07733 5.53323 6.48 6.2799C5.88267 6.98923 5.248 7.97856 4.576 9.2479L2.56 13.1679H2L2.28 4.0399H34.592L34.816 13.1679H34.256L32.24 9.2479C31.6053 7.97856 30.9893 6.98923 30.392 6.2799C29.7947 5.53323 28.8053 5.1599 27.424 5.1599H22.664V37.0799C22.664 38.6106 23.4293 39.5439 24.96 39.8799L27.256 40.4399V40.9999H9.616ZM46.8997 13.2239C49.3264 13.2239 51.3984 13.7279 53.1158 14.7359C54.8331 15.7066 56.1398 17.0506 57.0358 18.7679C57.9691 20.4479 58.4358 22.3706 58.4358 24.5359C58.4358 24.9466 58.4171 25.3759 58.3797 25.8239C58.3424 26.2346 58.2677 26.6079 58.1558 26.9439H41.4678C41.5051 30.9759 42.2144 33.8879 43.5957 35.6799C45.0144 37.4346 47.1051 38.3119 49.8677 38.3119C51.7344 38.3119 53.2464 38.0132 54.4038 37.4159C55.5611 36.8186 56.6438 35.9412 57.6518 34.7839L58.2118 35.2879C57.0544 37.3412 55.5051 38.9466 53.5638 40.1039C51.6598 41.2612 49.3638 41.8399 46.6758 41.8399C44.0251 41.8399 41.6731 41.2799 39.6198 40.1599C37.5664 39.0026 35.9611 37.3599 34.8037 35.2319C33.6464 33.1039 33.0677 30.5652 33.0677 27.6159C33.0677 24.5546 33.7398 21.9599 35.0838 19.8319C36.4278 17.6666 38.1451 16.0239 40.2358 14.9039C42.3638 13.7839 44.5851 13.2239 46.8997 13.2239ZM46.7318 14.3439C45.6491 14.3439 44.7158 14.6799 43.9318 15.3519C43.1851 15.9866 42.5878 17.1439 42.1398 18.8239C41.7291 20.4666 41.5051 22.7999 41.4678 25.8239H51.0438C51.4171 21.7546 51.2677 18.8239 50.5957 17.0319C49.9237 15.2399 48.6358 14.3439 46.7318 14.3439ZM70.9146 41.8399C69.0852 41.8399 67.4426 41.6159 65.9866 41.1679C64.5306 40.7572 63.1866 40.2346 61.9546 39.5999L62.0106 32.9359H62.5706L64.4746 36.2959C65.2959 37.7892 66.1919 38.9092 67.1626 39.6559C68.1706 40.3652 69.4399 40.7199 70.9706 40.7199C72.7626 40.7199 74.1999 40.3279 75.2826 39.5439C76.4026 38.7226 76.9626 37.6399 76.9626 36.2959C76.9626 35.0639 76.5706 34.0559 75.7866 33.2719C75.0026 32.4879 73.5466 31.7786 71.4186 31.1439L69.0666 30.4159C66.7892 29.7439 64.9972 28.6986 63.6906 27.2799C62.3839 25.8612 61.7306 24.1252 61.7306 22.0719C61.7306 19.6079 62.7012 17.5172 64.6426 15.7999C66.5839 14.0826 69.3652 13.2239 72.9866 13.2239C74.4426 13.2239 75.8052 13.3919 77.0746 13.7279C78.3812 14.0266 79.6319 14.4932 80.8266 15.1279L80.4906 21.1759H79.9306L77.9706 17.7039C77.2612 16.4719 76.5519 15.6132 75.8426 15.1279C75.1706 14.6052 74.1439 14.3439 72.7626 14.3439C71.4932 14.3439 70.2986 14.6986 69.1786 15.4079C68.0586 16.1172 67.4986 17.1252 67.4986 18.4319C67.4986 19.7012 67.9652 20.7092 68.8986 21.4559C69.8692 22.2026 71.2879 22.8932 73.1546 23.5279L75.6746 24.2559C78.3626 25.0772 80.2852 26.2159 81.4426 27.6719C82.5999 29.0906 83.1786 30.8079 83.1786 32.8239C83.1786 35.5492 82.0959 37.7332 79.9306 39.3759C77.8026 41.0186 74.7972 41.8399 70.9146 41.8399ZM96.2572 41.8399C93.8679 41.8399 92.0012 41.2426 90.6572 40.0479C89.3505 38.8532 88.6972 36.9492 88.6972 34.3359V15.1839H84.8332V14.6239L86.1772 14.3999C87.3345 14.1386 88.3239 13.7652 89.1452 13.2799C90.0039 12.7946 90.8439 12.1412 91.6652 11.3199L96.2572 6.2239H96.8172L96.6492 14.0639H102.921V15.1839H96.5932V35.3439C96.5932 36.6506 96.8732 37.6399 97.4332 38.3119C98.0305 38.9839 98.7772 39.3199 99.6732 39.3199C100.457 39.3199 101.148 39.1332 101.745 38.7599C102.343 38.3492 102.94 37.8079 103.537 37.1359L104.097 37.6959C103.351 38.9652 102.324 39.9732 101.017 40.7199C99.7105 41.4666 98.1239 41.8399 96.2572 41.8399ZM112.572 10.3119C111.302 10.3119 110.22 9.9199 109.324 9.1359C108.465 8.31456 108.036 7.2879 108.036 6.0559C108.036 4.78656 108.465 3.7599 109.324 2.9759C110.22 2.1919 111.302 1.7999 112.572 1.7999C113.841 1.7999 114.905 2.1919 115.764 2.9759C116.622 3.7599 117.052 4.78656 117.052 6.0559C117.052 7.2879 116.622 8.31456 115.764 9.1359C114.905 9.9199 113.841 10.3119 112.572 10.3119ZM105.964 40.9999V40.4399L106.748 40.2159C107.494 39.9919 107.998 39.6559 108.26 39.2079C108.558 38.7599 108.708 38.1626 108.708 37.4159V19.8879C108.708 19.1039 108.558 18.5252 108.26 18.1519C107.998 17.7412 107.494 17.4612 106.748 17.3119L105.964 17.1439V16.5839L116.212 13.2799L116.772 13.8399L116.604 21.7919V37.4719C116.604 38.2186 116.734 38.8159 116.996 39.2639C117.294 39.7119 117.798 40.0479 118.508 40.2719L119.068 40.4399V40.9999H105.964ZM121.547 40.9999V40.4399L122.331 40.2159C123.04 40.0292 123.526 39.7119 123.787 39.2639C124.086 38.8159 124.254 38.2186 124.291 37.4719V19.9439C124.291 19.1226 124.16 18.5252 123.899 18.1519C123.638 17.7412 123.134 17.4612 122.387 17.3119L121.547 17.0879V16.5279L131.123 13.2799L131.683 13.8399L132.131 17.6479C133.363 16.4159 134.763 15.3706 136.331 14.5119C137.936 13.6532 139.598 13.2239 141.315 13.2239C143.107 13.2239 144.544 13.5972 145.627 14.3439C146.71 15.0532 147.531 16.1732 148.091 17.7039C149.547 16.3226 151.115 15.2399 152.795 14.4559C154.512 13.6346 156.174 13.2239 157.779 13.2239C160.43 13.2239 162.371 13.8586 163.603 15.1279C164.872 16.3972 165.507 18.3946 165.507 21.1199V37.5279C165.507 38.9839 166.179 39.8986 167.523 40.2719L168.139 40.4399V40.9999H155.203V40.4399L155.763 40.2719C156.472 40.0479 156.958 39.7119 157.219 39.2639C157.518 38.8159 157.667 38.2186 157.667 37.4719V20.3359C157.667 18.7679 157.387 17.7039 156.827 17.1439C156.267 16.5466 155.371 16.2479 154.139 16.2479C153.168 16.2479 152.216 16.4719 151.283 16.9199C150.387 17.3306 149.435 17.9652 148.427 18.8239C148.614 19.4212 148.726 20.0746 148.763 20.7839C148.838 21.4932 148.875 22.2399 148.875 23.0239V37.5279C148.912 38.9839 149.584 39.8986 150.891 40.2719L151.395 40.4399V40.9999H138.403V40.4399L139.187 40.2159C139.896 39.9919 140.382 39.6746 140.643 39.2639C140.942 38.8159 141.091 38.2186 141.091 37.4719V20.3919C141.091 18.8986 140.811 17.8346 140.251 17.1999C139.728 16.5652 138.814 16.2479 137.507 16.2479C136.648 16.2479 135.79 16.4719 134.931 16.9199C134.072 17.3306 133.176 17.9466 132.243 18.7679V37.5279C132.243 38.9839 132.896 39.8986 134.203 40.2719L134.707 40.4399V40.9999H121.547ZM184.496 41.8399C181.659 41.8399 179.195 41.2612 177.104 40.1039C175.013 38.9092 173.389 37.2292 172.232 35.0639C171.112 32.8986 170.552 30.3599 170.552 27.4479C170.552 24.5359 171.149 22.0159 172.344 19.8879C173.576 17.7599 175.237 16.1172 177.328 14.9599C179.456 13.8026 181.845 13.2239 184.496 13.2239C187.147 13.2239 189.517 13.8026 191.608 14.9599C193.699 16.0799 195.341 17.7039 196.536 19.8319C197.768 21.9599 198.384 24.4986 198.384 27.4479C198.384 30.3972 197.805 32.9546 196.648 35.1199C195.528 37.2479 193.923 38.9092 191.832 40.1039C189.779 41.2612 187.333 41.8399 184.496 41.8399ZM184.496 40.7199C185.803 40.7199 186.848 40.3466 187.632 39.5999C188.416 38.8532 188.976 37.5279 189.312 35.6239C189.685 33.7199 189.872 31.0319 189.872 27.5599C189.872 24.0506 189.685 21.3439 189.312 19.4399C188.976 17.5359 188.416 16.2106 187.632 15.4639C186.848 14.7172 185.803 14.3439 184.496 14.3439C183.189 14.3439 182.125 14.7172 181.304 15.4639C180.52 16.2106 179.941 17.5359 179.568 19.4399C179.232 21.3439 179.064 24.0506 179.064 27.5599C179.064 31.0319 179.232 33.7199 179.568 35.6239C179.941 37.5279 180.52 38.8532 181.304 39.5999C182.125 40.3466 183.189 40.7199 184.496 40.7199ZM200.844 40.9999V40.4399L201.628 40.2159C202.934 39.8426 203.588 38.9279 203.588 37.4719V19.9439C203.588 19.1226 203.457 18.5252 203.196 18.1519C202.934 17.7412 202.43 17.4612 201.684 17.3119L200.844 17.0879V16.5279L210.42 13.2799L210.98 13.8399L211.428 17.1999C212.734 16.0426 214.209 15.0906 215.852 14.3439C217.494 13.5972 219.118 13.2239 220.724 13.2239C223.188 13.2239 225.073 13.8959 226.38 15.2399C227.724 16.5839 228.396 18.6372 228.396 21.3999V37.5279C228.396 38.9839 229.105 39.8986 230.524 40.2719L231.028 40.4399V40.9999H217.812V40.4399L218.54 40.2159C219.846 39.8052 220.5 38.8906 220.5 37.4719V19.6079C220.5 17.2186 219.305 16.0239 216.916 16.0239C215.273 16.0239 213.481 16.8452 211.54 18.4879V37.5279C211.54 38.9839 212.193 39.8986 213.5 40.2719L214.004 40.4399V40.9999H200.844ZM239.939 10.3119C238.669 10.3119 237.587 9.9199 236.691 9.1359C235.832 8.31456 235.403 7.2879 235.403 6.0559C235.403 4.78656 235.832 3.7599 236.691 2.9759C237.587 2.1919 238.669 1.7999 239.939 1.7999C241.208 1.7999 242.272 2.1919 243.131 2.9759C243.989 3.7599 244.419 4.78656 244.419 6.0559C244.419 7.2879 243.989 8.31456 243.131 9.1359C242.272 9.9199 241.208 10.3119 239.939 10.3119ZM233.331 40.9999V40.4399L234.115 40.2159C234.861 39.9919 235.365 39.6559 235.627 39.2079C235.925 38.7599 236.075 38.1626 236.075 37.4159V19.8879C236.075 19.1039 235.925 18.5252 235.627 18.1519C235.365 17.7412 234.861 17.4612 234.115 17.3119L233.331 17.1439V16.5839L243.579 13.2799L244.139 13.8399L243.971 21.7919V37.4719C243.971 38.2186 244.101 38.8159 244.363 39.2639C244.661 39.7119 245.165 40.0479 245.875 40.2719L246.435 40.4399V40.9999H233.331ZM257.09 41.8399C254.925 41.8399 253.095 41.2239 251.602 39.9919C250.146 38.7599 249.418 36.9866 249.418 34.6719C249.418 32.9172 250.314 31.3119 252.106 29.8559C253.898 28.3626 256.717 27.2426 260.562 26.4959C261.159 26.3839 261.831 26.2719 262.578 26.1599C263.325 26.0106 264.109 25.8612 264.93 25.7119V21.2879C264.93 18.7492 264.613 16.9759 263.978 15.9679C263.381 14.9226 262.429 14.3999 261.122 14.3999C260.226 14.3999 259.517 14.6986 258.994 15.2959C258.471 15.8559 258.135 16.8452 257.986 18.2639L257.874 18.8799C257.799 20.4852 257.407 21.6612 256.698 22.4079C255.989 23.1546 255.111 23.5279 254.066 23.5279C253.095 23.5279 252.293 23.2292 251.658 22.6319C251.023 22.0346 250.706 21.2319 250.706 20.2239C250.706 18.6932 251.229 17.4052 252.274 16.3599C253.357 15.3146 254.775 14.5306 256.53 14.0079C258.285 13.4852 260.189 13.2239 262.242 13.2239C265.565 13.2239 268.122 14.0452 269.914 15.6879C271.743 17.2932 272.658 19.9252 272.658 23.5839V35.9599C272.658 37.6399 273.442 38.4799 275.01 38.4799H276.242L276.746 38.9279C276.037 39.8239 275.253 40.5146 274.394 40.9999C273.573 41.4852 272.397 41.7279 270.866 41.7279C269.223 41.7279 267.917 41.3546 266.946 40.6079C266.013 39.8239 265.397 38.7972 265.098 37.5279C263.978 38.7226 262.821 39.7492 261.626 40.6079C260.469 41.4292 258.957 41.8399 257.09 41.8399ZM260.506 38.4239C261.253 38.4239 261.943 38.2559 262.578 37.9199C263.25 37.5466 264.034 36.9866 264.93 36.2399V26.8319C264.557 26.9066 264.183 26.9812 263.81 27.0559C263.437 27.1306 263.007 27.2052 262.522 27.2799C260.805 27.7279 259.423 28.4932 258.378 29.5759C257.37 30.6212 256.866 32.0399 256.866 33.8319C256.866 35.3626 257.221 36.5199 257.93 37.3039C258.639 38.0506 259.498 38.4239 260.506 38.4239ZM278.066 40.9999V40.4399L278.738 40.2159C280.082 39.7679 280.754 38.8346 280.754 37.4159V7.4559C280.754 6.70923 280.605 6.14923 280.306 5.7759C280.008 5.36523 279.485 5.06656 278.738 4.8799L278.01 4.7119V4.1519L288.258 1.7439L288.93 2.2479L288.706 10.0879V29.2399C288.706 30.6212 288.706 32.0026 288.706 33.3839C288.744 34.7279 288.762 36.0719 288.762 37.4159C288.762 38.1626 288.912 38.7786 289.21 39.2639C289.509 39.7119 290.013 40.0479 290.722 40.2719L291.45 40.4399V40.9999H278.066ZM303.61 41.8399C301.781 41.8399 300.138 41.6159 298.682 41.1679C297.226 40.7572 295.882 40.2346 294.65 39.5999L294.706 32.9359H295.266L297.17 36.2959C297.991 37.7892 298.887 38.9092 299.858 39.6559C300.866 40.3652 302.135 40.7199 303.666 40.7199C305.458 40.7199 306.895 40.3279 307.978 39.5439C309.098 38.7226 309.658 37.6399 309.658 36.2959C309.658 35.0639 309.266 34.0559 308.482 33.2719C307.698 32.4879 306.242 31.7786 304.114 31.1439L301.762 30.4159C299.485 29.7439 297.693 28.6986 296.386 27.2799C295.079 25.8612 294.426 24.1252 294.426 22.0719C294.426 19.6079 295.397 17.5172 297.338 15.7999C299.279 14.0826 302.061 13.2239 305.682 13.2239C307.138 13.2239 308.501 13.3919 309.77 13.7279C311.077 14.0266 312.327 14.4932 313.522 15.1279L313.186 21.1759H312.626L310.666 17.7039C309.957 16.4719 309.247 15.6132 308.538 15.1279C307.866 14.6052 306.839 14.3439 305.458 14.3439C304.189 14.3439 302.994 14.6986 301.874 15.4079C300.754 16.1172 300.194 17.1252 300.194 18.4319C300.194 19.7012 300.661 20.7092 301.594 21.4559C302.565 22.2026 303.983 22.8932 305.85 23.5279L308.37 24.2559C311.058 25.0772 312.981 26.2159 314.138 27.6719C315.295 29.0906 315.874 30.8079 315.874 32.8239C315.874 35.5492 314.791 37.7332 312.626 39.3759C310.498 41.0186 307.493 41.8399 303.61 41.8399Z" stroke="url(#paint0_linear_1920_1382)" stroke-width="2" mask="url(#path-1-outside-1_1920_1382)"/>
</g>
<defs>
<linearGradient id="paint0_linear_1920_1382" x1="159.036" y1="-10" x2="159.036" y2="52" gradientUnits="userSpaceOnUse">
<stop stop-color="#C9037D"/>
<stop offset="0.365561" stop-color="#6814EC"/>
<stop offset="0.827621" stop-color="#0C041A"/>
</linearGradient>
</defs>
</svg>
