<svg width="780" height="278" viewBox="0 0 780 278" fill="none" xmlns="http://www.w3.org/2000/svg">
<g opacity="0.5">
<mask id="path-1-outside-1_1941_4655" maskUnits="userSpaceOnUse" x="0.300049" y="-0.149902" width="779" height="278" fill="black">
<rect fill="white" x="0.300049" y="-0.149902" width="779" height="278"/>
<path d="M2.30005 108V106.5L5.75005 105.15C7.45005 104.45 8.60005 103.55 9.20005 102.45C9.90005 101.25 10.25 99.6501 10.25 97.6501V19.3501C10.25 17.3501 9.95005 15.8001 9.35005 14.7001C8.85005 13.5001 7.65005 12.5501 5.75005 11.8501L2.30005 10.5001V9.0001H74.1501L75.0501 32.1001H73.55L67.1001 18.0001C66.2001 16.2001 65.2501 14.7501 64.2501 13.6501C63.2501 12.5501 61.7501 12.0001 59.7501 12.0001H32.75V55.3501H48.8001C50.8001 55.3501 52.3001 54.8501 53.3001 53.8501C54.4001 52.7501 55.3501 51.3001 56.1501 49.5001L59.1501 43.5001H60.6501V70.5001H59.1501L56.1501 64.2001C55.2501 62.4001 54.3001 61.0001 53.3001 60.0001C52.3001 58.9001 50.8001 58.3501 48.8001 58.3501H32.75V105H63.0501C65.0501 105 66.6 104.5 67.7001 103.5C68.8 102.4 69.7 100.9 70.4 99.0001L76.55 84.9001H78.05L77.1501 108H2.30005ZM85.2032 108V106.5L87.3032 105.9C90.8032 104.9 92.5532 102.45 92.5532 98.5501V51.6001C92.5532 49.4001 92.2032 47.8001 91.5032 46.8001C90.8032 45.7001 89.4532 44.9501 87.4532 44.5501L85.2032 43.9501V42.4501L110.853 33.7501L112.353 35.2501L113.553 44.2501C117.053 41.1501 121.003 38.6001 125.403 36.6001C129.803 34.6001 134.153 33.6001 138.453 33.6001C145.053 33.6001 150.103 35.4001 153.603 39.0001C157.203 42.6001 159.003 48.1001 159.003 55.5001V98.7001C159.003 102.6 160.903 105.05 164.703 106.05L166.053 106.5V108H130.653V106.5L132.603 105.9C136.103 104.8 137.853 102.35 137.853 98.5501V50.7001C137.853 44.3001 134.653 41.1001 128.253 41.1001C123.853 41.1001 119.053 43.3001 113.853 47.7001V98.7001C113.853 102.6 115.603 105.05 119.103 106.05L120.453 106.5V108H85.2032ZM203.722 110.25C197.822 110.25 192.522 108.95 187.822 106.35C183.122 103.65 179.372 99.5501 176.572 94.0501C173.872 88.4501 172.522 81.3001 172.522 72.6001C172.522 63.8001 174.072 56.5501 177.172 50.8501C180.272 45.0501 184.372 40.7501 189.472 37.9501C194.572 35.0501 200.122 33.6001 206.122 33.6001C209.622 33.6001 212.972 33.9501 216.172 34.6501C219.372 35.3501 222.222 36.4001 224.722 37.8001V18.3001C224.722 16.2001 224.372 14.6501 223.672 13.6501C223.072 12.6501 221.722 11.9501 219.622 11.5501L216.772 10.9501V9.4501L244.072 2.8501L245.722 4.2001L245.122 25.2001V98.5501C245.122 100.55 245.472 102.2 246.172 103.5C246.872 104.7 248.172 105.55 250.072 106.05L251.422 106.5V108L225.772 109.65L224.422 104.25C221.722 106.05 218.622 107.5 215.122 108.6C211.722 109.7 207.922 110.25 203.722 110.25ZM212.422 104.7C216.622 104.7 220.472 103.45 223.972 100.95V41.4001C220.272 39.0001 216.472 37.8001 212.572 37.8001C207.772 37.8001 203.672 40.6001 200.272 46.2001C196.872 51.7001 195.172 60.4001 195.172 72.3001C195.172 84.2001 196.772 92.6001 199.972 97.5001C203.172 102.3 207.322 104.7 212.422 104.7ZM260.176 72.0001V67.9501H297.976V72.0001H260.176ZM335.481 110.25C329.081 110.25 324.081 108.65 320.481 105.45C316.981 102.25 315.231 97.1501 315.231 90.1501V38.8501H304.881V37.3501L308.481 36.7501C311.581 36.0501 314.231 35.0501 316.431 33.7501C318.731 32.4501 320.981 30.7001 323.181 28.5001L335.481 14.8501H336.981L336.531 35.8501H353.331V38.8501H336.381V92.8501C336.381 96.3501 337.131 99.0001 338.631 100.8C340.231 102.6 342.231 103.5 344.631 103.5C346.731 103.5 348.581 103 350.181 102C351.781 100.9 353.381 99.4501 354.981 97.6501L356.481 99.1501C354.481 102.55 351.731 105.25 348.231 107.25C344.731 109.25 340.481 110.25 335.481 110.25ZM398.69 110.25C391.09 110.25 384.49 108.7 378.89 105.6C373.29 102.4 368.94 97.9001 365.84 92.1001C362.84 86.3001 361.34 79.5001 361.34 71.7001C361.34 63.9001 362.94 57.1501 366.14 51.4501C369.44 45.7501 373.89 41.3501 379.49 38.2501C385.19 35.1501 391.59 33.6001 398.69 33.6001C405.79 33.6001 412.14 35.1501 417.74 38.2501C423.34 41.2501 427.74 45.6001 430.94 51.3001C434.24 57.0001 435.89 63.8001 435.89 71.7001C435.89 79.6001 434.34 86.4501 431.24 92.2501C428.24 97.9501 423.94 102.4 418.34 105.6C412.84 108.7 406.29 110.25 398.69 110.25ZM398.69 107.25C402.19 107.25 404.99 106.25 407.09 104.25C409.19 102.25 410.69 98.7001 411.59 93.6001C412.59 88.5001 413.09 81.3001 413.09 72.0001C413.09 62.6001 412.59 55.3501 411.59 50.2501C410.69 45.1501 409.19 41.6001 407.09 39.6001C404.99 37.6001 402.19 36.6001 398.69 36.6001C395.19 36.6001 392.34 37.6001 390.14 39.6001C388.04 41.6001 386.49 45.1501 385.49 50.2501C384.59 55.3501 384.14 62.6001 384.14 72.0001C384.14 81.3001 384.59 88.5001 385.49 93.6001C386.49 98.7001 388.04 102.25 390.14 104.25C392.34 106.25 395.19 107.25 398.69 107.25ZM446.065 72.0001V67.9501H483.865V72.0001H446.065ZM493.169 108V106.5L496.619 105.15C498.319 104.45 499.469 103.55 500.069 102.45C500.769 101.25 501.119 99.6501 501.119 97.6501V19.3501C501.119 17.3501 500.819 15.8001 500.219 14.7001C499.719 13.5001 498.519 12.5501 496.619 11.8501L493.169 10.5001V9.0001H565.019L565.919 32.1001H564.419L557.969 18.0001C557.069 16.2001 556.119 14.7501 555.119 13.6501C554.119 12.5501 552.619 12.0001 550.619 12.0001H523.619V55.3501H539.669C541.669 55.3501 543.169 54.8501 544.169 53.8501C545.269 52.7501 546.219 51.3001 547.019 49.5001L550.019 43.5001H551.519V70.5001H550.019L547.019 64.2001C546.119 62.4001 545.169 61.0001 544.169 60.0001C543.169 58.9001 541.669 58.3501 539.669 58.3501H523.619V105H553.919C555.919 105 557.469 104.5 558.569 103.5C559.669 102.4 560.569 100.9 561.269 99.0001L567.419 84.9001H568.919L568.019 108H493.169ZM576.072 108V106.5L578.172 105.9C581.672 104.9 583.422 102.45 583.422 98.5501V51.6001C583.422 49.4001 583.072 47.8001 582.372 46.8001C581.672 45.7001 580.322 44.9501 578.322 44.5501L576.072 43.9501V42.4501L601.722 33.7501L603.222 35.2501L604.422 44.2501C607.922 41.1501 611.872 38.6001 616.272 36.6001C620.672 34.6001 625.022 33.6001 629.322 33.6001C635.922 33.6001 640.972 35.4001 644.472 39.0001C648.072 42.6001 649.872 48.1001 649.872 55.5001V98.7001C649.872 102.6 651.772 105.05 655.572 106.05L656.922 106.5V108H621.522V106.5L623.472 105.9C626.972 104.8 628.722 102.35 628.722 98.5501V50.7001C628.722 44.3001 625.522 41.1001 619.122 41.1001C614.722 41.1001 609.922 43.3001 604.722 47.7001V98.7001C604.722 102.6 606.472 105.05 609.972 106.05L611.322 106.5V108H576.072ZM694.591 110.25C688.691 110.25 683.391 108.95 678.691 106.35C673.991 103.65 670.241 99.5501 667.441 94.0501C664.741 88.4501 663.391 81.3001 663.391 72.6001C663.391 63.8001 664.941 56.5501 668.041 50.8501C671.141 45.0501 675.241 40.7501 680.341 37.9501C685.441 35.0501 690.991 33.6001 696.991 33.6001C700.491 33.6001 703.841 33.9501 707.041 34.6501C710.241 35.3501 713.091 36.4001 715.591 37.8001V18.3001C715.591 16.2001 715.241 14.6501 714.541 13.6501C713.941 12.6501 712.591 11.9501 710.491 11.5501L707.641 10.9501V9.4501L734.941 2.8501L736.591 4.2001L735.991 25.2001V98.5501C735.991 100.55 736.341 102.2 737.041 103.5C737.741 104.7 739.041 105.55 740.941 106.05L742.291 106.5V108L716.641 109.65L715.291 104.25C712.591 106.05 709.491 107.5 705.991 108.6C702.591 109.7 698.791 110.25 694.591 110.25ZM703.291 104.7C707.491 104.7 711.341 103.45 714.841 100.95V41.4001C711.141 39.0001 707.341 37.8001 703.441 37.8001C698.641 37.8001 694.541 40.6001 691.141 46.2001C687.741 51.7001 686.041 60.4001 686.041 72.3001C686.041 84.2001 687.641 92.6001 690.841 97.5001C694.041 102.3 698.191 104.7 703.291 104.7Z"/>
<path d="M34.5501 275.7C29.0501 275.7 23.45 275 17.75 273.6C12.05 272.3 7.30005 270.55 3.50005 268.35L4.25005 247.95H5.75005L10.4 257.7C11.8 260.5 13.3 263 14.9 265.2C16.5 267.3 18.7 268.95 21.5 270.15C23.5 271.15 25.4 271.85 27.2001 272.25C29.1001 272.55 31.2001 272.7 33.5 272.7C39.6 272.7 44.4001 271.05 47.9001 267.75C51.5001 264.45 53.3001 260.2 53.3001 255C53.3001 250.1 52.1001 246.3 49.7001 243.6C47.3001 240.8 43.4501 238.1 38.1501 235.5L32.0001 232.8C23.4001 229 16.65 224.65 11.75 219.75C6.95005 214.75 4.55005 208.15 4.55005 199.95C4.55005 194.05 6.05005 188.95 9.05005 184.65C12.15 180.35 16.4001 177.05 21.8001 174.75C27.3001 172.45 33.7001 171.3 41 171.3C46.3 171.3 51.3001 172 56.0001 173.4C60.8001 174.8 64.9501 176.7 68.4501 179.1L67.55 197.1H66.0501L59.9001 185.85C58.2001 182.35 56.5001 179.9 54.8 178.5C53.1 177 51.1501 175.95 48.9501 175.35C47.6501 174.95 46.4501 174.7 45.3501 174.6C44.2501 174.4 42.8501 174.3 41.1501 174.3C36.05 174.3 31.75 175.8 28.25 178.8C24.75 181.7 23 185.65 23 190.65C23 195.75 24.35 199.85 27.05 202.95C29.75 205.95 33.7 208.65 38.9 211.05L45.8 214.05C55.4001 218.25 62.3001 222.75 66.5001 227.55C70.7001 232.25 72.8 238.35 72.8 245.85C72.8 254.65 69.45 261.85 62.75 267.45C56.1501 272.95 46.7501 275.7 34.5501 275.7ZM107.258 275.25C100.858 275.25 95.8579 273.65 92.2579 270.45C88.7579 267.25 87.0079 262.15 87.0079 255.15V203.85H76.6579V202.35L80.2579 201.75C83.3579 201.05 86.0079 200.05 88.2079 198.75C90.5079 197.45 92.7579 195.7 94.9579 193.5L107.258 179.85H108.758L108.308 200.85H125.108V203.85H108.158V257.85C108.158 261.35 108.908 264 110.408 265.8C112.008 267.6 114.008 268.5 116.408 268.5C118.508 268.5 120.358 268 121.958 267C123.558 265.9 125.158 264.45 126.758 262.65L128.258 264.15C126.258 267.55 123.508 270.25 120.008 272.25C116.508 274.25 112.258 275.25 107.258 275.25ZM154.857 275.25C149.057 275.25 144.157 273.6 140.157 270.3C136.257 267 134.307 262.25 134.307 256.05C134.307 251.35 136.707 247.05 141.507 243.15C146.307 239.15 153.857 236.15 164.157 234.15C165.757 233.85 167.557 233.55 169.557 233.25C171.557 232.85 173.657 232.45 175.857 232.05V220.2C175.857 213.4 175.007 208.65 173.307 205.95C171.707 203.15 169.157 201.75 165.657 201.75C163.257 201.75 161.357 202.55 159.957 204.15C158.557 205.65 157.657 208.3 157.257 212.1L156.957 213.75C156.757 218.05 155.707 221.2 153.807 223.2C151.907 225.2 149.557 226.2 146.757 226.2C144.157 226.2 142.007 225.4 140.307 223.8C138.607 222.2 137.757 220.05 137.757 217.35C137.757 213.25 139.157 209.8 141.957 207C144.857 204.2 148.657 202.1 153.357 200.7C158.057 199.3 163.157 198.6 168.657 198.6C177.557 198.6 184.407 200.8 189.207 205.2C194.107 209.5 196.557 216.55 196.557 226.35V259.5C196.557 264 198.657 266.25 202.857 266.25H206.157L207.507 267.45C205.607 269.85 203.507 271.7 201.207 273C199.007 274.3 195.857 274.95 191.757 274.95C187.357 274.95 183.857 273.95 181.257 271.95C178.757 269.85 177.107 267.1 176.307 263.7C173.307 266.9 170.207 269.65 167.007 271.95C163.907 274.15 159.857 275.25 154.857 275.25ZM164.007 266.1C166.007 266.1 167.857 265.65 169.557 264.75C171.357 263.75 173.457 262.25 175.857 260.25V235.05C174.857 235.25 173.857 235.45 172.857 235.65C171.857 235.85 170.707 236.05 169.407 236.25C164.807 237.45 161.107 239.5 158.307 242.4C155.607 245.2 154.257 249 154.257 253.8C154.257 257.9 155.207 261 157.107 263.1C159.007 265.1 161.307 266.1 164.007 266.1ZM210.301 273V271.5L212.551 270.9C214.551 270.3 215.901 269.4 216.601 268.2C217.401 267 217.801 265.45 217.801 263.55V216.6C217.801 214.4 217.401 212.8 216.601 211.8C215.901 210.7 214.551 209.95 212.551 209.55L210.301 208.95V207.45L236.101 198.75L237.601 200.25L238.951 213.15V214.35C240.351 211.55 242.151 209 244.351 206.7C246.651 204.3 249.151 202.35 251.851 200.85C254.651 199.35 257.401 198.6 260.101 198.6C263.901 198.6 266.801 199.65 268.801 201.75C270.801 203.85 271.801 206.5 271.801 209.7C271.801 213.1 270.801 215.75 268.801 217.65C266.901 219.45 264.601 220.35 261.901 220.35C257.701 220.35 254.001 218.25 250.801 214.05L250.501 213.75C249.501 212.35 248.351 211.6 247.051 211.5C245.751 211.3 244.551 211.9 243.451 213.3C242.451 214.2 241.601 215.3 240.901 216.6C240.301 217.8 239.701 219.2 239.101 220.8V262.65C239.101 266.65 240.851 269.15 244.351 270.15L249.151 271.5V273H210.301ZM306.33 275.25C299.93 275.25 294.93 273.65 291.33 270.45C287.83 267.25 286.08 262.15 286.08 255.15V203.85H275.73V202.35L279.33 201.75C282.43 201.05 285.08 200.05 287.28 198.75C289.58 197.45 291.83 195.7 294.03 193.5L306.33 179.85H307.83L307.38 200.85H324.18V203.85H307.23V257.85C307.23 261.35 307.98 264 309.48 265.8C311.08 267.6 313.08 268.5 315.48 268.5C317.58 268.5 319.43 268 321.03 267C322.63 265.9 324.23 264.45 325.83 262.65L327.33 264.15C325.33 267.55 322.58 270.25 319.08 272.25C315.58 274.25 311.33 275.25 306.33 275.25ZM358.858 275.25C353.958 275.25 349.558 274.65 345.658 273.45C341.758 272.35 338.158 270.95 334.858 269.25L335.008 251.4H336.508L341.608 260.4C343.808 264.4 346.208 267.4 348.808 269.4C351.508 271.3 354.908 272.25 359.008 272.25C363.808 272.25 367.658 271.2 370.558 269.1C373.558 266.9 375.058 264 375.058 260.4C375.058 257.1 374.008 254.4 371.908 252.3C369.808 250.2 365.908 248.3 360.208 246.6L353.908 244.65C347.808 242.85 343.008 240.05 339.508 236.25C336.008 232.45 334.258 227.8 334.258 222.3C334.258 215.7 336.858 210.1 342.058 205.5C347.258 200.9 354.708 198.6 364.408 198.6C368.308 198.6 371.958 199.05 375.358 199.95C378.858 200.75 382.208 202 385.408 203.7L384.508 219.9H383.008L377.758 210.6C375.858 207.3 373.958 205 372.058 203.7C370.258 202.3 367.508 201.6 363.808 201.6C360.408 201.6 357.208 202.55 354.208 204.45C351.208 206.35 349.708 209.05 349.708 212.55C349.708 215.95 350.958 218.65 353.458 220.65C356.058 222.65 359.858 224.5 364.858 226.2L371.608 228.15C378.808 230.35 383.958 233.4 387.058 237.3C390.158 241.1 391.708 245.7 391.708 251.1C391.708 258.4 388.808 264.25 383.008 268.65C377.308 273.05 369.258 275.25 358.858 275.25ZM431.206 273V271.5L434.206 270.3C436.206 269.6 437.506 268.65 438.106 267.45C438.806 266.25 439.156 264.7 439.156 262.8V184.35C439.156 182.35 438.806 180.75 438.106 179.55C437.506 178.35 436.206 177.4 434.206 176.7L431.206 175.5V174H469.306V175.5L466.756 176.55C464.856 177.25 463.556 178.2 462.856 179.4C462.156 180.5 461.806 182.05 461.806 184.05V220.5H497.656V184.05C497.656 182.05 497.306 180.5 496.606 179.4C496.006 178.2 494.706 177.25 492.706 176.55L490.006 175.5V174H528.256V175.5L525.256 176.7C523.356 177.4 522.056 178.35 521.356 179.55C520.656 180.75 520.306 182.35 520.306 184.35V262.8C520.306 264.7 520.656 266.25 521.356 267.45C522.056 268.65 523.356 269.6 525.256 270.3L528.256 271.5V273H490.006V271.5L492.706 270.6C494.706 269.8 496.006 268.85 496.606 267.75C497.306 266.55 497.656 264.95 497.656 262.95V223.5H461.806V262.95C461.806 266.65 463.456 269.2 466.756 270.6L469.306 271.5V273H431.206ZM568.312 198.6C574.812 198.6 580.362 199.95 584.962 202.65C589.562 205.25 593.062 208.85 595.462 213.45C597.962 217.95 599.212 223.1 599.212 228.9C599.212 230 599.162 231.15 599.062 232.35C598.962 233.45 598.762 234.45 598.462 235.35H553.762C553.862 246.15 555.762 253.95 559.462 258.75C563.262 263.45 568.862 265.8 576.262 265.8C581.262 265.8 585.312 265 588.412 263.4C591.512 261.8 594.412 259.45 597.112 256.35L598.612 257.7C595.512 263.2 591.362 267.5 586.162 270.6C581.062 273.7 574.912 275.25 567.712 275.25C560.612 275.25 554.312 273.75 548.812 270.75C543.312 267.65 539.012 263.25 535.912 257.55C532.812 251.85 531.262 245.05 531.262 237.15C531.262 228.95 533.062 222 536.662 216.3C540.262 210.5 544.862 206.1 550.462 203.1C556.162 200.1 562.112 198.6 568.312 198.6ZM567.862 201.6C564.962 201.6 562.462 202.5 560.362 204.3C558.362 206 556.762 209.1 555.562 213.6C554.462 218 553.862 224.25 553.762 232.35H579.412C580.412 221.45 580.012 213.6 578.212 208.8C576.412 204 572.962 201.6 567.862 201.6ZM606.688 273V271.5L608.938 270.9C610.938 270.3 612.288 269.4 612.988 268.2C613.788 267 614.188 265.45 614.188 263.55V216.6C614.188 214.4 613.788 212.8 612.988 211.8C612.288 210.7 610.938 209.95 608.938 209.55L606.688 208.95V207.45L632.488 198.75L633.988 200.25L635.338 213.15V214.35C636.738 211.55 638.538 209 640.738 206.7C643.038 204.3 645.538 202.35 648.238 200.85C651.038 199.35 653.788 198.6 656.488 198.6C660.288 198.6 663.188 199.65 665.188 201.75C667.188 203.85 668.188 206.5 668.188 209.7C668.188 213.1 667.188 215.75 665.188 217.65C663.288 219.45 660.988 220.35 658.288 220.35C654.088 220.35 650.388 218.25 647.188 214.05L646.888 213.75C645.888 212.35 644.738 211.6 643.438 211.5C642.138 211.3 640.938 211.9 639.838 213.3C638.838 214.2 637.988 215.3 637.288 216.6C636.688 217.8 636.088 219.2 635.488 220.8V262.65C635.488 266.65 637.238 269.15 640.738 270.15L645.538 271.5V273H606.688ZM708.205 198.6C714.705 198.6 720.255 199.95 724.855 202.65C729.455 205.25 732.955 208.85 735.355 213.45C737.855 217.95 739.105 223.1 739.105 228.9C739.105 230 739.055 231.15 738.955 232.35C738.855 233.45 738.655 234.45 738.355 235.35H693.655C693.755 246.15 695.655 253.95 699.355 258.75C703.155 263.45 708.755 265.8 716.155 265.8C721.155 265.8 725.205 265 728.305 263.4C731.405 261.8 734.305 259.45 737.005 256.35L738.505 257.7C735.405 263.2 731.255 267.5 726.055 270.6C720.955 273.7 714.805 275.25 707.605 275.25C700.505 275.25 694.205 273.75 688.705 270.75C683.205 267.65 678.905 263.25 675.805 257.55C672.705 251.85 671.155 245.05 671.155 237.15C671.155 228.95 672.955 222 676.555 216.3C680.155 210.5 684.755 206.1 690.355 203.1C696.055 200.1 702.005 198.6 708.205 198.6ZM707.755 201.6C704.855 201.6 702.355 202.5 700.255 204.3C698.255 206 696.655 209.1 695.455 213.6C694.355 218 693.755 224.25 693.655 232.35H719.305C720.305 221.45 719.905 213.6 718.105 208.8C716.305 204 712.855 201.6 707.755 201.6ZM764.176 275.25C760.576 275.25 757.526 274 755.026 271.5C752.526 269 751.276 266 751.276 262.5C751.276 259 752.526 255.95 755.026 253.35C757.526 250.75 760.576 249.45 764.176 249.45C767.776 249.45 770.826 250.75 773.326 253.35C775.826 255.95 777.076 259 777.076 262.5C777.076 266 775.826 269 773.326 271.5C770.826 274 767.776 275.25 764.176 275.25Z"/>
</mask>
<path d="M2.30005 108V106.5L5.75005 105.15C7.45005 104.45 8.60005 103.55 9.20005 102.45C9.90005 101.25 10.25 99.6501 10.25 97.6501V19.3501C10.25 17.3501 9.95005 15.8001 9.35005 14.7001C8.85005 13.5001 7.65005 12.5501 5.75005 11.8501L2.30005 10.5001V9.0001H74.1501L75.0501 32.1001H73.55L67.1001 18.0001C66.2001 16.2001 65.2501 14.7501 64.2501 13.6501C63.2501 12.5501 61.7501 12.0001 59.7501 12.0001H32.75V55.3501H48.8001C50.8001 55.3501 52.3001 54.8501 53.3001 53.8501C54.4001 52.7501 55.3501 51.3001 56.1501 49.5001L59.1501 43.5001H60.6501V70.5001H59.1501L56.1501 64.2001C55.2501 62.4001 54.3001 61.0001 53.3001 60.0001C52.3001 58.9001 50.8001 58.3501 48.8001 58.3501H32.75V105H63.0501C65.0501 105 66.6 104.5 67.7001 103.5C68.8 102.4 69.7 100.9 70.4 99.0001L76.55 84.9001H78.05L77.1501 108H2.30005ZM85.2032 108V106.5L87.3032 105.9C90.8032 104.9 92.5532 102.45 92.5532 98.5501V51.6001C92.5532 49.4001 92.2032 47.8001 91.5032 46.8001C90.8032 45.7001 89.4532 44.9501 87.4532 44.5501L85.2032 43.9501V42.4501L110.853 33.7501L112.353 35.2501L113.553 44.2501C117.053 41.1501 121.003 38.6001 125.403 36.6001C129.803 34.6001 134.153 33.6001 138.453 33.6001C145.053 33.6001 150.103 35.4001 153.603 39.0001C157.203 42.6001 159.003 48.1001 159.003 55.5001V98.7001C159.003 102.6 160.903 105.05 164.703 106.05L166.053 106.5V108H130.653V106.5L132.603 105.9C136.103 104.8 137.853 102.35 137.853 98.5501V50.7001C137.853 44.3001 134.653 41.1001 128.253 41.1001C123.853 41.1001 119.053 43.3001 113.853 47.7001V98.7001C113.853 102.6 115.603 105.05 119.103 106.05L120.453 106.5V108H85.2032ZM203.722 110.25C197.822 110.25 192.522 108.95 187.822 106.35C183.122 103.65 179.372 99.5501 176.572 94.0501C173.872 88.4501 172.522 81.3001 172.522 72.6001C172.522 63.8001 174.072 56.5501 177.172 50.8501C180.272 45.0501 184.372 40.7501 189.472 37.9501C194.572 35.0501 200.122 33.6001 206.122 33.6001C209.622 33.6001 212.972 33.9501 216.172 34.6501C219.372 35.3501 222.222 36.4001 224.722 37.8001V18.3001C224.722 16.2001 224.372 14.6501 223.672 13.6501C223.072 12.6501 221.722 11.9501 219.622 11.5501L216.772 10.9501V9.4501L244.072 2.8501L245.722 4.2001L245.122 25.2001V98.5501C245.122 100.55 245.472 102.2 246.172 103.5C246.872 104.7 248.172 105.55 250.072 106.05L251.422 106.5V108L225.772 109.65L224.422 104.25C221.722 106.05 218.622 107.5 215.122 108.6C211.722 109.7 207.922 110.25 203.722 110.25ZM212.422 104.7C216.622 104.7 220.472 103.45 223.972 100.95V41.4001C220.272 39.0001 216.472 37.8001 212.572 37.8001C207.772 37.8001 203.672 40.6001 200.272 46.2001C196.872 51.7001 195.172 60.4001 195.172 72.3001C195.172 84.2001 196.772 92.6001 199.972 97.5001C203.172 102.3 207.322 104.7 212.422 104.7ZM260.176 72.0001V67.9501H297.976V72.0001H260.176ZM335.481 110.25C329.081 110.25 324.081 108.65 320.481 105.45C316.981 102.25 315.231 97.1501 315.231 90.1501V38.8501H304.881V37.3501L308.481 36.7501C311.581 36.0501 314.231 35.0501 316.431 33.7501C318.731 32.4501 320.981 30.7001 323.181 28.5001L335.481 14.8501H336.981L336.531 35.8501H353.331V38.8501H336.381V92.8501C336.381 96.3501 337.131 99.0001 338.631 100.8C340.231 102.6 342.231 103.5 344.631 103.5C346.731 103.5 348.581 103 350.181 102C351.781 100.9 353.381 99.4501 354.981 97.6501L356.481 99.1501C354.481 102.55 351.731 105.25 348.231 107.25C344.731 109.25 340.481 110.25 335.481 110.25ZM398.69 110.25C391.09 110.25 384.49 108.7 378.89 105.6C373.29 102.4 368.94 97.9001 365.84 92.1001C362.84 86.3001 361.34 79.5001 361.34 71.7001C361.34 63.9001 362.94 57.1501 366.14 51.4501C369.44 45.7501 373.89 41.3501 379.49 38.2501C385.19 35.1501 391.59 33.6001 398.69 33.6001C405.79 33.6001 412.14 35.1501 417.74 38.2501C423.34 41.2501 427.74 45.6001 430.94 51.3001C434.24 57.0001 435.89 63.8001 435.89 71.7001C435.89 79.6001 434.34 86.4501 431.24 92.2501C428.24 97.9501 423.94 102.4 418.34 105.6C412.84 108.7 406.29 110.25 398.69 110.25ZM398.69 107.25C402.19 107.25 404.99 106.25 407.09 104.25C409.19 102.25 410.69 98.7001 411.59 93.6001C412.59 88.5001 413.09 81.3001 413.09 72.0001C413.09 62.6001 412.59 55.3501 411.59 50.2501C410.69 45.1501 409.19 41.6001 407.09 39.6001C404.99 37.6001 402.19 36.6001 398.69 36.6001C395.19 36.6001 392.34 37.6001 390.14 39.6001C388.04 41.6001 386.49 45.1501 385.49 50.2501C384.59 55.3501 384.14 62.6001 384.14 72.0001C384.14 81.3001 384.59 88.5001 385.49 93.6001C386.49 98.7001 388.04 102.25 390.14 104.25C392.34 106.25 395.19 107.25 398.69 107.25ZM446.065 72.0001V67.9501H483.865V72.0001H446.065ZM493.169 108V106.5L496.619 105.15C498.319 104.45 499.469 103.55 500.069 102.45C500.769 101.25 501.119 99.6501 501.119 97.6501V19.3501C501.119 17.3501 500.819 15.8001 500.219 14.7001C499.719 13.5001 498.519 12.5501 496.619 11.8501L493.169 10.5001V9.0001H565.019L565.919 32.1001H564.419L557.969 18.0001C557.069 16.2001 556.119 14.7501 555.119 13.6501C554.119 12.5501 552.619 12.0001 550.619 12.0001H523.619V55.3501H539.669C541.669 55.3501 543.169 54.8501 544.169 53.8501C545.269 52.7501 546.219 51.3001 547.019 49.5001L550.019 43.5001H551.519V70.5001H550.019L547.019 64.2001C546.119 62.4001 545.169 61.0001 544.169 60.0001C543.169 58.9001 541.669 58.3501 539.669 58.3501H523.619V105H553.919C555.919 105 557.469 104.5 558.569 103.5C559.669 102.4 560.569 100.9 561.269 99.0001L567.419 84.9001H568.919L568.019 108H493.169ZM576.072 108V106.5L578.172 105.9C581.672 104.9 583.422 102.45 583.422 98.5501V51.6001C583.422 49.4001 583.072 47.8001 582.372 46.8001C581.672 45.7001 580.322 44.9501 578.322 44.5501L576.072 43.9501V42.4501L601.722 33.7501L603.222 35.2501L604.422 44.2501C607.922 41.1501 611.872 38.6001 616.272 36.6001C620.672 34.6001 625.022 33.6001 629.322 33.6001C635.922 33.6001 640.972 35.4001 644.472 39.0001C648.072 42.6001 649.872 48.1001 649.872 55.5001V98.7001C649.872 102.6 651.772 105.05 655.572 106.05L656.922 106.5V108H621.522V106.5L623.472 105.9C626.972 104.8 628.722 102.35 628.722 98.5501V50.7001C628.722 44.3001 625.522 41.1001 619.122 41.1001C614.722 41.1001 609.922 43.3001 604.722 47.7001V98.7001C604.722 102.6 606.472 105.05 609.972 106.05L611.322 106.5V108H576.072ZM694.591 110.25C688.691 110.25 683.391 108.95 678.691 106.35C673.991 103.65 670.241 99.5501 667.441 94.0501C664.741 88.4501 663.391 81.3001 663.391 72.6001C663.391 63.8001 664.941 56.5501 668.041 50.8501C671.141 45.0501 675.241 40.7501 680.341 37.9501C685.441 35.0501 690.991 33.6001 696.991 33.6001C700.491 33.6001 703.841 33.9501 707.041 34.6501C710.241 35.3501 713.091 36.4001 715.591 37.8001V18.3001C715.591 16.2001 715.241 14.6501 714.541 13.6501C713.941 12.6501 712.591 11.9501 710.491 11.5501L707.641 10.9501V9.4501L734.941 2.8501L736.591 4.2001L735.991 25.2001V98.5501C735.991 100.55 736.341 102.2 737.041 103.5C737.741 104.7 739.041 105.55 740.941 106.05L742.291 106.5V108L716.641 109.65L715.291 104.25C712.591 106.05 709.491 107.5 705.991 108.6C702.591 109.7 698.791 110.25 694.591 110.25ZM703.291 104.7C707.491 104.7 711.341 103.45 714.841 100.95V41.4001C711.141 39.0001 707.341 37.8001 703.441 37.8001C698.641 37.8001 694.541 40.6001 691.141 46.2001C687.741 51.7001 686.041 60.4001 686.041 72.3001C686.041 84.2001 687.641 92.6001 690.841 97.5001C694.041 102.3 698.191 104.7 703.291 104.7Z" stroke="url(#paint0_linear_1941_4655)" stroke-width="4" mask="url(#path-1-outside-1_1941_4655)"/>
<path d="M34.5501 275.7C29.0501 275.7 23.45 275 17.75 273.6C12.05 272.3 7.30005 270.55 3.50005 268.35L4.25005 247.95H5.75005L10.4 257.7C11.8 260.5 13.3 263 14.9 265.2C16.5 267.3 18.7 268.95 21.5 270.15C23.5 271.15 25.4 271.85 27.2001 272.25C29.1001 272.55 31.2001 272.7 33.5 272.7C39.6 272.7 44.4001 271.05 47.9001 267.75C51.5001 264.45 53.3001 260.2 53.3001 255C53.3001 250.1 52.1001 246.3 49.7001 243.6C47.3001 240.8 43.4501 238.1 38.1501 235.5L32.0001 232.8C23.4001 229 16.65 224.65 11.75 219.75C6.95005 214.75 4.55005 208.15 4.55005 199.95C4.55005 194.05 6.05005 188.95 9.05005 184.65C12.15 180.35 16.4001 177.05 21.8001 174.75C27.3001 172.45 33.7001 171.3 41 171.3C46.3 171.3 51.3001 172 56.0001 173.4C60.8001 174.8 64.9501 176.7 68.4501 179.1L67.55 197.1H66.0501L59.9001 185.85C58.2001 182.35 56.5001 179.9 54.8 178.5C53.1 177 51.1501 175.95 48.9501 175.35C47.6501 174.95 46.4501 174.7 45.3501 174.6C44.2501 174.4 42.8501 174.3 41.1501 174.3C36.05 174.3 31.75 175.8 28.25 178.8C24.75 181.7 23 185.65 23 190.65C23 195.75 24.35 199.85 27.05 202.95C29.75 205.95 33.7 208.65 38.9 211.05L45.8 214.05C55.4001 218.25 62.3001 222.75 66.5001 227.55C70.7001 232.25 72.8 238.35 72.8 245.85C72.8 254.65 69.45 261.85 62.75 267.45C56.1501 272.95 46.7501 275.7 34.5501 275.7ZM107.258 275.25C100.858 275.25 95.8579 273.65 92.2579 270.45C88.7579 267.25 87.0079 262.15 87.0079 255.15V203.85H76.6579V202.35L80.2579 201.75C83.3579 201.05 86.0079 200.05 88.2079 198.75C90.5079 197.45 92.7579 195.7 94.9579 193.5L107.258 179.85H108.758L108.308 200.85H125.108V203.85H108.158V257.85C108.158 261.35 108.908 264 110.408 265.8C112.008 267.6 114.008 268.5 116.408 268.5C118.508 268.5 120.358 268 121.958 267C123.558 265.9 125.158 264.45 126.758 262.65L128.258 264.15C126.258 267.55 123.508 270.25 120.008 272.25C116.508 274.25 112.258 275.25 107.258 275.25ZM154.857 275.25C149.057 275.25 144.157 273.6 140.157 270.3C136.257 267 134.307 262.25 134.307 256.05C134.307 251.35 136.707 247.05 141.507 243.15C146.307 239.15 153.857 236.15 164.157 234.15C165.757 233.85 167.557 233.55 169.557 233.25C171.557 232.85 173.657 232.45 175.857 232.05V220.2C175.857 213.4 175.007 208.65 173.307 205.95C171.707 203.15 169.157 201.75 165.657 201.75C163.257 201.75 161.357 202.55 159.957 204.15C158.557 205.65 157.657 208.3 157.257 212.1L156.957 213.75C156.757 218.05 155.707 221.2 153.807 223.2C151.907 225.2 149.557 226.2 146.757 226.2C144.157 226.2 142.007 225.4 140.307 223.8C138.607 222.2 137.757 220.05 137.757 217.35C137.757 213.25 139.157 209.8 141.957 207C144.857 204.2 148.657 202.1 153.357 200.7C158.057 199.3 163.157 198.6 168.657 198.6C177.557 198.6 184.407 200.8 189.207 205.2C194.107 209.5 196.557 216.55 196.557 226.35V259.5C196.557 264 198.657 266.25 202.857 266.25H206.157L207.507 267.45C205.607 269.85 203.507 271.7 201.207 273C199.007 274.3 195.857 274.95 191.757 274.95C187.357 274.95 183.857 273.95 181.257 271.95C178.757 269.85 177.107 267.1 176.307 263.7C173.307 266.9 170.207 269.65 167.007 271.95C163.907 274.15 159.857 275.25 154.857 275.25ZM164.007 266.1C166.007 266.1 167.857 265.65 169.557 264.75C171.357 263.75 173.457 262.25 175.857 260.25V235.05C174.857 235.25 173.857 235.45 172.857 235.65C171.857 235.85 170.707 236.05 169.407 236.25C164.807 237.45 161.107 239.5 158.307 242.4C155.607 245.2 154.257 249 154.257 253.8C154.257 257.9 155.207 261 157.107 263.1C159.007 265.1 161.307 266.1 164.007 266.1ZM210.301 273V271.5L212.551 270.9C214.551 270.3 215.901 269.4 216.601 268.2C217.401 267 217.801 265.45 217.801 263.55V216.6C217.801 214.4 217.401 212.8 216.601 211.8C215.901 210.7 214.551 209.95 212.551 209.55L210.301 208.95V207.45L236.101 198.75L237.601 200.25L238.951 213.15V214.35C240.351 211.55 242.151 209 244.351 206.7C246.651 204.3 249.151 202.35 251.851 200.85C254.651 199.35 257.401 198.6 260.101 198.6C263.901 198.6 266.801 199.65 268.801 201.75C270.801 203.85 271.801 206.5 271.801 209.7C271.801 213.1 270.801 215.75 268.801 217.65C266.901 219.45 264.601 220.35 261.901 220.35C257.701 220.35 254.001 218.25 250.801 214.05L250.501 213.75C249.501 212.35 248.351 211.6 247.051 211.5C245.751 211.3 244.551 211.9 243.451 213.3C242.451 214.2 241.601 215.3 240.901 216.6C240.301 217.8 239.701 219.2 239.101 220.8V262.65C239.101 266.65 240.851 269.15 244.351 270.15L249.151 271.5V273H210.301ZM306.33 275.25C299.93 275.25 294.93 273.65 291.33 270.45C287.83 267.25 286.08 262.15 286.08 255.15V203.85H275.73V202.35L279.33 201.75C282.43 201.05 285.08 200.05 287.28 198.75C289.58 197.45 291.83 195.7 294.03 193.5L306.33 179.85H307.83L307.38 200.85H324.18V203.85H307.23V257.85C307.23 261.35 307.98 264 309.48 265.8C311.08 267.6 313.08 268.5 315.48 268.5C317.58 268.5 319.43 268 321.03 267C322.63 265.9 324.23 264.45 325.83 262.65L327.33 264.15C325.33 267.55 322.58 270.25 319.08 272.25C315.58 274.25 311.33 275.25 306.33 275.25ZM358.858 275.25C353.958 275.25 349.558 274.65 345.658 273.45C341.758 272.35 338.158 270.95 334.858 269.25L335.008 251.4H336.508L341.608 260.4C343.808 264.4 346.208 267.4 348.808 269.4C351.508 271.3 354.908 272.25 359.008 272.25C363.808 272.25 367.658 271.2 370.558 269.1C373.558 266.9 375.058 264 375.058 260.4C375.058 257.1 374.008 254.4 371.908 252.3C369.808 250.2 365.908 248.3 360.208 246.6L353.908 244.65C347.808 242.85 343.008 240.05 339.508 236.25C336.008 232.45 334.258 227.8 334.258 222.3C334.258 215.7 336.858 210.1 342.058 205.5C347.258 200.9 354.708 198.6 364.408 198.6C368.308 198.6 371.958 199.05 375.358 199.95C378.858 200.75 382.208 202 385.408 203.7L384.508 219.9H383.008L377.758 210.6C375.858 207.3 373.958 205 372.058 203.7C370.258 202.3 367.508 201.6 363.808 201.6C360.408 201.6 357.208 202.55 354.208 204.45C351.208 206.35 349.708 209.05 349.708 212.55C349.708 215.95 350.958 218.65 353.458 220.65C356.058 222.65 359.858 224.5 364.858 226.2L371.608 228.15C378.808 230.35 383.958 233.4 387.058 237.3C390.158 241.1 391.708 245.7 391.708 251.1C391.708 258.4 388.808 264.25 383.008 268.65C377.308 273.05 369.258 275.25 358.858 275.25ZM431.206 273V271.5L434.206 270.3C436.206 269.6 437.506 268.65 438.106 267.45C438.806 266.25 439.156 264.7 439.156 262.8V184.35C439.156 182.35 438.806 180.75 438.106 179.55C437.506 178.35 436.206 177.4 434.206 176.7L431.206 175.5V174H469.306V175.5L466.756 176.55C464.856 177.25 463.556 178.2 462.856 179.4C462.156 180.5 461.806 182.05 461.806 184.05V220.5H497.656V184.05C497.656 182.05 497.306 180.5 496.606 179.4C496.006 178.2 494.706 177.25 492.706 176.55L490.006 175.5V174H528.256V175.5L525.256 176.7C523.356 177.4 522.056 178.35 521.356 179.55C520.656 180.75 520.306 182.35 520.306 184.35V262.8C520.306 264.7 520.656 266.25 521.356 267.45C522.056 268.65 523.356 269.6 525.256 270.3L528.256 271.5V273H490.006V271.5L492.706 270.6C494.706 269.8 496.006 268.85 496.606 267.75C497.306 266.55 497.656 264.95 497.656 262.95V223.5H461.806V262.95C461.806 266.65 463.456 269.2 466.756 270.6L469.306 271.5V273H431.206ZM568.312 198.6C574.812 198.6 580.362 199.95 584.962 202.65C589.562 205.25 593.062 208.85 595.462 213.45C597.962 217.95 599.212 223.1 599.212 228.9C599.212 230 599.162 231.15 599.062 232.35C598.962 233.45 598.762 234.45 598.462 235.35H553.762C553.862 246.15 555.762 253.95 559.462 258.75C563.262 263.45 568.862 265.8 576.262 265.8C581.262 265.8 585.312 265 588.412 263.4C591.512 261.8 594.412 259.45 597.112 256.35L598.612 257.7C595.512 263.2 591.362 267.5 586.162 270.6C581.062 273.7 574.912 275.25 567.712 275.25C560.612 275.25 554.312 273.75 548.812 270.75C543.312 267.65 539.012 263.25 535.912 257.55C532.812 251.85 531.262 245.05 531.262 237.15C531.262 228.95 533.062 222 536.662 216.3C540.262 210.5 544.862 206.1 550.462 203.1C556.162 200.1 562.112 198.6 568.312 198.6ZM567.862 201.6C564.962 201.6 562.462 202.5 560.362 204.3C558.362 206 556.762 209.1 555.562 213.6C554.462 218 553.862 224.25 553.762 232.35H579.412C580.412 221.45 580.012 213.6 578.212 208.8C576.412 204 572.962 201.6 567.862 201.6ZM606.688 273V271.5L608.938 270.9C610.938 270.3 612.288 269.4 612.988 268.2C613.788 267 614.188 265.45 614.188 263.55V216.6C614.188 214.4 613.788 212.8 612.988 211.8C612.288 210.7 610.938 209.95 608.938 209.55L606.688 208.95V207.45L632.488 198.75L633.988 200.25L635.338 213.15V214.35C636.738 211.55 638.538 209 640.738 206.7C643.038 204.3 645.538 202.35 648.238 200.85C651.038 199.35 653.788 198.6 656.488 198.6C660.288 198.6 663.188 199.65 665.188 201.75C667.188 203.85 668.188 206.5 668.188 209.7C668.188 213.1 667.188 215.75 665.188 217.65C663.288 219.45 660.988 220.35 658.288 220.35C654.088 220.35 650.388 218.25 647.188 214.05L646.888 213.75C645.888 212.35 644.738 211.6 643.438 211.5C642.138 211.3 640.938 211.9 639.838 213.3C638.838 214.2 637.988 215.3 637.288 216.6C636.688 217.8 636.088 219.2 635.488 220.8V262.65C635.488 266.65 637.238 269.15 640.738 270.15L645.538 271.5V273H606.688ZM708.205 198.6C714.705 198.6 720.255 199.95 724.855 202.65C729.455 205.25 732.955 208.85 735.355 213.45C737.855 217.95 739.105 223.1 739.105 228.9C739.105 230 739.055 231.15 738.955 232.35C738.855 233.45 738.655 234.45 738.355 235.35H693.655C693.755 246.15 695.655 253.95 699.355 258.75C703.155 263.45 708.755 265.8 716.155 265.8C721.155 265.8 725.205 265 728.305 263.4C731.405 261.8 734.305 259.45 737.005 256.35L738.505 257.7C735.405 263.2 731.255 267.5 726.055 270.6C720.955 273.7 714.805 275.25 707.605 275.25C700.505 275.25 694.205 273.75 688.705 270.75C683.205 267.65 678.905 263.25 675.805 257.55C672.705 251.85 671.155 245.05 671.155 237.15C671.155 228.95 672.955 222 676.555 216.3C680.155 210.5 684.755 206.1 690.355 203.1C696.055 200.1 702.005 198.6 708.205 198.6ZM707.755 201.6C704.855 201.6 702.355 202.5 700.255 204.3C698.255 206 696.655 209.1 695.455 213.6C694.355 218 693.755 224.25 693.655 232.35H719.305C720.305 221.45 719.905 213.6 718.105 208.8C716.305 204 712.855 201.6 707.755 201.6ZM764.176 275.25C760.576 275.25 757.526 274 755.026 271.5C752.526 269 751.276 266 751.276 262.5C751.276 259 752.526 255.95 755.026 253.35C757.526 250.75 760.576 249.45 764.176 249.45C767.776 249.45 770.826 250.75 773.326 253.35C775.826 255.95 777.076 259 777.076 262.5C777.076 266 775.826 269 773.326 271.5C770.826 274 767.776 275.25 764.176 275.25Z" stroke="url(#paint1_linear_1941_4655)" stroke-width="4" mask="url(#path-1-outside-1_1941_4655)"/>
</g>
<defs>
<linearGradient id="paint0_linear_1941_4655" x1="389.688" y1="2.8501" x2="389.688" y2="275.7" gradientUnits="userSpaceOnUse">
<stop stop-color="#C9037D"/>
<stop offset="1" stop-color="#6814EC"/>
</linearGradient>
<linearGradient id="paint1_linear_1941_4655" x1="389.688" y1="2.8501" x2="389.688" y2="275.7" gradientUnits="userSpaceOnUse">
<stop stop-color="#C9037D"/>
<stop offset="1" stop-color="#6814EC"/>
</linearGradient>
</defs>
</svg>
