<svg width="1203" height="169" viewBox="0 0 1203 169" fill="none" xmlns="http://www.w3.org/2000/svg">
<g opacity="0.5">
<mask id="path-1-outside-1_1430_1091" maskUnits="userSpaceOnUse" x="0.0500488" y="0" width="1203" height="169" fill="black">
<rect fill="white" x="0.0500488" width="1203" height="169"/>
<path d="M2.05005 163V160.7L7.80005 158.63C10.8667 157.403 13.2434 155.947 14.93 154.26C16.6167 152.42 17.9967 149.89 19.07 146.67L66.4501 10.74H86.0001L132.69 147.59C133.917 150.963 135.297 153.57 136.83 155.41C138.363 157.097 140.74 158.553 143.96 159.78L146.72 160.7V163H88.3V160.7L91.7501 159.55C94.9701 158.323 96.8867 156.637 97.5001 154.49C98.2667 152.19 98.1901 149.507 97.2701 146.44L86.4601 113.32H35.4001L24.3601 145.75C23.2867 149.123 22.9034 151.807 23.21 153.8C23.67 155.793 25.51 157.403 28.73 158.63L33.7901 160.7V163H2.05005ZM37.0101 108.72H85.0801L61.8501 37.19L37.0101 108.72ZM188.842 166.45C182.862 166.45 177.342 165.3 172.282 163C167.376 160.7 163.466 157.02 160.552 151.96C157.792 146.747 156.489 139.923 156.642 131.49L157.332 72.38C157.332 68.8533 156.719 66.3233 155.492 64.79C154.266 63.2567 152.349 62.1833 149.742 61.57L146.982 60.65V58.35L188.152 50.3L190.452 52.6L189.302 85.26V140.69C189.302 145.597 190.682 149.2 193.442 151.5C196.356 153.8 199.959 154.95 204.252 154.95C208.546 154.95 212.379 154.337 215.752 153.11C219.126 151.883 222.499 150.043 225.872 147.59L226.792 72.61C226.792 69.0833 226.256 66.63 225.182 65.25C224.109 63.7167 222.116 62.6433 219.202 62.03L216.902 61.34V59.04L257.152 50.3L259.452 52.6L258.762 85.26V147.59C258.762 150.963 259.222 153.57 260.142 155.41C261.062 157.25 263.056 158.783 266.122 160.01L268.422 160.7V163L228.172 165.3L226.102 151.73C221.042 155.87 215.522 159.397 209.542 162.31C203.716 165.07 196.816 166.45 188.842 166.45ZM321.41 166.45C311.597 166.45 303.93 163.997 298.41 159.09C293.044 154.183 290.36 146.363 290.36 135.63V56.97H274.49V54.67L280.01 53.75C284.764 52.6767 288.827 51.1433 292.2 49.15C295.727 47.1567 299.177 44.4733 302.55 41.1L321.41 20.17H323.71L323.02 52.37H348.78V56.97H322.79V139.77C322.79 145.137 323.94 149.2 326.24 151.96C328.694 154.72 331.76 156.1 335.44 156.1C338.66 156.1 341.497 155.333 343.95 153.8C346.404 152.113 348.857 149.89 351.31 147.13L353.61 149.43C350.544 154.643 346.327 158.783 340.96 161.85C335.594 164.917 329.077 166.45 321.41 166.45ZM418.332 166.45C406.679 166.45 396.559 164.073 387.972 159.32C379.385 154.413 372.715 147.513 367.962 138.62C363.362 129.727 361.062 119.3 361.062 107.34C361.062 95.38 363.515 85.03 368.422 76.29C373.482 67.55 380.305 60.8033 388.892 56.05C397.632 51.2967 407.445 48.92 418.332 48.92C429.219 48.92 438.955 51.2967 447.542 56.05C456.129 60.65 462.875 67.32 467.782 76.06C472.842 84.8 475.372 95.2267 475.372 107.34C475.372 119.453 472.995 129.957 468.242 138.85C463.642 147.59 457.049 154.413 448.462 159.32C440.029 164.073 429.985 166.45 418.332 166.45ZM418.332 161.85C423.699 161.85 427.992 160.317 431.212 157.25C434.432 154.183 436.732 148.74 438.112 140.92C439.645 133.1 440.412 122.06 440.412 107.8C440.412 93.3867 439.645 82.27 438.112 74.45C436.732 66.63 434.432 61.1867 431.212 58.12C427.992 55.0533 423.699 53.52 418.332 53.52C412.965 53.52 408.595 55.0533 405.222 58.12C402.002 61.1867 399.625 66.63 398.092 74.45C396.712 82.27 396.022 93.3867 396.022 107.8C396.022 122.06 396.712 133.1 398.092 140.92C399.625 148.74 402.002 154.183 405.222 157.25C408.595 160.317 412.965 161.85 418.332 161.85ZM485.474 163V160.7L488.694 159.78C491.607 159.013 493.601 157.71 494.674 155.87C495.901 154.03 496.591 151.577 496.744 148.51V76.52C496.744 73.1467 496.207 70.6933 495.134 69.16C494.061 67.4733 491.991 66.3233 488.924 65.71L485.474 64.79V62.49L524.804 49.15L527.104 51.45L528.944 67.09C534.004 62.03 539.754 57.7367 546.194 54.21C552.787 50.6833 559.611 48.92 566.664 48.92C574.024 48.92 579.927 50.4533 584.374 53.52C588.821 56.4333 592.194 61.0333 594.494 67.32C600.474 61.6467 606.914 57.2 613.814 53.98C620.867 50.6067 627.691 48.92 634.284 48.92C645.171 48.92 653.144 51.5267 658.204 56.74C663.417 61.9533 666.024 70.1567 666.024 81.35V148.74C666.024 154.72 668.784 158.477 674.304 160.01L676.834 160.7V163H623.704V160.7L626.004 160.01C628.917 159.09 630.911 157.71 631.984 155.87C633.211 154.03 633.824 151.577 633.824 148.51V78.13C633.824 71.69 632.674 67.32 630.374 65.02C628.074 62.5667 624.394 61.34 619.334 61.34C615.347 61.34 611.437 62.26 607.604 64.1C603.924 65.7867 600.014 68.3933 595.874 71.92C596.641 74.3733 597.101 77.0567 597.254 79.97C597.561 82.8833 597.714 85.95 597.714 89.17V148.74C597.867 154.72 600.627 158.477 605.994 160.01L608.064 160.7V163H554.704V160.7L557.924 159.78C560.837 158.86 562.831 157.557 563.904 155.87C565.131 154.03 565.744 151.577 565.744 148.51V78.36C565.744 72.2267 564.594 67.8567 562.294 65.25C560.147 62.6433 556.391 61.34 551.024 61.34C547.497 61.34 543.971 62.26 540.444 64.1C536.917 65.7867 533.237 68.3167 529.404 71.69V148.74C529.404 154.72 532.087 158.477 537.454 160.01L539.524 160.7V163H485.474ZM718.058 166.45C709.165 166.45 701.651 163.92 695.518 158.86C689.538 153.8 686.548 146.517 686.548 137.01C686.548 129.803 690.228 123.21 697.588 117.23C704.948 111.097 716.525 106.497 732.318 103.43C734.771 102.97 737.531 102.51 740.598 102.05C743.665 101.437 746.885 100.823 750.258 100.21V82.04C750.258 71.6133 748.955 64.33 746.348 60.19C743.895 55.8967 739.985 53.75 734.618 53.75C730.938 53.75 728.025 54.9767 725.878 57.43C723.731 59.73 722.351 63.7933 721.738 69.62L721.278 72.15C720.971 78.7433 719.361 83.5733 716.448 86.64C713.535 89.7067 709.931 91.24 705.638 91.24C701.651 91.24 698.355 90.0133 695.748 87.56C693.141 85.1067 691.838 81.81 691.838 77.67C691.838 71.3833 693.985 66.0933 698.278 61.8C702.725 57.5067 708.551 54.2867 715.758 52.14C722.965 49.9933 730.785 48.92 739.218 48.92C752.865 48.92 763.368 52.2933 770.728 59.04C778.241 65.6333 781.998 76.4433 781.998 91.47V142.3C781.998 149.2 785.218 152.65 791.658 152.65H796.718L798.788 154.49C795.875 158.17 792.655 161.007 789.128 163C785.755 164.993 780.925 165.99 774.638 165.99C767.891 165.99 762.525 164.457 758.538 161.39C754.705 158.17 752.175 153.953 750.948 148.74C746.348 153.647 741.595 157.863 736.688 161.39C731.935 164.763 725.725 166.45 718.058 166.45ZM732.088 152.42C735.155 152.42 737.991 151.73 740.598 150.35C743.358 148.817 746.578 146.517 750.258 143.45V104.81C748.725 105.117 747.191 105.423 745.658 105.73C744.125 106.037 742.361 106.343 740.368 106.65C733.315 108.49 727.641 111.633 723.348 116.08C719.208 120.373 717.138 126.2 717.138 133.56C717.138 139.847 718.595 144.6 721.508 147.82C724.421 150.887 727.948 152.42 732.088 152.42ZM847.221 166.45C837.408 166.45 829.741 163.997 824.221 159.09C818.854 154.183 816.171 146.363 816.171 135.63V56.97H800.301V54.67L805.821 53.75C810.574 52.6767 814.638 51.1433 818.011 49.15C821.538 47.1567 824.988 44.4733 828.361 41.1L847.221 20.17H849.521L848.831 52.37H874.591V56.97H848.601V139.77C848.601 145.137 849.751 149.2 852.051 151.96C854.504 154.72 857.571 156.1 861.251 156.1C864.471 156.1 867.308 155.333 869.761 153.8C872.214 152.113 874.668 149.89 877.121 147.13L879.421 149.43C876.354 154.643 872.138 158.783 866.771 161.85C861.404 164.917 854.888 166.45 847.221 166.45ZM914.226 36.96C909.013 36.96 904.566 35.35 900.886 32.13C897.36 28.7567 895.596 24.54 895.596 19.48C895.596 14.2667 897.36 10.05 900.886 6.83001C904.566 3.61 909.013 2 914.226 2C919.44 2 923.81 3.61 927.336 6.83001C930.863 10.05 932.626 14.2667 932.626 19.48C932.626 24.54 930.863 28.7567 927.336 32.13C923.81 35.35 919.44 36.96 914.226 36.96ZM887.086 163V160.7L890.306 159.78C893.373 158.86 895.443 157.48 896.516 155.64C897.743 153.8 898.356 151.347 898.356 148.28V76.29C898.356 73.07 897.743 70.6933 896.516 69.16C895.443 67.4733 893.373 66.3233 890.306 65.71L887.086 65.02V62.72L929.176 49.15L931.476 51.45L930.786 84.11V148.51C930.786 151.577 931.323 154.03 932.396 155.87C933.623 157.71 935.693 159.09 938.606 160.01L940.906 160.7V163H887.086ZM1009.28 166.45C997.626 166.45 987.506 164.073 978.919 159.32C970.333 154.413 963.663 147.513 958.909 138.62C954.309 129.727 952.009 119.3 952.009 107.34C952.009 95.38 954.463 85.03 959.369 76.29C964.429 67.55 971.253 60.8033 979.839 56.05C988.579 51.2967 998.393 48.92 1009.28 48.92C1020.17 48.92 1029.9 51.2967 1038.49 56.05C1047.08 60.65 1053.82 67.32 1058.73 76.06C1063.79 84.8 1066.32 95.2267 1066.32 107.34C1066.32 119.453 1063.94 129.957 1059.19 138.85C1054.59 147.59 1048 154.413 1039.41 159.32C1030.98 164.073 1020.93 166.45 1009.28 166.45ZM1009.28 161.85C1014.65 161.85 1018.94 160.317 1022.16 157.25C1025.38 154.183 1027.68 148.74 1029.06 140.92C1030.59 133.1 1031.36 122.06 1031.36 107.8C1031.36 93.3867 1030.59 82.27 1029.06 74.45C1027.68 66.63 1025.38 61.1867 1022.16 58.12C1018.94 55.0533 1014.65 53.52 1009.28 53.52C1003.91 53.52 999.543 55.0533 996.169 58.12C992.949 61.1867 990.573 66.63 989.039 74.45C987.659 82.27 986.969 93.3867 986.969 107.8C986.969 122.06 987.659 133.1 989.039 140.92C990.573 148.74 992.949 154.183 996.169 157.25C999.543 160.317 1003.91 161.85 1009.28 161.85ZM1076.42 163V160.7L1079.64 159.78C1085.01 158.247 1087.69 154.49 1087.69 148.51V76.52C1087.69 73.1467 1087.15 70.6933 1086.08 69.16C1085.01 67.4733 1082.94 66.3233 1079.87 65.71L1076.42 64.79V62.49L1115.75 49.15L1118.05 51.45L1119.89 65.25C1125.26 60.4967 1131.31 56.5867 1138.06 53.52C1144.81 50.4533 1151.48 48.92 1158.07 48.92C1168.19 48.92 1175.93 51.68 1181.3 57.2C1186.82 62.72 1189.58 71.1533 1189.58 82.5V148.74C1189.58 154.72 1192.49 158.477 1198.32 160.01L1200.39 160.7V163H1146.11V160.7L1149.1 159.78C1154.47 158.093 1157.15 154.337 1157.15 148.51V75.14C1157.15 65.3267 1152.24 60.42 1142.43 60.42C1135.68 60.42 1128.32 63.7933 1120.35 70.54V148.74C1120.35 154.72 1123.03 158.477 1128.4 160.01L1130.47 160.7V163H1076.42Z"/>
</mask>
<path d="M2.05005 163V160.7L7.80005 158.63C10.8667 157.403 13.2434 155.947 14.93 154.26C16.6167 152.42 17.9967 149.89 19.07 146.67L66.4501 10.74H86.0001L132.69 147.59C133.917 150.963 135.297 153.57 136.83 155.41C138.363 157.097 140.74 158.553 143.96 159.78L146.72 160.7V163H88.3V160.7L91.7501 159.55C94.9701 158.323 96.8867 156.637 97.5001 154.49C98.2667 152.19 98.1901 149.507 97.2701 146.44L86.4601 113.32H35.4001L24.3601 145.75C23.2867 149.123 22.9034 151.807 23.21 153.8C23.67 155.793 25.51 157.403 28.73 158.63L33.7901 160.7V163H2.05005ZM37.0101 108.72H85.0801L61.8501 37.19L37.0101 108.72ZM188.842 166.45C182.862 166.45 177.342 165.3 172.282 163C167.376 160.7 163.466 157.02 160.552 151.96C157.792 146.747 156.489 139.923 156.642 131.49L157.332 72.38C157.332 68.8533 156.719 66.3233 155.492 64.79C154.266 63.2567 152.349 62.1833 149.742 61.57L146.982 60.65V58.35L188.152 50.3L190.452 52.6L189.302 85.26V140.69C189.302 145.597 190.682 149.2 193.442 151.5C196.356 153.8 199.959 154.95 204.252 154.95C208.546 154.95 212.379 154.337 215.752 153.11C219.126 151.883 222.499 150.043 225.872 147.59L226.792 72.61C226.792 69.0833 226.256 66.63 225.182 65.25C224.109 63.7167 222.116 62.6433 219.202 62.03L216.902 61.34V59.04L257.152 50.3L259.452 52.6L258.762 85.26V147.59C258.762 150.963 259.222 153.57 260.142 155.41C261.062 157.25 263.056 158.783 266.122 160.01L268.422 160.7V163L228.172 165.3L226.102 151.73C221.042 155.87 215.522 159.397 209.542 162.31C203.716 165.07 196.816 166.45 188.842 166.45ZM321.41 166.45C311.597 166.45 303.93 163.997 298.41 159.09C293.044 154.183 290.36 146.363 290.36 135.63V56.97H274.49V54.67L280.01 53.75C284.764 52.6767 288.827 51.1433 292.2 49.15C295.727 47.1567 299.177 44.4733 302.55 41.1L321.41 20.17H323.71L323.02 52.37H348.78V56.97H322.79V139.77C322.79 145.137 323.94 149.2 326.24 151.96C328.694 154.72 331.76 156.1 335.44 156.1C338.66 156.1 341.497 155.333 343.95 153.8C346.404 152.113 348.857 149.89 351.31 147.13L353.61 149.43C350.544 154.643 346.327 158.783 340.96 161.85C335.594 164.917 329.077 166.45 321.41 166.45ZM418.332 166.45C406.679 166.45 396.559 164.073 387.972 159.32C379.385 154.413 372.715 147.513 367.962 138.62C363.362 129.727 361.062 119.3 361.062 107.34C361.062 95.38 363.515 85.03 368.422 76.29C373.482 67.55 380.305 60.8033 388.892 56.05C397.632 51.2967 407.445 48.92 418.332 48.92C429.219 48.92 438.955 51.2967 447.542 56.05C456.129 60.65 462.875 67.32 467.782 76.06C472.842 84.8 475.372 95.2267 475.372 107.34C475.372 119.453 472.995 129.957 468.242 138.85C463.642 147.59 457.049 154.413 448.462 159.32C440.029 164.073 429.985 166.45 418.332 166.45ZM418.332 161.85C423.699 161.85 427.992 160.317 431.212 157.25C434.432 154.183 436.732 148.74 438.112 140.92C439.645 133.1 440.412 122.06 440.412 107.8C440.412 93.3867 439.645 82.27 438.112 74.45C436.732 66.63 434.432 61.1867 431.212 58.12C427.992 55.0533 423.699 53.52 418.332 53.52C412.965 53.52 408.595 55.0533 405.222 58.12C402.002 61.1867 399.625 66.63 398.092 74.45C396.712 82.27 396.022 93.3867 396.022 107.8C396.022 122.06 396.712 133.1 398.092 140.92C399.625 148.74 402.002 154.183 405.222 157.25C408.595 160.317 412.965 161.85 418.332 161.85ZM485.474 163V160.7L488.694 159.78C491.607 159.013 493.601 157.71 494.674 155.87C495.901 154.03 496.591 151.577 496.744 148.51V76.52C496.744 73.1467 496.207 70.6933 495.134 69.16C494.061 67.4733 491.991 66.3233 488.924 65.71L485.474 64.79V62.49L524.804 49.15L527.104 51.45L528.944 67.09C534.004 62.03 539.754 57.7367 546.194 54.21C552.787 50.6833 559.611 48.92 566.664 48.92C574.024 48.92 579.927 50.4533 584.374 53.52C588.821 56.4333 592.194 61.0333 594.494 67.32C600.474 61.6467 606.914 57.2 613.814 53.98C620.867 50.6067 627.691 48.92 634.284 48.92C645.171 48.92 653.144 51.5267 658.204 56.74C663.417 61.9533 666.024 70.1567 666.024 81.35V148.74C666.024 154.72 668.784 158.477 674.304 160.01L676.834 160.7V163H623.704V160.7L626.004 160.01C628.917 159.09 630.911 157.71 631.984 155.87C633.211 154.03 633.824 151.577 633.824 148.51V78.13C633.824 71.69 632.674 67.32 630.374 65.02C628.074 62.5667 624.394 61.34 619.334 61.34C615.347 61.34 611.437 62.26 607.604 64.1C603.924 65.7867 600.014 68.3933 595.874 71.92C596.641 74.3733 597.101 77.0567 597.254 79.97C597.561 82.8833 597.714 85.95 597.714 89.17V148.74C597.867 154.72 600.627 158.477 605.994 160.01L608.064 160.7V163H554.704V160.7L557.924 159.78C560.837 158.86 562.831 157.557 563.904 155.87C565.131 154.03 565.744 151.577 565.744 148.51V78.36C565.744 72.2267 564.594 67.8567 562.294 65.25C560.147 62.6433 556.391 61.34 551.024 61.34C547.497 61.34 543.971 62.26 540.444 64.1C536.917 65.7867 533.237 68.3167 529.404 71.69V148.74C529.404 154.72 532.087 158.477 537.454 160.01L539.524 160.7V163H485.474ZM718.058 166.45C709.165 166.45 701.651 163.92 695.518 158.86C689.538 153.8 686.548 146.517 686.548 137.01C686.548 129.803 690.228 123.21 697.588 117.23C704.948 111.097 716.525 106.497 732.318 103.43C734.771 102.97 737.531 102.51 740.598 102.05C743.665 101.437 746.885 100.823 750.258 100.21V82.04C750.258 71.6133 748.955 64.33 746.348 60.19C743.895 55.8967 739.985 53.75 734.618 53.75C730.938 53.75 728.025 54.9767 725.878 57.43C723.731 59.73 722.351 63.7933 721.738 69.62L721.278 72.15C720.971 78.7433 719.361 83.5733 716.448 86.64C713.535 89.7067 709.931 91.24 705.638 91.24C701.651 91.24 698.355 90.0133 695.748 87.56C693.141 85.1067 691.838 81.81 691.838 77.67C691.838 71.3833 693.985 66.0933 698.278 61.8C702.725 57.5067 708.551 54.2867 715.758 52.14C722.965 49.9933 730.785 48.92 739.218 48.92C752.865 48.92 763.368 52.2933 770.728 59.04C778.241 65.6333 781.998 76.4433 781.998 91.47V142.3C781.998 149.2 785.218 152.65 791.658 152.65H796.718L798.788 154.49C795.875 158.17 792.655 161.007 789.128 163C785.755 164.993 780.925 165.99 774.638 165.99C767.891 165.99 762.525 164.457 758.538 161.39C754.705 158.17 752.175 153.953 750.948 148.74C746.348 153.647 741.595 157.863 736.688 161.39C731.935 164.763 725.725 166.45 718.058 166.45ZM732.088 152.42C735.155 152.42 737.991 151.73 740.598 150.35C743.358 148.817 746.578 146.517 750.258 143.45V104.81C748.725 105.117 747.191 105.423 745.658 105.73C744.125 106.037 742.361 106.343 740.368 106.65C733.315 108.49 727.641 111.633 723.348 116.08C719.208 120.373 717.138 126.2 717.138 133.56C717.138 139.847 718.595 144.6 721.508 147.82C724.421 150.887 727.948 152.42 732.088 152.42ZM847.221 166.45C837.408 166.45 829.741 163.997 824.221 159.09C818.854 154.183 816.171 146.363 816.171 135.63V56.97H800.301V54.67L805.821 53.75C810.574 52.6767 814.638 51.1433 818.011 49.15C821.538 47.1567 824.988 44.4733 828.361 41.1L847.221 20.17H849.521L848.831 52.37H874.591V56.97H848.601V139.77C848.601 145.137 849.751 149.2 852.051 151.96C854.504 154.72 857.571 156.1 861.251 156.1C864.471 156.1 867.308 155.333 869.761 153.8C872.214 152.113 874.668 149.89 877.121 147.13L879.421 149.43C876.354 154.643 872.138 158.783 866.771 161.85C861.404 164.917 854.888 166.45 847.221 166.45ZM914.226 36.96C909.013 36.96 904.566 35.35 900.886 32.13C897.36 28.7567 895.596 24.54 895.596 19.48C895.596 14.2667 897.36 10.05 900.886 6.83001C904.566 3.61 909.013 2 914.226 2C919.44 2 923.81 3.61 927.336 6.83001C930.863 10.05 932.626 14.2667 932.626 19.48C932.626 24.54 930.863 28.7567 927.336 32.13C923.81 35.35 919.44 36.96 914.226 36.96ZM887.086 163V160.7L890.306 159.78C893.373 158.86 895.443 157.48 896.516 155.64C897.743 153.8 898.356 151.347 898.356 148.28V76.29C898.356 73.07 897.743 70.6933 896.516 69.16C895.443 67.4733 893.373 66.3233 890.306 65.71L887.086 65.02V62.72L929.176 49.15L931.476 51.45L930.786 84.11V148.51C930.786 151.577 931.323 154.03 932.396 155.87C933.623 157.71 935.693 159.09 938.606 160.01L940.906 160.7V163H887.086ZM1009.28 166.45C997.626 166.45 987.506 164.073 978.919 159.32C970.333 154.413 963.663 147.513 958.909 138.62C954.309 129.727 952.009 119.3 952.009 107.34C952.009 95.38 954.463 85.03 959.369 76.29C964.429 67.55 971.253 60.8033 979.839 56.05C988.579 51.2967 998.393 48.92 1009.28 48.92C1020.17 48.92 1029.9 51.2967 1038.49 56.05C1047.08 60.65 1053.82 67.32 1058.73 76.06C1063.79 84.8 1066.32 95.2267 1066.32 107.34C1066.32 119.453 1063.94 129.957 1059.19 138.85C1054.59 147.59 1048 154.413 1039.41 159.32C1030.98 164.073 1020.93 166.45 1009.28 166.45ZM1009.28 161.85C1014.65 161.85 1018.94 160.317 1022.16 157.25C1025.38 154.183 1027.68 148.74 1029.06 140.92C1030.59 133.1 1031.36 122.06 1031.36 107.8C1031.36 93.3867 1030.59 82.27 1029.06 74.45C1027.68 66.63 1025.38 61.1867 1022.16 58.12C1018.94 55.0533 1014.65 53.52 1009.28 53.52C1003.91 53.52 999.543 55.0533 996.169 58.12C992.949 61.1867 990.573 66.63 989.039 74.45C987.659 82.27 986.969 93.3867 986.969 107.8C986.969 122.06 987.659 133.1 989.039 140.92C990.573 148.74 992.949 154.183 996.169 157.25C999.543 160.317 1003.91 161.85 1009.28 161.85ZM1076.42 163V160.7L1079.64 159.78C1085.01 158.247 1087.69 154.49 1087.69 148.51V76.52C1087.69 73.1467 1087.15 70.6933 1086.08 69.16C1085.01 67.4733 1082.94 66.3233 1079.87 65.71L1076.42 64.79V62.49L1115.75 49.15L1118.05 51.45L1119.89 65.25C1125.26 60.4967 1131.31 56.5867 1138.06 53.52C1144.81 50.4533 1151.48 48.92 1158.07 48.92C1168.19 48.92 1175.93 51.68 1181.3 57.2C1186.82 62.72 1189.58 71.1533 1189.58 82.5V148.74C1189.58 154.72 1192.49 158.477 1198.32 160.01L1200.39 160.7V163H1146.11V160.7L1149.1 159.78C1154.47 158.093 1157.15 154.337 1157.15 148.51V75.14C1157.15 65.3267 1152.24 60.42 1142.43 60.42C1135.68 60.42 1128.32 63.7933 1120.35 70.54V148.74C1120.35 154.72 1123.03 158.477 1128.4 160.01L1130.47 160.7V163H1076.42Z" stroke="#EB9622" stroke-width="4" mask="url(#path-1-outside-1_1430_1091)"/>
</g>
</svg>
