<svg width="113" height="70" viewBox="0 0 113 70" fill="none" xmlns="http://www.w3.org/2000/svg">
<path d="M73.7212 9.96293L56.7779 0.192617C56.5576 0.0664051 56.3082 0 56.0543 0C55.8004 0 55.5509 0.0664051 55.3306 0.192617L38.4282 9.85559C38.2236 9.97191 38.0533 10.1403 37.9347 10.3436C37.8162 10.5469 37.7535 10.778 37.7532 11.0133V30.0709C37.7534 30.2722 37.8067 30.4698 37.9077 30.6439C38.0088 30.8179 38.1539 30.9623 38.3285 31.0625L54.8703 40.5185C55.2305 40.7257 55.6387 40.8347 56.0543 40.8347C56.4698 40.8347 56.8781 40.7257 57.2382 40.5185L73.7109 31.0165C73.8585 30.9311 73.981 30.8085 74.0662 30.6609C74.1515 30.5134 74.1965 30.3461 74.1968 30.1757V10.7833C74.1965 10.6169 74.1524 10.4534 74.069 10.3094C73.9855 10.1654 73.8655 10.0459 73.7212 9.96293ZM50.7074 5.20173L55.773 2.26015C55.8468 2.21753 55.9306 2.1951 56.0159 2.1951C56.1012 2.1951 56.185 2.21753 56.2588 2.26015L70.1771 10.2338C70.2502 10.277 70.3109 10.3384 70.353 10.4122C70.3951 10.4859 70.4173 10.5693 70.4173 10.6542C70.4173 10.7391 70.3951 10.8226 70.353 10.8963C70.3109 10.97 70.2502 11.0315 70.1771 11.0746L65.0987 14.0852C65.0243 14.1291 64.9395 14.1522 64.8532 14.1522C64.7669 14.1522 64.6821 14.1291 64.6077 14.0852L50.7023 6.03998C50.6298 5.9968 50.5698 5.93549 50.5282 5.86209C50.4867 5.78869 50.4649 5.70574 50.4652 5.6214C50.4654 5.53706 50.4877 5.45425 50.5297 5.3811C50.5717 5.30796 50.6321 5.24702 50.7048 5.20428L50.7074 5.20173ZM69.2949 14.3433L65.1012 23.1221C65.0712 23.1843 65.0291 23.24 64.9775 23.286C64.9258 23.3319 64.8656 23.3672 64.8002 23.3897C64.7348 23.4123 64.6657 23.4217 64.5966 23.4175C64.5276 23.4132 64.4601 23.3953 64.398 23.3648L58.6599 20.5383C58.6494 20.5316 58.6407 20.5223 58.6346 20.5114C58.6286 20.5005 58.6255 20.4882 58.6255 20.4757C58.6255 20.4632 58.6286 20.4509 58.6346 20.4399C58.6407 20.429 58.6494 20.4197 58.6599 20.4131L69.1951 14.2513C69.2081 14.2431 69.2235 14.2395 69.2387 14.241C69.254 14.2425 69.2684 14.249 69.2795 14.2596C69.2907 14.2701 69.298 14.2841 69.3003 14.2993C69.3026 14.3144 69.2998 14.3299 69.2923 14.3433H69.2949ZM41.9928 21.2794C42.0402 21.1912 42.1199 21.1247 42.2152 21.0937C42.3104 21.0628 42.414 21.0698 42.5042 21.1133L46.4064 23.1118C46.4969 23.1583 46.5653 23.2387 46.5964 23.3356C46.6276 23.4324 46.619 23.5376 46.5726 23.6281C46.5261 23.7186 46.4456 23.7869 46.3487 23.8181C46.2519 23.8492 46.1466 23.8406 46.056 23.7942L42.1667 21.7957C42.0753 21.7501 42.0057 21.6702 41.9731 21.5734C41.9405 21.4767 41.9476 21.371 41.9928 21.2794ZM42.1565 23.4211C42.2029 23.3319 42.2825 23.2645 42.3782 23.2334C42.4738 23.2024 42.5779 23.2101 42.6679 23.255L48.3472 26.1607C48.4246 26.1997 48.4866 26.2637 48.523 26.3423C48.5594 26.4209 48.568 26.5095 48.5476 26.5937C48.5271 26.6779 48.4787 26.7527 48.4103 26.8059C48.3419 26.859 48.2574 26.8875 48.1707 26.8866C48.1102 26.8858 48.0507 26.8709 47.9969 26.8431L42.3227 23.9373C42.2339 23.8891 42.1677 23.8079 42.1385 23.7112C42.1093 23.6146 42.1194 23.5103 42.1667 23.4211H42.1565ZM50.7815 30.4159C50.7478 30.4749 50.699 30.524 50.6402 30.5581C50.5814 30.5922 50.5146 30.6101 50.4466 30.6102C50.3812 30.6105 50.3168 30.5937 50.2599 30.5616L42.3099 26.1147C42.2297 26.0616 42.1725 25.9803 42.1495 25.8869C42.1265 25.7935 42.1394 25.6949 42.1858 25.6106C42.2321 25.5264 42.3085 25.4626 42.3997 25.4319C42.4909 25.4013 42.5902 25.406 42.6781 25.4452L50.6256 29.892C50.7154 29.9412 50.7821 30.0238 50.8113 30.1219C50.8406 30.22 50.8298 30.3257 50.7815 30.4159V30.4159ZM55.819 19.0867L41.8726 11.0184C41.8026 10.9774 41.7446 10.9188 41.7042 10.8484C41.6639 10.778 41.6427 10.6983 41.6427 10.6172C41.6427 10.5361 41.6639 10.4564 41.7042 10.386C41.7446 10.3156 41.8026 10.257 41.8726 10.2159L46.9868 7.24881C47.0571 7.20796 47.1369 7.18644 47.2182 7.18644C47.2995 7.18644 47.3794 7.20796 47.4497 7.24881L61.4114 15.2455C61.4814 15.2865 61.5394 15.3451 61.5798 15.4155C61.6201 15.4859 61.6413 15.5656 61.6413 15.6467C61.6413 15.7279 61.6201 15.8076 61.5798 15.8779C61.5394 15.9483 61.4814 16.0069 61.4114 16.048L56.2972 19.0867C56.2248 19.1296 56.1422 19.1523 56.0581 19.1523C55.9739 19.1523 55.8913 19.1296 55.819 19.0867V19.0867ZM71.8289 29.6416C71.8286 29.654 71.8251 29.6661 71.8189 29.6768C71.8126 29.6875 71.8038 29.6965 71.7931 29.7029L57.2663 37.9935C57.2557 37.9993 57.2438 38.0022 57.2318 38.002C57.2197 38.0018 57.2079 37.9984 57.1975 37.9922C57.1872 37.986 57.1787 37.9772 57.1728 37.9666C57.1669 37.9561 57.1639 37.9442 57.164 37.9321V22.9457C57.1637 22.9338 57.1664 22.922 57.172 22.9114C57.1775 22.9009 57.1857 22.892 57.1958 22.8855C57.2058 22.8791 57.2174 22.8754 57.2293 22.8747C57.2412 22.8741 57.2531 22.8765 57.2638 22.8818L65.1907 26.6003C65.3772 26.6876 65.59 26.7002 65.7854 26.6356C65.9809 26.5709 66.1441 26.4339 66.2417 26.2528L71.696 16.048C71.7037 16.0349 71.7154 16.0246 71.7294 16.0187C71.7434 16.0127 71.7589 16.0113 71.7737 16.0147C71.7885 16.0181 71.8018 16.0262 71.8117 16.0377C71.8217 16.0492 71.8277 16.0635 71.8289 16.0786V29.6416Z" fill="white"/>
<path d="M0.00255715 45.9751H2.419V54.0433C2.39865 54.8605 2.42854 55.6782 2.5085 56.4917C2.57491 57.0773 2.84668 57.6206 3.27563 58.0251C3.72134 58.3976 4.29086 58.5892 4.87125 58.5618C5.35701 58.5837 5.83713 58.4504 6.24185 58.181C6.59752 57.923 6.85314 57.5501 6.9655 57.1255C7.09677 56.674 7.16155 55.7062 7.15984 54.2222V45.9751H9.57629V53.798C9.57629 55.7965 9.47145 57.2447 9.26177 58.1426C9.06653 59.0115 8.56335 59.7803 7.84514 60.3073C7.1087 60.8593 6.13871 61.1353 4.93518 61.1353C3.68391 61.1353 2.70796 60.907 2.00731 60.4504C1.30015 59.9904 0.761689 59.3133 0.473061 58.5209C0.159392 57.6911 0.00170472 56.1577 0 53.9207L0.00255715 45.9751Z" fill="white"/>
<path d="M12.1484 60.8721V45.9751H14.5035L19.408 55.9243V45.9751H21.6659V60.8721H19.229L14.3987 51.1605V60.8721H12.1484Z" fill="white"/>
<path d="M24.147 60.8721V45.9751H26.5685V60.8721H24.147Z" fill="white"/>
<path d="M31.5801 60.8721V48.495H28.0181V45.9751H37.5637V48.495H34.0093V60.8721H31.5801Z" fill="white"/>
<path d="M39.1257 60.8721V45.9751H48.0295V48.495H41.5422V51.7969H47.5692V54.3066H41.5422V58.3624H48.2494V60.8823L39.1257 60.8721Z" fill="white"/>
<path d="M50.2849 45.9751H54.6959C55.8133 45.9751 56.6546 46.1003 57.2248 46.3559C57.8438 46.6488 58.3825 47.0873 58.7949 47.6337C59.321 48.334 59.7033 49.1313 59.92 49.9798C60.2174 51.1485 60.355 52.3521 60.3291 53.5578C60.349 54.6918 60.2052 55.8228 59.9021 56.9159C59.6832 57.7306 59.3147 58.4975 58.8154 59.1777C58.3944 59.7182 57.8487 60.1488 57.2248 60.4325C56.4638 60.7396 55.6466 60.8833 54.8263 60.8542H50.2849V45.9751ZM52.6988 48.495V58.3624H54.5169C55.0894 58.3933 55.6626 58.317 56.2071 58.1375C56.5498 57.9953 56.847 57.762 57.0663 57.4628C57.3428 57.0283 57.5314 56.5438 57.6212 56.0368C57.7855 55.1908 57.8592 54.3298 57.8411 53.4683C57.8615 52.5929 57.786 51.718 57.6161 50.859C57.506 50.3098 57.2667 49.7947 56.918 49.3562C56.6184 49.0014 56.2151 48.7494 55.7647 48.6355C55.1155 48.5243 54.4566 48.4806 53.7984 48.5052L52.6988 48.495Z" fill="white"/>
<path d="M79.7121 52.9184V60.4295L79.4564 60.519C77.8892 61.0398 76.2495 61.3098 74.5979 61.3189C72.0562 61.3189 70.0898 60.6723 68.5811 59.3408C67.1312 58.0476 66.3027 56.0184 66.3027 53.7464C66.3283 49.1156 69.8341 46.0028 75.0326 46.0028C76.397 45.9715 77.7545 46.2058 79.0294 46.6928L79.3413 46.8334L78.6304 49.0568L78.2469 48.8983C77.2121 48.4808 76.1021 48.2815 74.9866 48.3131C71.4067 48.3131 69.1718 50.3576 69.1718 53.6621C69.1718 56.9666 71.3044 59.029 74.7334 59.029C75.4978 59.0515 76.2615 58.9655 77.0016 58.7734V55.1648H73.8743V52.9184H79.7121Z" fill="white"/>
<path d="M98.1002 61.1726H95.3872L94.9755 54.5509C94.9013 53.273 94.8169 51.8163 94.7735 50.4618C94.395 51.5505 93.9629 52.7006 93.4745 53.9401L90.6617 61.0959H88.616L86.0333 54.0576C85.5603 52.7593 85.1793 51.6527 84.8673 50.6611C84.8111 51.9543 84.7369 53.3625 84.65 54.7119L84.2153 61.1726H81.5457L82.6784 46.1504H85.8364L88.5597 53.2909C89.0865 54.7349 89.4828 55.913 89.7974 56.9557C90.117 55.9335 90.5338 54.7477 91.0913 53.2909L93.9322 46.1504H97.0876L98.1002 61.1726Z" fill="white"/>
<path d="M112.867 52.9186V60.4297L112.612 60.5191C111.044 61.0399 109.405 61.3099 107.753 61.319C105.214 61.319 103.245 60.6724 101.739 59.3409C100.289 58.0478 99.458 56.0186 99.458 53.7466C99.4836 49.1157 102.992 46.0029 108.188 46.0029C109.998 46.0029 111.441 46.3607 112.185 46.693L112.499 46.8335L111.788 49.0569L111.402 48.8985C110.367 48.48 109.256 48.2807 108.139 48.3132C104.559 48.3132 102.327 50.3578 102.327 53.6623C102.327 56.9667 104.457 59.0292 107.889 59.0292C108.653 59.0513 109.417 58.9653 110.157 58.7736V55.165H107.024V52.9186H112.867Z" fill="white"/>
<path d="M12.5449 65.978C12.939 65.9253 13.3363 65.8997 13.734 65.9013C14.2062 65.8672 14.677 65.9835 15.079 66.2336C15.2117 66.3288 15.3191 66.4549 15.3922 66.601C15.4653 66.747 15.5017 66.9086 15.4984 67.0718C15.5052 67.2332 15.4754 67.3941 15.4112 67.5424C15.3469 67.6906 15.25 67.8225 15.1276 67.928C14.7068 68.2437 14.1877 68.4003 13.6624 68.3701C13.4911 68.3746 13.3199 68.3626 13.151 68.3343V69.9393H12.5449V65.978ZM13.1637 67.9101C13.3322 67.9428 13.5036 67.9574 13.6752 67.9535C14.4244 67.9535 14.8795 67.6494 14.8795 67.0974C14.8795 66.5454 14.4321 66.3102 13.7468 66.3102C13.5514 66.3051 13.3561 66.3196 13.1637 66.3537V67.9101Z" fill="white"/>
<path d="M17.189 65.9828C17.5827 65.9261 17.9802 65.8987 18.378 65.901C19.0403 65.901 19.4673 66.0007 19.7665 66.2281C19.8859 66.3167 19.9823 66.4325 20.0477 66.5658C20.1131 66.6992 20.1455 66.8463 20.1424 66.9948C20.1424 67.5239 19.7435 67.874 19.2397 68.0171V68.035C19.4191 68.0935 19.5791 68.1995 19.703 68.3417C19.8268 68.4839 19.9097 68.657 19.9429 68.8426C20.0291 69.2213 20.1533 69.5903 20.3137 69.9441H19.6642C19.5233 69.6371 19.4161 69.3158 19.3446 68.9857C19.2014 68.4337 18.9457 68.219 18.3831 68.2062H17.8001V69.9441H17.189V65.9828ZM17.8078 67.8101H18.4419C19.1042 67.8101 19.5236 67.506 19.5236 67.0434C19.5236 66.5323 19.0761 66.2997 18.4189 66.2946C18.2142 66.2898 18.0095 66.3052 17.8078 66.3406V67.8101Z" fill="white"/>
<path d="M22.4921 65.9316V69.9389H21.8733V65.9316H22.4921Z" fill="white"/>
<path d="M24.4302 69.9389V65.9316H25.1078L26.6421 67.9583C26.96 68.3717 27.248 68.8072 27.5038 69.2617H27.5191C27.4639 68.7149 27.44 68.1654 27.4475 67.6158V65.9393H28.0306V69.9389H27.4041L25.8698 67.8944C25.5415 67.4682 25.2417 67.0208 24.9723 66.5552H24.9518C24.9876 67.0664 25.0004 67.5417 25.0004 68.2087V69.921L24.4302 69.9389Z" fill="white"/>
<path d="M30.8847 66.3712H29.4246V65.9316H32.9764V66.3712H31.5111V69.9492H30.8847V66.3712Z" fill="white"/>
<path d="M40.7755 68.1781C40.7397 67.6184 40.6962 66.9463 40.7039 66.4479H40.6834C40.5198 66.9182 40.3203 67.4165 40.0774 67.9813L39.231 69.9262H38.7605L37.9934 68.0171C37.7817 67.5073 37.5965 66.987 37.4385 66.4581H37.4257C37.4104 66.9565 37.3746 67.6286 37.3311 68.2292L37.2032 69.9492H36.6125L36.9475 65.9419H37.7377L38.5559 67.8791C38.7554 68.3723 38.919 68.8119 39.0418 69.2285H39.0622C39.2078 68.7696 39.3785 68.3192 39.5737 67.8791L40.4277 65.9419H41.2179L41.517 69.9492H40.888L40.7755 68.1781Z" fill="white"/>
<path d="M44.0149 68.679L43.5188 69.9389H42.877L44.5084 65.9316H45.255L46.8916 69.9389H46.2318L45.7204 68.679H44.0149ZM45.59 68.2726L45.1195 67.12C45.0217 66.8809 44.9364 66.637 44.8638 66.3891H44.8485C44.7769 66.6268 44.7002 66.8696 44.5928 67.1149L44.1248 68.2726H45.59Z" fill="white"/>
<path d="M49.071 65.9316V69.9389H48.4521V65.9316H49.071Z" fill="white"/>
<path d="M51.011 65.9316H51.6272V69.5096H53.6729V69.9441H51.011V65.9316Z" fill="white"/>
<path d="M57.5906 65.978C57.9847 65.9253 58.382 65.8997 58.7796 65.9013C59.2526 65.8672 59.7243 65.9835 60.1272 66.2336C60.2599 66.3288 60.3674 66.4549 60.4404 66.601C60.5135 66.747 60.5499 66.9086 60.5466 67.0718C60.5534 67.2332 60.5236 67.3941 60.4594 67.5424C60.3952 67.6906 60.2982 67.8225 60.1758 67.928C59.7542 68.2441 59.2342 68.4007 58.708 68.3701C58.5419 68.3738 58.3758 68.3618 58.2119 68.3343V69.9393H57.5906V65.978ZM58.2119 67.9101C58.3803 67.9431 58.5518 67.9577 58.7234 67.9535C59.47 67.9535 59.9278 67.6494 59.9278 67.0974C59.9278 66.5454 59.4777 66.3102 58.795 66.3102C58.5997 66.305 58.4043 66.3195 58.2119 66.3537V67.9101Z" fill="white"/>
<path d="M62.4137 68.679L61.915 69.9389H61.2732L62.9046 65.9316H63.6462L65.2853 69.9389H64.623L64.1116 68.679H62.4137ZM63.9863 68.2726L63.5158 67.12C63.4109 66.8645 63.3393 66.6089 63.26 66.3891H63.2447C63.1757 66.6268 63.0964 66.8696 63.0043 67.1149L62.5338 68.2726H63.9863Z" fill="white"/>
<path d="M70.0972 69.8088C69.6858 69.9478 69.2527 70.0119 68.8187 69.9979C67.466 69.9979 66.4482 69.2849 66.4482 67.9713C66.4482 66.7164 67.4711 65.8654 68.9542 65.8654C69.3423 65.8508 69.7296 65.9116 70.0946 66.0443L69.9438 66.466C69.6339 66.3508 69.3052 66.2945 68.9746 66.2999C67.8495 66.2999 67.1029 66.9004 67.1029 67.9534C67.1029 68.9347 67.7805 69.5634 68.9465 69.5634C69.2947 69.5701 69.6412 69.5138 69.9694 69.3973L70.0972 69.8088Z" fill="white"/>
<path d="M71.7289 65.9316H72.34V67.8637H72.363C72.4909 67.7078 72.6187 67.5647 72.7389 67.4344L74.2067 65.9316H74.9738L73.235 67.6312L75.1093 69.9313H74.3857L72.8028 67.9634L72.34 68.4106V69.9441H71.7212L71.7289 65.9316Z" fill="white"/>
<path d="M77.2905 68.679L76.7919 69.9389H76.1526L77.7815 65.9316H78.5307L80.1672 69.9389H79.4998L78.9884 68.679H77.2905ZM78.8657 68.2726L78.3951 67.12C78.2878 66.8645 78.2162 66.6089 78.1394 66.3891H78.1267C78.0551 66.6268 77.9758 66.8696 77.8837 67.1149L77.4132 68.2726H78.8657Z" fill="white"/>
<path d="M85.2738 69.7598C84.7959 69.9032 84.2999 69.9772 83.801 69.9796C83.161 70.0156 82.5284 69.8286 82.011 69.4506C81.7942 69.2681 81.6214 69.0392 81.5054 68.7808C81.3894 68.5224 81.3333 68.2412 81.341 67.958C81.341 66.762 82.3306 65.888 83.9416 65.888C84.3473 65.8796 84.7514 65.9418 85.1358 66.072L84.9874 66.4962C84.6478 66.3719 84.2878 66.313 83.9262 66.3224C82.7577 66.3224 81.9957 66.9281 81.9957 67.935C81.9957 68.942 82.7295 69.5528 83.847 69.5528C84.1265 69.5657 84.406 69.5294 84.6729 69.4454V68.2494H83.6936V67.8328H85.2738V69.7598Z" fill="white"/>
<path d="M87.6952 65.9316V69.9389H87.0764V65.9316H87.6952Z" fill="white"/>
<path d="M89.6338 69.9389V65.9316H90.3114L91.8457 67.9583C92.1636 68.3717 92.4516 68.8072 92.7074 69.2617H92.7228C92.6676 68.7149 92.6437 68.1654 92.6512 67.6158V65.9393H93.2342V69.9389H92.6077L91.0734 67.8944C90.7451 67.4682 90.4453 67.0208 90.1759 66.5552H90.1554C90.1912 67.0664 90.204 67.5417 90.204 68.2087V69.921L89.6338 69.9389Z" fill="white"/>
<path d="M98.8292 69.7597C98.3505 69.9031 97.8536 69.9771 97.3538 69.9795C96.7139 70.0155 96.0812 69.8286 95.5638 69.4505C95.348 69.2675 95.1759 69.0383 95.0604 68.78C94.9449 68.5217 94.8889 68.2408 94.8964 67.958C94.8964 66.7619 95.886 65.8879 97.4944 65.8879C97.901 65.8798 98.3058 65.9421 98.6911 66.0719L98.5403 66.4961C98.2007 66.3717 97.8406 66.3127 97.4791 66.3224C96.3131 66.3224 95.551 66.9281 95.551 67.935C95.551 68.9419 96.2849 69.5527 97.4024 69.5527C97.6818 69.5655 97.9614 69.5291 98.2283 69.4454V68.2493H97.2464V67.8328H98.8292V69.7597Z" fill="white"/>
</svg>
