<svg width="187" height="45" viewBox="0 0 187 45" fill="none" xmlns="http://www.w3.org/2000/svg">
<path d="M37.0403 18.508C37.04 21.7743 36.1768 24.9825 34.5382 27.808C32.8995 30.6335 30.5435 32.9759 27.7085 34.5982C24.8736 36.2205 21.6604 37.0651 18.3942 37.0465C15.128 37.0279 11.9246 36.1467 9.1084 34.4922L15.2076 27.4789C17.083 28.1821 19.134 28.268 21.0616 27.7238C22.9892 27.1797 24.6926 26.034 25.9234 24.4539C27.1542 22.8738 27.8481 20.9419 27.904 18.9397C27.9598 16.9376 27.3746 14.9699 26.2337 13.3237C25.0929 11.6775 23.456 10.4387 21.5617 9.788C19.6674 9.1373 17.6148 9.10871 15.7031 9.70639C13.7915 10.3041 12.1207 11.4967 10.9344 13.1106C9.74813 14.7244 9.10837 16.675 9.1084 18.6779V34.5245L0 45V18.508C0.000541398 13.7501 1.83098 9.17476 5.11222 5.72939C8.39346 2.28401 12.8741 0.232597 17.6263 0C17.9256 0 18.233 0 18.5323 0C23.4383 0.00855451 28.1409 1.96125 31.6099 5.43032C35.079 8.8994 37.0317 13.602 37.0403 18.508Z" fill="white"/>
<path d="M23.2808 17.6909H19.398V13.8081H17.6103V17.6909H13.7275V19.4786H17.6103V23.3614H19.398V19.4786H23.2808V17.6909Z" fill="white"/>
<path d="M51.9244 20.0768V10.7743C51.9244 10.4345 51.9244 10.4345 52.2641 10.4345C54.0276 10.4345 55.7991 10.4345 57.5625 10.4345C58.7707 10.3973 59.9759 10.5754 61.1218 10.9603C62.1152 11.2837 62.997 11.8813 63.6654 12.6842C64.3338 13.4872 64.7616 14.4627 64.8994 15.4983C65.0657 16.5057 65.0161 17.5369 64.7538 18.5237C64.4107 19.8982 63.5385 21.0815 62.327 21.816C61.392 22.4115 60.3196 22.7569 59.2127 22.819C57.7809 22.8918 56.3492 22.8918 54.9093 22.9242C54.6019 22.9242 54.6019 22.9242 54.6019 23.2316C54.6019 25.2943 54.6019 27.3651 54.6019 29.4359C54.6019 29.6786 54.5291 29.7433 54.2945 29.7433C53.6069 29.7433 52.9194 29.7433 52.2318 29.7433C51.9082 29.7433 51.9082 29.7433 51.9082 29.4198L51.9244 20.0768ZM54.6181 16.6874C54.6181 17.8361 54.6181 18.9767 54.6181 20.1253C54.6181 20.3195 54.6828 20.3761 54.8769 20.3761C55.9204 20.3761 56.9639 20.3761 57.9994 20.3761C58.7738 20.3795 59.5411 20.2282 60.2562 19.9312C61.014 19.6285 61.6294 19.0506 61.9792 18.3133C62.2356 17.7369 62.3467 17.1064 62.3028 16.4771C62.2917 15.9811 62.1706 15.4938 61.9482 15.0503C61.7257 14.6068 61.4075 14.2183 61.0166 13.9129C60.2243 13.3264 59.2599 13.0192 58.2744 13.0392C57.1581 13.0392 56.0337 13.0392 54.9174 13.0392C54.6666 13.0392 54.6181 13.1201 54.6181 13.3466C54.6181 14.4629 54.6181 15.563 54.6181 16.6874V16.6874Z" fill="white"/>
<path d="M138.85 18.7985L139.409 18.3294C140.002 17.8561 140.684 17.507 141.415 17.3027C142.146 17.0984 142.911 17.0432 143.663 17.1402C144.498 17.2191 145.307 17.4679 146.042 17.8713C146.776 18.2747 147.42 18.8243 147.935 19.4861C148.518 20.1708 148.94 20.9773 149.171 21.8465C149.402 22.7157 149.436 23.6256 149.269 24.5095C149.119 25.7022 148.624 26.825 147.843 27.7392C147.062 28.6535 146.031 29.3192 144.877 29.6542C144.008 29.9684 143.074 30.0591 142.161 29.9177C141.247 29.7764 140.384 29.4076 139.651 28.8453C139.367 28.6188 139.097 28.3757 138.842 28.1172V35.9475C138.842 36.2873 138.842 36.2873 138.494 36.2873C137.863 36.2873 137.233 36.2873 136.602 36.2873C136.351 36.2873 136.294 36.2064 136.294 35.9799C136.294 33.8363 136.294 31.7007 136.294 29.5571V17.6984C136.294 17.3263 136.294 17.3263 136.658 17.3263C137.297 17.3263 137.928 17.3263 138.559 17.3263C138.769 17.3263 138.85 17.3748 138.842 17.6013C138.834 17.9896 138.85 18.3779 138.85 18.7985ZM142.838 27.5753C143.641 27.5881 144.429 27.3619 145.103 26.9253C145.776 26.4888 146.305 25.8617 146.621 25.1238C146.937 24.386 147.026 23.5708 146.878 22.782C146.729 21.9933 146.349 21.2665 145.786 20.6944C145.223 20.1223 144.502 19.7306 143.716 19.5692C142.93 19.4078 142.113 19.4841 141.371 19.7882C140.628 20.0923 139.992 20.6106 139.545 21.2771C139.098 21.9435 138.859 22.728 138.858 23.5307C138.851 24.0585 138.948 24.5825 139.145 25.0723C139.341 25.5622 139.633 26.0082 140.003 26.3844C140.374 26.7606 140.815 27.0596 141.302 27.264C141.788 27.4685 142.311 27.5743 142.838 27.5753V27.5753Z" fill="white"/>
<path d="M71.4922 18.7502C71.5578 18.6947 71.6199 18.6353 71.6783 18.5723C72.0707 18.1321 72.5483 17.7762 73.0822 17.5259C73.6161 17.2756 74.1952 17.1363 74.7845 17.1162C75.8922 17.0085 77.0065 17.2398 77.9797 17.7795C78.862 18.2888 79.5355 19.0941 79.8807 20.0526C80.1618 20.808 80.3016 21.6086 80.2932 22.4146C80.2932 24.7766 80.2932 27.1387 80.2932 29.5007C80.2932 29.6949 80.2204 29.7434 80.0425 29.7353C79.3792 29.7353 78.7159 29.7353 78.0525 29.7353C77.818 29.7353 77.7452 29.6625 77.7452 29.4279C77.7452 27.3328 77.7452 25.2377 77.7452 23.1507C77.739 22.6322 77.6876 22.1152 77.5915 21.6057C77.4752 21.0563 77.185 20.559 76.764 20.1874C76.3429 19.8159 75.8133 19.5899 75.2537 19.543C74.7125 19.4817 74.1646 19.5173 73.6359 19.6481C73.1429 19.7609 72.6933 20.0143 72.3415 20.3775C71.9897 20.7408 71.7509 21.1984 71.654 21.6947C71.5275 22.2054 71.465 22.7298 71.468 23.2559C71.468 25.3105 71.468 27.3652 71.468 29.4198C71.468 29.7272 71.468 29.7272 71.1525 29.7272C70.5135 29.7272 69.8744 29.7272 69.2354 29.7272C69.0008 29.7272 68.928 29.6625 68.928 29.4198C68.928 27.713 68.928 26.0062 68.928 24.2994V10.8148C68.928 10.4346 68.928 10.4346 69.3163 10.4346C69.9391 10.4346 70.5539 10.4346 71.1687 10.4346C71.4033 10.4346 71.4761 10.4993 71.4761 10.742C71.4761 13.3143 71.4761 15.8867 71.4761 18.459L71.4922 18.7502Z" fill="white"/>
<path d="M125.552 17.0998C126.83 17.1094 128.076 17.497 129.134 18.2139C130.192 18.9308 131.014 19.9448 131.496 21.1281C131.978 22.3114 132.099 23.611 131.844 24.8631C131.589 26.1152 130.969 27.2637 130.062 28.1639C129.155 29.0641 128.002 29.6756 126.748 29.9214C125.494 30.1672 124.195 30.0363 123.016 29.5451C121.836 29.0539 120.828 28.2244 120.119 27.1613C119.41 26.0982 119.032 24.849 119.032 23.5711C119.032 22.7172 119.201 21.8717 119.529 21.0834C119.857 20.2951 120.338 19.5795 120.945 18.978C121.551 18.3764 122.27 17.9007 123.06 17.5784C123.851 17.256 124.698 17.0934 125.552 17.0998V17.0998ZM125.552 27.6157C126.356 27.6366 127.148 27.4173 127.827 26.9858C128.506 26.5543 129.04 25.9301 129.363 25.1932C129.685 24.4562 129.78 23.6399 129.636 22.8485C129.492 22.0571 129.116 21.3267 128.554 20.7505C127.993 20.1742 127.273 19.7785 126.486 19.6137C125.698 19.4489 124.88 19.5226 124.134 19.8254C123.389 20.1282 122.751 20.6463 122.302 21.3135C121.853 21.9807 121.613 22.7668 121.612 23.5711C121.606 24.0937 121.703 24.6123 121.898 25.0973C122.093 25.5822 122.381 26.0238 122.748 26.3967C123.114 26.7696 123.55 27.0664 124.031 27.2701C124.512 27.4737 125.029 27.5802 125.552 27.5833V27.6157Z" fill="white"/>
<path d="M89.8382 26.5966L91.7715 21.7431C92.3378 20.3464 92.9013 18.9443 93.4622 17.5367C93.4796 17.4609 93.5253 17.3944 93.5898 17.3509C93.6544 17.3073 93.7331 17.2899 93.81 17.3022H96.2772C96.2772 17.3992 96.2287 17.4801 96.1963 17.5529C93.9853 22.9133 91.7688 28.2711 89.547 33.6261C89.2234 34.435 88.8918 35.2439 88.5763 36.0043C88.5572 36.0792 88.5112 36.1445 88.447 36.1878C88.3829 36.231 88.3051 36.2492 88.2285 36.2389H85.9392C85.9958 36.0852 86.0282 35.9719 86.0767 35.8587L88.5035 30.0668C88.5355 29.9971 88.5521 29.9212 88.5521 29.8444C88.5521 29.7676 88.5355 29.6918 88.5035 29.622L83.5206 17.6985L83.3831 17.3103H83.6257C84.3699 17.3103 85.1141 17.3103 85.8583 17.3103C86.0606 17.3103 86.1415 17.3831 86.2143 17.561C87.3683 20.4785 88.5331 23.3987 89.7088 26.3216C89.7447 26.4165 89.788 26.5084 89.8382 26.5966V26.5966Z" fill="white"/>
<path d="M161.597 21.2418C161.597 20.0284 161.597 18.8151 161.597 17.6017C161.597 17.3914 161.654 17.3267 161.864 17.3348C162.527 17.3348 163.191 17.3348 163.854 17.3348C164.081 17.3348 164.145 17.4076 164.145 17.626C164.145 19.713 164.145 21.8 164.145 23.8789C164.135 24.424 164.198 24.9681 164.331 25.4967C164.471 26.0804 164.802 26.6008 165.271 26.9758C165.739 27.3508 166.32 27.559 166.92 27.5675C167.533 27.6228 168.151 27.5455 168.732 27.341C169.125 27.1817 169.473 26.9266 169.743 26.5988C170.012 26.2711 170.196 25.8811 170.277 25.4644C170.391 24.9598 170.454 24.4448 170.463 23.9274C170.463 21.8323 170.463 19.7453 170.463 17.6502C170.463 17.3267 170.463 17.3267 170.778 17.3267H172.768C172.962 17.3267 173.011 17.3914 173.011 17.5693C173.011 19.9961 173.011 22.3419 173.011 24.7202C173.04 25.922 172.663 27.0985 171.943 28.061C171.297 28.8739 170.406 29.458 169.403 29.7273C168.565 29.9786 167.688 30.0746 166.815 30.0105C165.52 29.979 164.272 29.5148 163.272 28.6919C162.474 27.9981 161.942 27.0488 161.767 26.0063C161.678 25.4552 161.629 24.8982 161.621 24.34C161.581 23.3126 161.597 22.2772 161.597 21.2418Z" fill="white"/>
<path d="M107.95 18.5641L106.623 20.3923C106.197 20.1506 105.757 19.9345 105.305 19.7451C104.401 19.3772 103.405 19.3036 102.457 19.5348C102.218 19.5835 102.001 19.7112 101.843 19.8975C101.685 20.0838 101.593 20.3178 101.584 20.5621C101.556 20.7716 101.594 20.9846 101.692 21.1715C101.791 21.3585 101.945 21.5102 102.134 21.6056C102.618 21.8644 103.121 22.0861 103.638 22.2689C104.673 22.5444 105.663 22.9695 106.575 23.5309C106.981 23.8051 107.315 24.1733 107.549 24.6042C107.783 25.0351 107.909 25.516 107.917 26.0061C107.993 26.902 107.73 27.7937 107.181 28.5057C106.603 29.2337 105.776 29.7232 104.86 29.8808C103.668 30.1405 102.431 30.0988 101.26 29.7595C100.645 29.5481 100.051 29.2772 99.4885 28.9506C99.1495 28.7548 98.8227 28.5387 98.5098 28.3035C98.6635 28.0689 98.801 27.8666 98.9385 27.6725C99.1893 27.3085 99.4481 26.9526 99.6908 26.5805C99.8121 26.3944 99.9173 26.3782 100.111 26.5077C100.911 27.0727 101.821 27.464 102.781 27.6563C103.392 27.7864 104.028 27.7444 104.617 27.535C104.853 27.4587 105.061 27.3128 105.212 27.1164C105.364 26.9201 105.452 26.6825 105.466 26.4349C105.496 26.2116 105.456 25.9845 105.35 25.7857C105.244 25.5868 105.078 25.4263 104.876 25.3266C104.416 25.0914 103.94 24.8887 103.452 24.72C102.568 24.4713 101.702 24.1577 100.864 23.7816C100.334 23.5402 99.8853 23.152 99.5698 22.6631C99.2544 22.1742 99.0858 21.6051 99.0841 21.0232C99.0299 20.1521 99.2912 19.2907 99.8202 18.5965C100.405 17.8586 101.25 17.3724 102.182 17.2375C103.758 16.9518 105.385 17.1845 106.817 17.9008C107.207 18.0998 107.585 18.3213 107.95 18.5641V18.5641Z" fill="white"/>
<path d="M181.432 30.0262C180.073 30.0414 178.743 29.6375 177.622 28.8694L176.934 28.4002C176.813 28.3193 176.797 28.2384 176.886 28.109C177.25 27.5994 177.614 27.0817 177.97 26.5559C178.091 26.3779 178.188 26.3779 178.366 26.4912C179.166 27.0572 180.075 27.4511 181.036 27.6479C181.664 27.7754 182.315 27.7306 182.92 27.5185C183.094 27.4599 183.253 27.3631 183.385 27.2352C183.516 27.1073 183.618 26.9515 183.681 26.7792C183.745 26.607 183.769 26.4227 183.752 26.2399C183.735 26.0571 183.678 25.8803 183.584 25.7227C183.345 25.3818 182.997 25.1333 182.597 25.019C181.966 24.7844 181.319 24.5983 180.672 24.388C179.895 24.1769 179.161 23.832 178.504 23.3688C178.18 23.117 177.912 22.7994 177.72 22.4368C177.528 22.0743 177.414 21.6751 177.387 21.2656C177.323 20.784 177.356 20.2942 177.485 19.8258C177.615 19.3573 177.837 18.9198 178.14 18.5395C178.721 17.8213 179.548 17.3455 180.461 17.2048C182.049 16.9221 183.685 17.1575 185.129 17.8762C185.449 18.0595 185.759 18.2593 186.059 18.4748C186.156 18.5476 186.188 18.6204 186.107 18.7337L184.967 20.2949C184.886 20.4081 184.813 20.4001 184.708 20.2949C183.963 19.7745 183.091 19.4643 182.184 19.397C181.697 19.3362 181.203 19.3692 180.728 19.4941C180.492 19.5474 180.28 19.6754 180.123 19.859C179.965 20.0426 179.871 20.272 179.855 20.5133C179.826 20.7271 179.864 20.9447 179.964 21.1359C180.064 21.3271 180.221 21.4826 180.413 21.5811C180.849 21.8127 181.3 22.0153 181.764 22.1878C182.572 22.5194 183.454 22.7944 184.271 23.1504C184.98 23.4274 185.558 23.9619 185.889 24.6469C186.112 25.1076 186.235 25.6101 186.25 26.1216C186.265 26.6331 186.173 27.142 185.978 27.6153C185.783 28.0885 185.491 28.5154 185.12 28.8681C184.75 29.2208 184.309 29.4914 183.826 29.6621C183.057 29.9299 182.246 30.0533 181.432 30.0262Z" fill="white"/>
<path d="M153.589 18.7907V10.742C153.589 10.4346 153.589 10.4346 153.904 10.4346C154.535 10.4346 155.166 10.4346 155.797 10.4346C156.04 10.4346 156.105 10.5074 156.105 10.75C156.105 15.7545 156.105 20.7644 156.105 25.7797C156.108 26.1403 156.157 26.4991 156.25 26.8475C156.306 27.098 156.453 27.319 156.662 27.4683C156.871 27.6175 157.127 27.6845 157.383 27.6564C157.654 27.6566 157.924 27.635 158.192 27.5917C158.361 27.5917 158.402 27.5917 158.402 27.7696C158.402 28.3925 158.402 29.0154 158.402 29.6382C158.392 29.6874 158.371 29.7336 158.34 29.773C158.309 29.8124 158.269 29.8438 158.224 29.8647C157.379 30.1316 156.472 30.1316 155.627 29.8647C155.238 29.7461 154.881 29.5381 154.586 29.2572C154.291 28.9763 154.066 28.6303 153.929 28.2469C153.725 27.7322 153.623 27.1827 153.629 26.6291C153.597 23.9839 153.589 21.3873 153.589 18.7907Z" fill="white"/>
<path d="M114.785 17.3428V29.4119C114.785 29.7354 114.785 29.7354 114.453 29.7354H112.585C112.245 29.7354 112.245 29.7354 112.245 29.3876C112.245 25.6127 112.245 21.8377 112.245 18.0628V17.5208C112.245 17.3995 112.245 17.3267 112.423 17.3267L114.785 17.3428Z" fill="white"/>
<path d="M113.556 14.681C113.236 14.681 112.923 14.5861 112.657 14.4083C112.391 14.2306 112.183 13.9779 112.061 13.6823C111.938 13.3866 111.906 13.0614 111.969 12.7475C112.031 12.4337 112.185 12.1454 112.412 11.9192C112.638 11.6929 112.926 11.5388 113.24 11.4764C113.554 11.414 113.879 11.446 114.175 11.5685C114.47 11.6909 114.723 11.8983 114.901 12.1643C115.079 12.4304 115.173 12.7432 115.173 13.0632C115.173 13.4922 115.003 13.9037 114.7 14.2071C114.396 14.5105 113.985 14.681 113.556 14.681Z" fill="white"/>
</svg>
