<svg width="167" height="45" viewBox="0 0 167 45" fill="none" xmlns="http://www.w3.org/2000/svg">
<path d="M62.5003 4.00391C68.0337 4.00391 71.6924 7.37596 71.6924 12.4865C71.6924 17.597 67.9581 20.984 62.334 20.984H55.0166V4.00391H62.5003ZM60.0813 17.0275H62.6364C64.9495 17.0275 66.5067 15.2291 66.5067 12.5165C66.5067 9.77386 64.8286 7.96044 62.3794 7.96044H60.0662L60.0813 17.0275Z" fill="white"/>
<path d="M86.5239 15.5738H77.6039C77.997 16.8327 78.9192 17.537 80.1892 17.537C81.2324 17.537 82.2302 17.0724 83.1222 16.2781L85.6772 18.766C84.2863 20.2946 82.2907 21.1339 79.781 21.1339C75.3361 21.1339 72.6299 18.4662 72.6299 14.4198C72.6299 10.2984 75.4268 7.61572 79.6298 7.61572C84.2712 7.63071 86.8111 10.733 86.5239 15.5738ZM81.6708 13.1759C81.701 11.872 80.8695 10.9428 79.6752 10.9428C78.5261 10.9428 77.7551 11.842 77.4981 13.1759H81.6708Z" fill="white"/>
<path d="M88.6101 20.9843V3H93.5388V20.9693L88.6101 20.9843Z" fill="white"/>
<path d="M109.534 15.5738H100.614C101.007 16.8327 101.93 17.537 103.2 17.537C104.243 17.537 105.241 17.0724 106.133 16.2781L108.688 18.766C107.297 20.2946 105.301 21.1339 102.791 21.1339C98.3466 21.1339 95.6404 18.4662 95.6404 14.4198C95.6404 10.2984 98.4373 7.61572 102.64 7.61572C107.297 7.63071 109.837 10.733 109.534 15.5738ZM104.681 13.1759C104.712 11.872 103.88 10.9428 102.686 10.9428C101.537 10.9428 100.766 11.842 100.509 13.1759H104.681Z" fill="white"/>
<path d="M124.487 19.8452C124.487 23.5469 121.539 25.8999 117.199 25.8999C114.735 25.8999 112.513 25.1206 111.076 24.1764L112.709 20.8793C113.873 21.6586 115.415 22.0932 116.776 22.0932C118.56 22.0932 119.603 21.2689 119.603 19.9801V18.6462C118.757 19.6653 117.562 20.2198 116.05 20.2198C112.83 20.2198 110.487 17.702 110.487 13.8504C110.487 10.0887 112.755 7.63086 115.945 7.63086C117.502 7.63086 118.742 8.21535 119.603 9.23446V7.8107H124.487V19.8452ZM119.603 14.0003C119.603 12.3218 118.696 11.2427 117.336 11.2427C115.99 11.2427 115.098 12.3517 115.098 14.0003C115.098 15.6189 116.005 16.7129 117.336 16.7129C118.711 16.7129 119.603 15.6189 119.603 14.0003Z" fill="white"/>
<path d="M139.575 12.4265V20.984H134.752V19.5303C133.951 20.5944 132.636 21.2088 130.882 21.2088C128.055 21.2088 126.392 19.5303 126.392 17.0724C126.392 14.5247 128.176 13.1309 131.517 13.0709H134.767V13.026C134.767 11.9319 133.981 11.2875 132.469 11.2875C131.426 11.2875 129.929 11.6022 128.463 12.2317L127.238 8.97953C129.415 8.11029 131.547 7.61572 133.633 7.61572C137.353 7.61572 139.575 9.38417 139.575 12.4265V12.4265ZM134.752 16.6378V15.4539H132.515C131.532 15.4539 131.033 15.8585 131.033 16.6828C131.033 17.5071 131.562 17.9866 132.515 17.9866C133.512 18.0016 134.389 17.4621 134.752 16.6378Z" fill="white"/>
<path d="M151.262 20.355C150.339 20.8946 148.918 21.2093 147.573 21.2093C144.746 21.2393 142.841 19.6057 142.841 16.8781V11.6027H141.011V8.48541H142.841V4.82861H147.739V8.48541H151.005V11.6027H147.739V16.1137C147.739 16.968 148.177 17.3726 148.858 17.3726C149.251 17.3726 149.78 17.2078 150.37 16.983L151.262 20.355Z" fill="white"/>
<path d="M165.987 15.5738H157.067C157.46 16.8327 158.383 17.537 159.653 17.537C160.696 17.537 161.694 17.0724 162.586 16.2781L165.141 18.766C163.75 20.2946 161.754 21.1339 159.244 21.1339C154.799 21.1339 152.093 18.4662 152.093 14.4198C152.093 10.2984 154.89 7.61572 159.093 7.61572C163.75 7.63071 166.275 10.733 165.987 15.5738ZM161.134 13.1759C161.164 11.872 160.333 10.9428 159.139 10.9428C157.99 10.9428 157.218 11.842 156.961 13.1759H161.134Z" fill="white"/>
<path d="M78.4051 28.6128L75.4721 32.0447C74.3986 30.6809 72.8112 29.7967 71.4052 29.7967C69.092 29.7967 67.3383 31.6551 67.3383 34.1579C67.3383 36.6457 69.092 38.5491 71.4052 38.5491C72.7205 38.5491 74.3079 37.7697 75.4721 36.5858L78.4051 39.6881C76.5455 41.6813 73.7485 42.9552 71.1633 42.9552C65.9625 42.9552 62.1375 39.2235 62.1375 34.2178C62.1375 29.2722 66.0381 25.6154 71.3296 25.6154C73.9149 25.6004 76.6664 26.7694 78.4051 28.6128Z" fill="white"/>
<path d="M93.4633 36.136C93.4633 40.2125 90.5605 42.8951 86.1005 42.8951C81.6405 42.8951 78.7075 40.2125 78.7075 36.136C78.7075 32.0446 81.6405 29.377 86.1005 29.377C90.5605 29.377 93.4633 32.0446 93.4633 36.136V36.136ZM83.6967 36.196C83.6967 37.9644 84.6491 39.1334 86.1156 39.1334C87.5519 39.1334 88.5044 37.9644 88.5044 36.196C88.5044 34.4575 87.5519 33.2586 86.1156 33.2586C84.6491 33.2586 83.6967 34.4425 83.6967 36.196Z" fill="white"/>
<path d="M109.338 34.3674V42.7301H104.409V35.7762C104.409 34.4723 103.653 33.6481 102.504 33.6481C101.159 33.678 100.327 34.7121 100.327 36.2108V42.7301H95.4136V29.5566H100.342V31.5949C101.264 30.1411 102.701 29.3618 104.56 29.3618C107.388 29.3618 109.338 31.3251 109.338 34.3674Z" fill="white"/>
<path d="M125.878 34.3674V42.7301H120.949V35.7762C120.949 34.4723 120.193 33.6481 119.044 33.6481C117.698 33.678 116.867 34.7121 116.867 36.2108V42.7301H111.938V29.5566H116.882V31.5949C117.804 30.1411 119.241 29.3618 121.1 29.3618C123.927 29.3618 125.878 31.3251 125.878 34.3674Z" fill="white"/>
<path d="M141.359 37.335H132.439C132.832 38.5939 133.754 39.2983 135.024 39.2983C136.067 39.2983 137.065 38.8337 137.957 38.0394L140.512 40.5272C139.121 42.0559 137.126 42.8951 134.616 42.8951C130.171 42.8951 127.465 40.2275 127.465 36.181C127.465 32.0596 130.262 29.377 134.465 29.377C139.121 29.377 141.646 32.4792 141.359 37.335ZM136.506 34.9371C136.536 33.6332 135.704 32.704 134.51 32.704C133.361 32.704 132.59 33.6033 132.333 34.9371H136.506Z" fill="white"/>
<path d="M155.374 32.8237L151.594 34.6671C151.126 33.8428 150.4 33.3633 149.478 33.3633C148.162 33.3633 147.286 34.5023 147.286 36.1658C147.286 37.8893 148.162 39.0283 149.478 39.0283C150.43 39.0283 151.156 38.5637 151.579 37.5746L155.404 39.4929C154.376 41.666 152.139 42.9099 149.206 42.9099C145.033 42.9099 142.312 40.2422 142.312 36.1958C142.312 32.1044 145.063 29.3917 149.266 29.3917C152.033 29.3767 154.255 30.6506 155.374 32.8237Z" fill="white"/>
<path d="M166.108 42.1006C165.186 42.6402 163.765 42.9549 162.419 42.9549C159.592 42.9849 157.687 41.3513 157.687 38.6237V33.3633H155.858V30.246H157.687V26.5742H162.585V30.231H165.851V33.3483H162.585V37.8593C162.585 38.7136 163.024 39.1182 163.704 39.1182C164.097 39.1182 164.626 38.9534 165.216 38.7286L166.108 42.1006Z" fill="white"/>
<path d="M48.3947 38.4887C48.3796 36.8402 47.9562 35.2815 47.2154 33.9177C47.0794 33.663 46.9282 33.4082 46.7619 33.1684C46.0513 32.0893 45.1139 31.1452 44.0405 30.4108C42.574 29.4067 40.8202 28.7922 38.9304 28.7023C38.7641 28.6873 38.5827 28.6873 38.4013 28.6873H36.8289C37.2825 27.0537 37.5244 25.3302 37.5244 23.5468C37.5244 21.7484 37.2825 20.0249 36.8289 18.3763H38.4164C38.6734 18.3763 38.9304 18.3613 39.1874 18.3464C41.0017 18.2115 42.6798 17.597 44.101 16.6229C45.1593 15.8885 46.0815 14.9743 46.777 13.8953C46.9433 13.6405 47.1096 13.3707 47.2608 13.086C47.9865 11.7072 48.4098 10.1485 48.4098 8.47V4.00391H30.5547C30.3582 4.00391 30.1616 4.00391 29.95 4.01889C29.7988 4.01889 29.6476 4.03388 29.4964 4.03388C29.4964 4.03388 29.4964 4.01889 29.5115 4.01889H17.9609C17.9307 4.01889 17.9004 4.01889 17.8702 4.01889H0.0151187V8.39506V8.49997C0.0302373 10.1485 0.453558 11.7072 1.19437 13.071C1.33044 13.3258 1.48162 13.5805 1.64793 13.8203C2.3585 14.8994 3.29586 15.8435 4.36928 16.5779C5.83578 17.582 7.58954 18.1965 9.47937 18.2864C9.64567 18.3014 9.8271 18.3014 9.9934 18.3014H11.5657C11.1122 19.935 10.8703 21.6585 10.8703 23.4419C10.8703 25.2253 11.1122 26.9638 11.5657 28.6124H9.9934C9.73639 28.6124 9.47937 28.6274 9.22235 28.6424C7.40812 28.7772 5.72995 29.3917 4.3088 30.3658C3.2505 31.1002 2.32827 32.0144 1.63281 33.0935C1.46651 33.3482 1.3002 33.618 1.14901 33.9027C0.423321 35.2815 0 36.8402 0 38.5187V42.9998L29.4964 42.9848C29.4964 42.9848 29.4964 42.9698 29.4813 42.9698C29.829 42.9848 30.1767 42.9998 30.5245 42.9998H48.3644V38.6236C48.3947 38.5637 48.3947 38.5337 48.3947 38.4887V38.4887ZM30.5547 8.48499H43.8742C43.8742 8.67982 43.8591 8.88963 43.844 9.08446C43.6625 10.718 42.7554 12.1418 41.4401 12.996C40.5784 13.5655 39.5352 13.8953 38.4164 13.8953H34.9693C34.9391 13.8503 34.924 13.8053 34.8938 13.7604C33.7145 11.7371 32.1875 9.9537 30.3733 8.48499H30.5547ZM7.03015 12.9511C5.71483 12.1118 4.77748 10.703 4.56582 9.08446C4.53558 8.88963 4.52046 8.6948 4.52046 8.49997H17.8551H17.8853C18.5959 8.49997 19.2913 8.55992 19.9717 8.64984C21.4231 8.85966 22.7989 9.2643 24.0839 9.83381C26.0191 10.703 27.7427 11.9619 29.1336 13.5056C29.6476 14.0751 30.1314 14.6896 30.5547 15.334C31.1141 16.1882 31.5979 17.1024 31.9759 18.0616C32.0061 18.1216 32.0212 18.1815 32.0515 18.2564C32.6864 19.905 33.019 21.7034 33.019 23.5768C33.019 25.3003 32.7318 26.9488 32.1875 28.4925C32.1573 28.5674 32.127 28.6424 32.1119 28.7173H30.585C29.2545 28.7173 28.0148 28.2377 27.0774 27.4434C27.5461 26.2894 27.8031 25.0305 27.8031 23.7267C27.8031 22.183 27.4403 20.7143 26.8053 19.4104C26.8053 19.4104 26.8053 19.4104 26.8053 19.3954C26.1401 18.0316 25.1574 16.8327 23.963 15.9035C22.5267 14.7945 20.7881 14.0751 18.8831 13.8803C18.7168 13.8653 18.5354 13.8503 18.3691 13.8353C18.2028 13.8203 18.0516 13.8203 17.8853 13.8203H9.9934C8.90486 13.8053 7.89191 13.4906 7.03015 12.9511V12.9511ZM4.53558 38.4887C4.53558 38.2789 4.5507 38.0841 4.56582 37.8893C4.74724 36.2557 5.65436 34.8319 6.96968 33.9777C7.83144 33.4082 8.87462 33.0785 9.9934 33.0785H13.4404C13.4707 33.1234 13.5009 33.1834 13.5312 33.2283C14.7104 35.2366 16.2374 37.02 18.0365 38.4887C17.976 38.4887 17.9307 38.4887 17.8702 38.4887H4.53558ZM30.5547 38.4887C30.5396 38.4887 30.5396 38.4887 30.5245 38.4887C29.8139 38.4887 29.1184 38.4288 28.4381 38.3389C26.9867 38.1291 25.6109 37.7244 24.3258 37.1549C22.3907 36.2857 20.6671 35.0268 19.2762 33.4831C18.7622 32.9136 18.2784 32.2992 17.8551 31.6547C17.2957 30.8005 16.8119 29.8863 16.4339 28.9271C16.4037 28.8672 16.3886 28.8072 16.3583 28.7323C15.7234 27.0837 15.3907 25.2853 15.3907 23.4119C15.3907 21.6884 15.678 20.0399 16.2223 18.4962C16.2525 18.4213 16.2827 18.3464 16.2979 18.2714H17.8248C19.1553 18.2714 20.395 18.751 21.3324 19.5453C20.8637 20.6993 20.6067 21.9582 20.6067 23.2621C20.6067 24.8057 20.9695 26.2744 21.6045 27.5783V27.5933C22.2697 28.9571 23.2524 30.156 24.4468 31.0852C25.8831 32.1942 27.6217 32.9136 29.5266 33.1084C29.693 33.1234 29.8744 33.1384 30.0407 33.1534C30.207 33.1684 30.3582 33.1684 30.5245 33.1684H38.3862C39.4747 33.1684 40.4876 33.4831 41.3494 34.0376C42.6647 34.8769 43.6021 36.2857 43.8137 37.9042C43.844 38.0991 43.8591 38.2939 43.8591 38.4887H30.5547Z" fill="white"/>
</svg>
